%FSLAX25Y25*%
%MOIN*%
G70*
G01*
G75*
G04 Layer_Physical_Order=2*
G04 Layer_Color=16711680*
%ADD10R,0.04331X0.03937*%
%ADD11R,0.03937X0.04331*%
%ADD12C,0.06000*%
%ADD13R,0.05906X0.05118*%
%ADD14R,0.06890X0.13583*%
%ADD15R,0.06890X0.04331*%
%ADD16R,0.06890X0.04331*%
%ADD17R,0.07480X0.07480*%
%ADD18R,0.00984X0.11811*%
%ADD19R,0.07874X0.03937*%
%ADD20C,0.05000*%
%ADD21C,0.01000*%
%ADD22C,0.01969*%
%ADD23C,0.01181*%
%ADD24C,0.04724*%
%ADD25R,0.05000X0.05000*%
%ADD26C,0.02500*%
%ADD27R,0.05000X0.04724*%
%ADD28C,0.02756*%
%ADD29R,0.03937X0.11811*%
%ADD30O,0.09843X0.02756*%
%ADD31R,0.11811X0.03937*%
%ADD32R,0.03937X0.03740*%
%ADD33R,0.03740X0.03937*%
%ADD34R,0.05709X0.02165*%
%ADD35R,0.05709X0.02165*%
G36*
X271031Y292152D02*
Y288181D01*
X271031Y288181D01*
X271031Y287819D01*
X271031D01*
Y281488D01*
X275003D01*
X275072Y281419D01*
X275072D01*
X275072Y281419D01*
X275072Y281418D01*
Y281419D01*
X275471Y281152D01*
Y277500D01*
X275471Y277500D01*
X275471D01*
X275587Y276915D01*
X275919Y276419D01*
X279419Y272919D01*
X279476Y272880D01*
X279390Y272539D01*
X279390D01*
Y271427D01*
X278928Y271235D01*
X275735Y274428D01*
X275239Y274759D01*
X274969Y274813D01*
Y276512D01*
X269032D01*
Y270181D01*
X269032Y270181D01*
X269032Y269819D01*
X269032D01*
Y268785D01*
X268570Y268593D01*
X263959Y273204D01*
Y287130D01*
X265398D01*
Y292211D01*
X270973D01*
X271031Y292152D01*
D02*
G37*
G36*
X259323Y309823D02*
X258378D01*
Y305658D01*
X261582D01*
X261852Y305477D01*
X262626Y305323D01*
X269032D01*
Y304181D01*
X269032Y304181D01*
X269032Y303819D01*
X269032D01*
Y297488D01*
X274969D01*
Y299124D01*
X277713D01*
X285471Y291367D01*
Y284500D01*
X285471Y284500D01*
X285471D01*
X285587Y283915D01*
X285919Y283419D01*
X287477Y281860D01*
X287286Y281398D01*
X285194D01*
X283011Y283581D01*
X282515Y283913D01*
X281929Y284029D01*
X276969D01*
Y287819D01*
D01*
Y287819D01*
X276969Y287819D01*
Y288181D01*
X276969D01*
Y294512D01*
X272997D01*
X272688Y294822D01*
X272192Y295153D01*
X271606Y295270D01*
X256539D01*
Y296148D01*
X257243D01*
X257829Y296264D01*
X257984Y296368D01*
X259870D01*
X260455Y296485D01*
X260952Y296816D01*
X262313Y298177D01*
X266087D01*
Y302343D01*
X258378D01*
Y299427D01*
X257622D01*
Y302343D01*
X251530D01*
X250529Y303343D01*
Y305658D01*
X257622D01*
Y309823D01*
X256099D01*
X255863Y310264D01*
X256067Y310568D01*
X256159Y311032D01*
X257819D01*
Y311032D01*
X257819D01*
X257819Y311032D01*
X258181D01*
Y311032D01*
X259323D01*
Y309823D01*
D02*
G37*
G36*
X363378Y331719D02*
X363079Y330472D01*
X362942Y328740D01*
X363079Y327008D01*
X363484Y325318D01*
X364149Y323713D01*
X365057Y322231D01*
X366186Y320910D01*
X367507Y319781D01*
X368988Y318874D01*
X370594Y318209D01*
X372284Y317803D01*
X374016Y317667D01*
X375748Y317803D01*
X377342Y318186D01*
X377587Y317750D01*
X369367Y309529D01*
X351000D01*
X350415Y309413D01*
X349919Y309081D01*
X343718Y302881D01*
X343500Y302924D01*
X342572Y302740D01*
X341786Y302214D01*
X341260Y301428D01*
X341075Y300500D01*
X341260Y299572D01*
X341786Y298786D01*
X342572Y298260D01*
X343302Y298115D01*
X343399Y297624D01*
X342786Y297214D01*
X342260Y296428D01*
X342075Y295500D01*
X342260Y294572D01*
X342786Y293786D01*
X343464Y293332D01*
X343273Y292870D01*
D01*
D01*
X343000Y292924D01*
X342072Y292740D01*
X341286Y292214D01*
X340760Y291428D01*
X340576Y290500D01*
X340760Y289572D01*
X341286Y288786D01*
X342072Y288260D01*
X343000Y288075D01*
X343928Y288260D01*
X344714Y288786D01*
X344838Y288971D01*
X352366D01*
X354119Y287218D01*
X354076Y287000D01*
X354260Y286072D01*
X354786Y285286D01*
X355572Y284760D01*
X356324Y284611D01*
X356469Y284132D01*
X347366Y275029D01*
X322634D01*
X320881Y276782D01*
X320924Y277000D01*
X320740Y277928D01*
X320214Y278714D01*
X319428Y279240D01*
X318500Y279425D01*
X317572Y279240D01*
X316786Y278714D01*
X316260Y277928D01*
X316075Y277000D01*
X316260Y276072D01*
X316786Y275286D01*
X317572Y274760D01*
X318500Y274575D01*
X318718Y274619D01*
X319882Y273456D01*
X319737Y272977D01*
X319415Y272913D01*
X318919Y272581D01*
X314785Y268448D01*
X314307Y268593D01*
X314240Y268928D01*
X313714Y269714D01*
X312928Y270240D01*
X312000Y270425D01*
X311072Y270240D01*
X310286Y269714D01*
X309760Y268928D01*
X309576Y268000D01*
X309619Y267782D01*
X308865Y267027D01*
X294446D01*
X292610Y268864D01*
Y272539D01*
X291029D01*
Y279556D01*
X291508Y279701D01*
X291786Y279286D01*
X292572Y278760D01*
X293500Y278575D01*
X294428Y278760D01*
X295214Y279286D01*
X295740Y280072D01*
X295924Y281000D01*
X295740Y281928D01*
X295214Y282714D01*
X295029Y282838D01*
Y289662D01*
X295214Y289786D01*
X295740Y290572D01*
X295924Y291500D01*
X295740Y292428D01*
X295214Y293214D01*
X294428Y293740D01*
X293500Y293924D01*
X292572Y293740D01*
X291786Y293214D01*
X291260Y292428D01*
X291075Y291500D01*
X291260Y290572D01*
X291786Y289786D01*
X291971Y289662D01*
Y282838D01*
X291786Y282714D01*
X291456Y282222D01*
X290966Y282319D01*
X290932Y282488D01*
X290913Y282585D01*
X290581Y283081D01*
X288529Y285134D01*
Y292000D01*
X288458Y292359D01*
X288812Y292712D01*
X289500Y292576D01*
X290428Y292760D01*
X291214Y293286D01*
X291740Y294072D01*
X291919Y294971D01*
X293500D01*
X294085Y295087D01*
X294581Y295419D01*
X297164Y298001D01*
X297496Y298497D01*
X297612Y299083D01*
Y299579D01*
X297797Y299703D01*
X298323Y300490D01*
X298507Y301417D01*
X298323Y302345D01*
X297797Y303132D01*
X297010Y303657D01*
X296083Y303842D01*
X295155Y303657D01*
X294368Y303132D01*
X293843Y302345D01*
X293658Y301417D01*
X293843Y300490D01*
X294368Y299703D01*
X294384Y299547D01*
X292866Y298029D01*
X291000D01*
X290415Y297913D01*
X289919Y297581D01*
X289718Y297381D01*
X289500Y297425D01*
X288572Y297240D01*
X287786Y296714D01*
X287260Y295928D01*
X287075Y295000D01*
X287134Y294706D01*
X286693Y294470D01*
X279428Y301735D01*
X278932Y302067D01*
X278346Y302183D01*
X274969D01*
Y303819D01*
D01*
Y303819D01*
X274969Y303819D01*
Y304181D01*
X274969D01*
Y310512D01*
X269032D01*
Y309369D01*
X266087D01*
Y309823D01*
X263369D01*
Y311032D01*
X264512D01*
Y316968D01*
X263369D01*
Y324000D01*
X263369Y324000D01*
X263369Y324000D01*
Y324000D01*
Y325031D01*
X264512D01*
Y329151D01*
X266838Y331477D01*
X275662D01*
X283307Y323832D01*
X283116Y323370D01*
X274969D01*
Y324512D01*
X269032D01*
Y318181D01*
X274969D01*
Y319323D01*
X285032D01*
Y315094D01*
X290968D01*
Y322107D01*
X291838Y322977D01*
X293248D01*
X293572Y322760D01*
X294500Y322575D01*
X295428Y322760D01*
X296214Y323286D01*
X296740Y324072D01*
X296807Y324407D01*
X297285Y324552D01*
X298919Y322919D01*
X298919D01*
X298919Y322919D01*
X298919Y322919D01*
Y322919D01*
X299415Y322587D01*
X300000Y322471D01*
X331366D01*
X336419Y317419D01*
X336915Y317087D01*
X337012Y317068D01*
X337500Y316971D01*
X351500D01*
X352085Y317087D01*
X352581Y317419D01*
X359581Y324419D01*
X359913Y324915D01*
X359932Y325012D01*
X360029Y325500D01*
Y329051D01*
X362942Y331963D01*
X363378Y331719D01*
D02*
G37*
G36*
X356419Y265419D02*
X356915Y265087D01*
X357500Y264971D01*
X359036D01*
X359160Y264786D01*
X359946Y264260D01*
X359997Y264250D01*
Y263750D01*
X359946Y263740D01*
X359160Y263214D01*
X358634Y262428D01*
X358450Y261500D01*
X358634Y260572D01*
X359160Y259786D01*
X359946Y259260D01*
X359997Y259250D01*
Y258750D01*
X359946Y258740D01*
X359160Y258214D01*
X358634Y257428D01*
X358450Y256500D01*
X358634Y255572D01*
X359160Y254786D01*
X359946Y254260D01*
X359997Y254250D01*
Y253750D01*
X359946Y253740D01*
X359160Y253214D01*
X358634Y252428D01*
X358450Y251500D01*
X358634Y250572D01*
X359160Y249786D01*
X359946Y249260D01*
X359997Y249250D01*
Y248750D01*
X359946Y248740D01*
X359160Y248214D01*
X358634Y247428D01*
X358450Y246500D01*
X358634Y245572D01*
X359036Y244970D01*
X358800Y244529D01*
X357028D01*
X356442Y244413D01*
X355946Y244081D01*
X352981Y241116D01*
X351328D01*
X351107Y241564D01*
X351494Y242069D01*
X351897Y243042D01*
X352034Y244087D01*
X351897Y245131D01*
X351494Y246104D01*
X350853Y246939D01*
X350023Y247576D01*
Y258510D01*
X350853Y259147D01*
X351494Y259983D01*
X351897Y260956D01*
X352034Y262000D01*
X351897Y263044D01*
X351494Y264017D01*
X350853Y264853D01*
X350017Y265494D01*
X349044Y265897D01*
X348000Y266035D01*
X346956Y265897D01*
X345983Y265494D01*
X345147Y264853D01*
X344506Y264017D01*
X344103Y263044D01*
X343966Y262000D01*
X344103Y260956D01*
X344506Y259983D01*
X345147Y259147D01*
X345977Y258510D01*
Y247576D01*
X345147Y246939D01*
X344506Y246104D01*
X344103Y245131D01*
X343966Y244087D01*
X344103Y243042D01*
X344307Y242549D01*
X343892Y242271D01*
X340995Y245168D01*
X340499Y245500D01*
X339913Y245616D01*
X325712D01*
X325510Y246104D01*
X324869Y246939D01*
X324033Y247581D01*
X323545Y247783D01*
Y258304D01*
X324033Y258506D01*
X324869Y259147D01*
X325510Y259983D01*
X325913Y260956D01*
X326050Y262000D01*
X325913Y263044D01*
X325510Y264017D01*
X324869Y264853D01*
X324033Y265494D01*
X323060Y265897D01*
X322016Y266035D01*
X320972Y265897D01*
X319999Y265494D01*
X319163Y264853D01*
X318522Y264017D01*
X318119Y263044D01*
X317981Y262000D01*
X318119Y260956D01*
X318522Y259983D01*
X319163Y259147D01*
X319999Y258506D01*
X320486Y258304D01*
Y247783D01*
X319999Y247581D01*
X319163Y246939D01*
X318522Y246104D01*
X318119Y245131D01*
X317981Y244087D01*
X318119Y243042D01*
X318522Y242069D01*
X319163Y241234D01*
X319999Y240593D01*
X320972Y240190D01*
X322016Y240052D01*
X323060Y240190D01*
X324033Y240593D01*
X324869Y241234D01*
X325510Y242069D01*
X325712Y242557D01*
X339280D01*
X343332Y238505D01*
X343746Y238228D01*
X343601Y237750D01*
X316000D01*
Y238500D01*
Y262509D01*
X321462Y267971D01*
X353867D01*
X356419Y265419D01*
D02*
G37*
G36*
X358505Y281219D02*
X358634Y280572D01*
X359160Y279786D01*
X359946Y279260D01*
X359997Y279250D01*
Y278750D01*
X359946Y278740D01*
X359160Y278214D01*
X358634Y277428D01*
X358450Y276500D01*
X358634Y275572D01*
X359160Y274786D01*
X359946Y274260D01*
X359997Y274250D01*
Y273750D01*
X359946Y273740D01*
X359160Y273214D01*
X359036Y273029D01*
X350346D01*
X350154Y273491D01*
X358027Y281364D01*
X358505Y281219D01*
D02*
G37*
G36*
X396667Y320969D02*
X396286Y320714D01*
X395760Y319928D01*
X395575Y319000D01*
X395760Y318072D01*
X396286Y317286D01*
X396471Y317162D01*
Y316454D01*
X396367Y316349D01*
X390020D01*
X389435Y316233D01*
X388938Y315901D01*
X376919Y303882D01*
X376587Y303385D01*
X376471Y302800D01*
Y286408D01*
X376030Y286172D01*
X375928Y286240D01*
X375000Y286424D01*
X374072Y286240D01*
X373286Y285714D01*
X372760Y284928D01*
X372575Y284000D01*
X372760Y283072D01*
X373286Y282286D01*
X373471Y282162D01*
Y261000D01*
X373587Y260415D01*
X373919Y259919D01*
X378971Y254867D01*
Y246756D01*
X378971Y246756D01*
X378971D01*
X379087Y246171D01*
X379419Y245674D01*
X380102Y244991D01*
X379910Y244529D01*
X370034D01*
X369798Y244970D01*
X370201Y245572D01*
X370385Y246500D01*
X370201Y247428D01*
X369675Y248214D01*
X368888Y248740D01*
X367961Y248924D01*
Y249076D01*
X368888Y249260D01*
X369675Y249786D01*
X370201Y250572D01*
X370385Y251500D01*
X370201Y252428D01*
X369675Y253214D01*
X368888Y253740D01*
X368838Y253750D01*
Y254250D01*
X368888Y254260D01*
X369675Y254786D01*
X370201Y255572D01*
X370385Y256500D01*
X370201Y257428D01*
X369675Y258214D01*
X368888Y258740D01*
X368838Y258750D01*
Y259250D01*
X368888Y259260D01*
X369675Y259786D01*
X370201Y260572D01*
X370385Y261500D01*
X370201Y262428D01*
X369675Y263214D01*
X368888Y263740D01*
X368838Y263750D01*
Y264250D01*
X368888Y264260D01*
X369675Y264786D01*
X370201Y265572D01*
X370385Y266500D01*
X370201Y267428D01*
X369675Y268214D01*
X368888Y268740D01*
X367961Y268924D01*
Y269075D01*
X368888Y269260D01*
X369675Y269786D01*
X370201Y270572D01*
X370385Y271500D01*
X370201Y272428D01*
X369675Y273214D01*
X368888Y273740D01*
X367961Y273924D01*
Y274076D01*
X368888Y274260D01*
X369675Y274786D01*
X370201Y275572D01*
X370385Y276500D01*
X370201Y277428D01*
X369675Y278214D01*
X368888Y278740D01*
X368838Y278750D01*
Y279250D01*
X368888Y279260D01*
X369675Y279786D01*
X370201Y280572D01*
X370385Y281500D01*
X370201Y282428D01*
X369675Y283214D01*
X369594Y283269D01*
X369545Y283766D01*
X370931Y285152D01*
X371224Y285591D01*
X371369Y285808D01*
X371523Y286583D01*
Y290748D01*
X371740Y291072D01*
X371924Y292000D01*
X371740Y292928D01*
X371214Y293714D01*
X370428Y294240D01*
X369500Y294425D01*
D01*
D01*
D01*
X369311Y294777D01*
X375017Y300483D01*
X375349Y300979D01*
X375368Y301076D01*
X375465Y301564D01*
Y308474D01*
X388439Y321447D01*
X396521D01*
X396667Y320969D01*
D02*
G37*
G36*
X205951Y344488D02*
X206067Y343903D01*
X206326Y343516D01*
X206386Y342756D01*
X206791Y341066D01*
X207456Y339461D01*
X208364Y337979D01*
X209493Y336658D01*
X210814Y335529D01*
X212296Y334622D01*
X213901Y333957D01*
X215591Y333551D01*
X217323Y333415D01*
X219055Y333551D01*
X220745Y333957D01*
X222350Y334622D01*
X223400Y335265D01*
X223709Y334872D01*
X207201Y318364D01*
X145173D01*
X145049Y318549D01*
X144262Y319075D01*
X143335Y319259D01*
X142407Y319075D01*
X141620Y318549D01*
X141095Y317762D01*
X140910Y316835D01*
X141095Y315907D01*
X141620Y315120D01*
X142407Y314595D01*
X143335Y314410D01*
X144262Y314595D01*
X145049Y315120D01*
X145173Y315305D01*
X207835D01*
X208420Y315422D01*
X208530Y315495D01*
X208971Y315259D01*
Y308838D01*
X208786Y308714D01*
X208260Y307928D01*
X208075Y307000D01*
X208260Y306072D01*
X208786Y305286D01*
X209572Y304760D01*
X210500Y304575D01*
X211428Y304760D01*
X212214Y305286D01*
X212740Y306072D01*
X212825Y306500D01*
X212925Y307000D01*
X212740Y307928D01*
X212214Y308714D01*
X212029Y308838D01*
Y315380D01*
X221015Y324365D01*
X221477Y324174D01*
Y320752D01*
X221260Y320428D01*
X221076Y319500D01*
X221260Y318572D01*
X221786Y317786D01*
X222572Y317260D01*
X223500Y317075D01*
X224428Y317260D01*
X225214Y317786D01*
X225740Y318572D01*
X225924Y319500D01*
X225740Y320428D01*
X225523Y320752D01*
Y324662D01*
X232338Y331477D01*
X260462D01*
X260501Y331384D01*
X260223Y330968D01*
X258181D01*
D01*
D01*
X258181Y330968D01*
X257819D01*
Y330968D01*
X251488D01*
Y329428D01*
X251415Y329413D01*
X250919Y329081D01*
X249218Y327381D01*
X249000Y327425D01*
X248072Y327240D01*
X247286Y326714D01*
X246760Y325928D01*
X246575Y325000D01*
X246760Y324072D01*
X247286Y323286D01*
X247471Y323162D01*
Y313838D01*
X247286Y313714D01*
X247162Y313529D01*
X233430D01*
X232845Y313413D01*
X232348Y313081D01*
X225305Y306038D01*
X222919Y303651D01*
X222587Y303155D01*
X222471Y302570D01*
Y269634D01*
X214866Y262029D01*
X149338D01*
X149214Y262214D01*
X148428Y262740D01*
X147500Y262925D01*
X146572Y262740D01*
X145786Y262214D01*
X145260Y261428D01*
X145076Y260500D01*
X145260Y259572D01*
X145786Y258786D01*
X146572Y258260D01*
X147500Y258075D01*
X148428Y258260D01*
X149214Y258786D01*
X149338Y258971D01*
X215500D01*
X216085Y259087D01*
X216581Y259419D01*
X224181Y267018D01*
D01*
X225081Y267919D01*
X225413Y268415D01*
X225529Y269000D01*
Y269000D01*
Y269000D01*
Y301937D01*
X229304Y305711D01*
X229760Y305572D01*
X230286Y304786D01*
X230471Y304662D01*
Y287134D01*
X228718Y285381D01*
X228500Y285424D01*
X227572Y285240D01*
X226786Y284714D01*
X226260Y283928D01*
X226076Y283000D01*
X226260Y282072D01*
X226786Y281286D01*
X227572Y280760D01*
X228500Y280575D01*
X229428Y280760D01*
X230214Y281286D01*
X230740Y282072D01*
X230925Y283000D01*
X230881Y283218D01*
X233081Y285419D01*
X233413Y285915D01*
X233529Y286500D01*
Y304662D01*
D01*
X233714Y304786D01*
X234240Y305572D01*
X234424Y306500D01*
X234240Y307428D01*
X233714Y308214D01*
X232928Y308740D01*
X232789Y309196D01*
X234063Y310471D01*
X247162D01*
X247286Y310286D01*
X247471Y310162D01*
Y304711D01*
Y302709D01*
D01*
X247587Y302124D01*
X247919Y301628D01*
X249914Y299633D01*
Y298971D01*
X249596Y298759D01*
X247419Y296581D01*
X247087Y296085D01*
X246971Y295500D01*
Y291338D01*
X246786Y291214D01*
X246260Y290428D01*
X246076Y289500D01*
X246260Y288572D01*
X246786Y287786D01*
X247572Y287260D01*
X248500Y287075D01*
X249428Y287260D01*
X250015Y287652D01*
X250602Y287065D01*
Y283390D01*
X256539D01*
Y289130D01*
X252864D01*
X251412Y290581D01*
X251500Y290870D01*
X256539D01*
Y292211D01*
X259461D01*
Y287130D01*
X260900D01*
Y272571D01*
X260900Y272571D01*
X260900D01*
X261016Y271986D01*
X261348Y271489D01*
X265628Y267209D01*
X265438Y266747D01*
X231943Y266591D01*
X216851Y250866D01*
Y249626D01*
X216659Y249061D01*
X216178Y248928D01*
X215958Y249116D01*
X214476Y250024D01*
X212871Y250689D01*
X211181Y251095D01*
X209449Y251231D01*
X207716Y251095D01*
X206027Y250689D01*
X204422Y250024D01*
X202940Y249116D01*
X201619Y247988D01*
X200490Y246666D01*
X199582Y245185D01*
X198917Y243579D01*
X198512Y241890D01*
X198452Y241129D01*
X198193Y240743D01*
X198077Y240157D01*
Y237750D01*
X116490D01*
Y266410D01*
Y325242D01*
X126772D01*
X127357Y325359D01*
X127853Y325690D01*
X128185Y326186D01*
X128301Y326772D01*
X128301Y326772D01*
X128301Y326772D01*
Y326772D01*
Y352801D01*
X205951D01*
Y344488D01*
D02*
G37*
G36*
X299116Y344235D02*
X299677Y343504D01*
X300408Y342943D01*
X300644Y342845D01*
Y338807D01*
X294218Y332381D01*
X294000Y332424D01*
X293072Y332240D01*
X292286Y331714D01*
X292162Y331529D01*
X284147D01*
X278610Y337066D01*
X278114Y337397D01*
X277529Y337514D01*
X264330D01*
X264139Y337976D01*
X266782Y340619D01*
X267000Y340576D01*
X267928Y340760D01*
X268714Y341286D01*
X269240Y342072D01*
X269425Y343000D01*
X269381Y343218D01*
X270634Y344471D01*
X284500D01*
Y342500D01*
X291500D01*
Y344231D01*
X291990Y344329D01*
X292029Y344235D01*
X292590Y343504D01*
X293321Y342943D01*
X294173Y342590D01*
X295087Y342470D01*
X296000Y342590D01*
X296852Y342943D01*
X297583Y343504D01*
X298144Y344235D01*
X298380Y344805D01*
X298880D01*
X299116Y344235D01*
D02*
G37*
G36*
X421699Y348425D02*
X421815Y347840D01*
X422074Y347453D01*
X422134Y346693D01*
X422539Y345003D01*
X423204Y343398D01*
X424112Y341916D01*
X425044Y340826D01*
X424677Y340486D01*
X420233Y344930D01*
X420233Y344930D01*
X420081Y345081D01*
X419585Y345413D01*
X419000Y345529D01*
X390172D01*
X389586Y345413D01*
X389090Y345081D01*
X386038Y342029D01*
X369316D01*
X368730Y341913D01*
X368234Y341581D01*
X357419Y330766D01*
X357087Y330270D01*
X356971Y329684D01*
Y326133D01*
X350867Y320029D01*
X338134D01*
X333081Y325081D01*
X332585Y325413D01*
X332000Y325529D01*
X300634D01*
X296381Y329782D01*
X296425Y330000D01*
X296381Y330218D01*
X303255Y337092D01*
X303586Y337588D01*
X303703Y338173D01*
X303703Y338173D01*
X303703Y338173D01*
Y338173D01*
Y342845D01*
X303938Y342943D01*
X304669Y343504D01*
X305230Y344235D01*
X305583Y345086D01*
X305703Y346000D01*
X305583Y346914D01*
X305230Y347765D01*
X304669Y348496D01*
X303938Y349057D01*
X303087Y349410D01*
X302173Y349530D01*
X301259Y349410D01*
X300408Y349057D01*
X299677Y348496D01*
X299116Y347765D01*
X298880Y347195D01*
X298380D01*
X298144Y347765D01*
X297583Y348496D01*
X296852Y349057D01*
X296000Y349410D01*
X295087Y349530D01*
X294173Y349410D01*
X293321Y349057D01*
X292590Y348496D01*
X292029Y347765D01*
X291990Y347671D01*
X291500Y347769D01*
Y349500D01*
X284500D01*
Y347529D01*
X270000D01*
X269415Y347413D01*
X268919Y347081D01*
X267218Y345381D01*
X267000Y345425D01*
X266072Y345240D01*
X265286Y344714D01*
X264760Y343928D01*
X264576Y343000D01*
X264619Y342782D01*
X261866Y340029D01*
X229500D01*
X228915Y339913D01*
X228419Y339581D01*
X226939Y338102D01*
X226546Y338411D01*
X227189Y339461D01*
X227854Y341066D01*
X228260Y342756D01*
X228320Y343516D01*
X228578Y343903D01*
X228695Y344488D01*
Y352801D01*
X317368D01*
Y330709D01*
X317485Y330123D01*
X317816Y329627D01*
X318312Y329296D01*
X318898Y329179D01*
X353543D01*
X354129Y329296D01*
X354625Y329627D01*
X354956Y330123D01*
X355073Y330709D01*
X355073Y330709D01*
X355073Y330709D01*
Y330709D01*
Y339638D01*
X361500D01*
Y346362D01*
X355073D01*
Y352801D01*
X362173D01*
X362394Y352353D01*
X361943Y351765D01*
X361590Y350914D01*
X361470Y350000D01*
X361590Y349086D01*
X361943Y348235D01*
X362504Y347504D01*
X363235Y346943D01*
X364086Y346590D01*
X365000Y346470D01*
X365914Y346590D01*
X366765Y346943D01*
X367496Y347504D01*
X368057Y348235D01*
X368250Y348700D01*
X368750D01*
X368943Y348235D01*
X369504Y347504D01*
X370235Y346943D01*
X371086Y346590D01*
X372000Y346470D01*
X372914Y346590D01*
X373765Y346943D01*
X374496Y347504D01*
X375057Y348235D01*
X375410Y349086D01*
X375530Y350000D01*
X375410Y350914D01*
X375057Y351765D01*
X374496Y352496D01*
X374600Y352801D01*
X421699D01*
Y348425D01*
D02*
G37*
G36*
X522093Y326772D02*
X522209Y326186D01*
X522541Y325690D01*
X523037Y325359D01*
X523622Y325242D01*
X549652D01*
Y310500D01*
Y237750D01*
X456254D01*
Y246063D01*
X456137Y246648D01*
X455879Y247035D01*
X455819Y247795D01*
X455413Y249485D01*
X454748Y251090D01*
X453840Y252572D01*
X452712Y253893D01*
X451391Y255022D01*
X449909Y255930D01*
X448304Y256594D01*
X446614Y257000D01*
X444882Y257137D01*
X443150Y257000D01*
X441460Y256594D01*
X439855Y255930D01*
X438373Y255022D01*
X437052Y253893D01*
X435923Y252572D01*
X435015Y251090D01*
X434350Y249485D01*
X433945Y247795D01*
X433885Y247035D01*
X433626Y246648D01*
X433510Y246063D01*
Y237750D01*
X354426D01*
X354281Y238228D01*
X354696Y238505D01*
X354696Y238505D01*
X354696Y238505D01*
X357661Y241471D01*
X383622D01*
X385174Y239919D01*
X385671Y239587D01*
X386256Y239471D01*
X416000D01*
X416585Y239587D01*
X417081Y239919D01*
X417081Y239919D01*
X417081Y239919D01*
X423633Y246471D01*
X427000D01*
X427585Y246587D01*
X428081Y246919D01*
X440633Y259471D01*
X455866D01*
X458619Y256718D01*
X458575Y256500D01*
X458760Y255572D01*
X459286Y254786D01*
X460072Y254260D01*
X461000Y254076D01*
X461928Y254260D01*
X462714Y254786D01*
X463240Y255572D01*
X463424Y256500D01*
X463240Y257428D01*
X462714Y258214D01*
X461928Y258740D01*
X461000Y258925D01*
X460782Y258881D01*
X457581Y262081D01*
X457085Y262413D01*
X456500Y262529D01*
X440000D01*
X439415Y262413D01*
X438919Y262081D01*
X426367Y249529D01*
X423000D01*
X422512Y249432D01*
X422415Y249413D01*
X421918Y249081D01*
X415367Y242529D01*
X386889D01*
X382029Y247389D01*
Y255029D01*
X382285Y255285D01*
X382470Y255384D01*
X382915Y255087D01*
X383012Y255068D01*
X383500Y254971D01*
X386201D01*
X386325Y254786D01*
X387111Y254260D01*
X387162Y254250D01*
Y253750D01*
X387111Y253740D01*
X386325Y253214D01*
X385799Y252428D01*
X385615Y251500D01*
X385799Y250572D01*
X386325Y249786D01*
X387111Y249260D01*
X387162Y249250D01*
Y248750D01*
X387111Y248740D01*
X386325Y248214D01*
X385799Y247428D01*
X385615Y246500D01*
X385799Y245572D01*
X386325Y244786D01*
X387111Y244260D01*
X388039Y244075D01*
X395126D01*
X396054Y244260D01*
X396840Y244786D01*
X396964Y244971D01*
X402500D01*
X403085Y245087D01*
X403581Y245419D01*
X406956Y248793D01*
X407122Y248724D01*
X408000Y248609D01*
X408878Y248724D01*
X409696Y249063D01*
X410398Y249602D01*
X410937Y250304D01*
X411276Y251122D01*
X411391Y252000D01*
X411276Y252878D01*
X410937Y253696D01*
X410398Y254398D01*
X409696Y254937D01*
X408878Y255276D01*
X408000Y255391D01*
X407122Y255276D01*
X406304Y254937D01*
X405602Y254398D01*
X405063Y253696D01*
X404724Y252878D01*
X404609Y252000D01*
X404724Y251122D01*
X404793Y250956D01*
X401866Y248029D01*
X396964D01*
X396840Y248214D01*
X396054Y248740D01*
X396003Y248750D01*
Y249250D01*
X396054Y249260D01*
X396840Y249786D01*
X396964Y249971D01*
X398000D01*
X398585Y250087D01*
X399081Y250419D01*
X406083Y257420D01*
X406415Y257917D01*
X406531Y258502D01*
X406531Y258502D01*
X406531Y258502D01*
Y258502D01*
Y267756D01*
Y268368D01*
X406956Y268793D01*
X407122Y268724D01*
X408000Y268609D01*
X408878Y268724D01*
X409696Y269063D01*
X410398Y269602D01*
X410937Y270304D01*
X411276Y271122D01*
X411391Y272000D01*
X411276Y272878D01*
X410937Y273696D01*
X410398Y274398D01*
X409696Y274937D01*
X408878Y275276D01*
X408000Y275391D01*
X407122Y275276D01*
X406304Y274937D01*
X405602Y274398D01*
X405063Y273696D01*
X404724Y272878D01*
X404609Y272000D01*
X404724Y271122D01*
X404793Y270956D01*
X403921Y270083D01*
X403589Y269587D01*
X403473Y269002D01*
Y259135D01*
X397404Y253067D01*
X396906Y253116D01*
X396840Y253214D01*
X396054Y253740D01*
X396003Y253750D01*
Y254250D01*
X396054Y254260D01*
X396840Y254786D01*
X397366Y255572D01*
X397551Y256500D01*
X397366Y257428D01*
X396840Y258214D01*
X396054Y258740D01*
X395126Y258925D01*
Y259075D01*
X396054Y259260D01*
X396840Y259786D01*
X397366Y260572D01*
X397551Y261500D01*
X397366Y262428D01*
X396840Y263214D01*
X396054Y263740D01*
X395126Y263925D01*
Y264075D01*
X396054Y264260D01*
X396840Y264786D01*
X397366Y265572D01*
X397551Y266500D01*
X397380Y267359D01*
X397366Y267428D01*
X396840Y268214D01*
X396054Y268740D01*
X395126Y268924D01*
Y269075D01*
X396054Y269260D01*
X396840Y269786D01*
X397366Y270572D01*
X397551Y271500D01*
X397366Y272428D01*
X396840Y273214D01*
X396054Y273740D01*
X395126Y273924D01*
Y274076D01*
X396054Y274260D01*
X396840Y274786D01*
X397366Y275572D01*
X397551Y276500D01*
X397366Y277428D01*
X396840Y278214D01*
X396054Y278740D01*
X395126Y278924D01*
X388039D01*
X387111Y278740D01*
X386325Y278214D01*
X385814Y278556D01*
X385740Y278928D01*
X385214Y279714D01*
X384428Y280240D01*
X383500Y280424D01*
X382572Y280240D01*
X381970Y279838D01*
X381529Y280074D01*
Y301338D01*
X384595Y304404D01*
X385031Y304160D01*
X384732Y302913D01*
X384596Y301181D01*
X384732Y299449D01*
X385138Y297759D01*
X385803Y296154D01*
X386711Y294672D01*
X387839Y293351D01*
X389160Y292222D01*
X390642Y291315D01*
X392247Y290650D01*
X393937Y290244D01*
X395669Y290108D01*
X397402Y290244D01*
X399091Y290650D01*
X400697Y291315D01*
X402178Y292222D01*
X403499Y293351D01*
X404628Y294672D01*
X405536Y296154D01*
X406201Y297759D01*
X406606Y299449D01*
X406743Y301181D01*
X406606Y302913D01*
X406201Y304603D01*
X405536Y306208D01*
X404628Y307690D01*
X403499Y309011D01*
X402549Y309823D01*
X402178Y310140D01*
X400697Y311048D01*
X399902Y311377D01*
X399905Y311407D01*
X400401Y311739D01*
X401532Y312869D01*
X401750Y312825D01*
X402678Y313010D01*
X403464Y313536D01*
X403990Y314322D01*
X404175Y315250D01*
X403990Y316178D01*
X403464Y316964D01*
X402678Y317490D01*
X401750Y317674D01*
X400822Y317490D01*
X400133Y317030D01*
X399780Y317383D01*
X400240Y318072D01*
X400424Y319000D01*
X400240Y319928D01*
X399714Y320714D01*
X398928Y321240D01*
X398000Y321425D01*
X398046Y321471D01*
X420366D01*
X427119Y314718D01*
X427075Y314500D01*
X427260Y313572D01*
X427786Y312786D01*
X428572Y312260D01*
X429500Y312075D01*
X430428Y312260D01*
X431214Y312786D01*
X431740Y313572D01*
X431924Y314500D01*
X431740Y315428D01*
X431214Y316214D01*
X430428Y316740D01*
X429500Y316925D01*
X429282Y316881D01*
X422081Y324081D01*
X421585Y324413D01*
X421000Y324529D01*
X395371D01*
X395255Y324506D01*
X389131D01*
X388913Y324915D01*
X389029Y325500D01*
Y337866D01*
X391634Y340471D01*
X417538D01*
X426090Y331919D01*
X426090D01*
X426090Y331919D01*
X426090Y331919D01*
Y331919D01*
X426586Y331587D01*
X427172Y331471D01*
X453367D01*
X474337Y310500D01*
X511919Y272919D01*
X511919Y272919D01*
X512415Y272587D01*
X513000Y272471D01*
X524162D01*
X524286Y272286D01*
X525072Y271760D01*
X526000Y271575D01*
X526928Y271760D01*
X527714Y272286D01*
X528240Y273072D01*
X528425Y274000D01*
X528240Y274928D01*
X527714Y275714D01*
X526928Y276240D01*
X526000Y276425D01*
X525072Y276240D01*
X524286Y275714D01*
X524162Y275529D01*
X513633D01*
X456154Y333009D01*
X456346Y333471D01*
X496867D01*
X503619Y326718D01*
X503576Y326500D01*
X503760Y325572D01*
X504286Y324786D01*
X505072Y324260D01*
X506000Y324076D01*
X506928Y324260D01*
X507714Y324786D01*
X508240Y325572D01*
X508425Y326500D01*
X508240Y327428D01*
X507714Y328214D01*
X506928Y328740D01*
X506000Y328924D01*
X505782Y328881D01*
X498581Y336081D01*
X498085Y336413D01*
X497500Y336529D01*
X428633D01*
X425132Y340031D01*
X425471Y340398D01*
X426562Y339467D01*
X428044Y338559D01*
X429649Y337894D01*
X431339Y337488D01*
X433071Y337352D01*
X434803Y337488D01*
X436493Y337894D01*
X438098Y338559D01*
X439580Y339467D01*
X440901Y340595D01*
X442029Y341916D01*
X442937Y343398D01*
X443602Y345003D01*
X444008Y346693D01*
X444068Y347453D01*
X444326Y347840D01*
X444443Y348425D01*
Y352801D01*
X522093D01*
Y326772D01*
D02*
G37*
%LPC*%
G36*
X331500Y265925D02*
X330572Y265740D01*
X329786Y265214D01*
X329260Y264428D01*
X329076Y263500D01*
X329260Y262572D01*
X329477Y262248D01*
Y250252D01*
X329260Y249928D01*
X329076Y249000D01*
X329260Y248072D01*
X329786Y247286D01*
X330572Y246760D01*
X331500Y246575D01*
X332428Y246760D01*
X333214Y247286D01*
X333740Y248072D01*
X333925Y249000D01*
X333740Y249928D01*
X333523Y250252D01*
Y262248D01*
X333740Y262572D01*
X333925Y263500D01*
X333740Y264428D01*
X333214Y265214D01*
X332428Y265740D01*
X331500Y265925D01*
D02*
G37*
G36*
X250173Y349530D02*
X249259Y349410D01*
X248408Y349057D01*
X247677Y348496D01*
X247116Y347765D01*
X246880Y347195D01*
X246380D01*
X246144Y347765D01*
X245583Y348496D01*
X244852Y349057D01*
X244000Y349410D01*
X243087Y349530D01*
X242173Y349410D01*
X241321Y349057D01*
X240590Y348496D01*
X240029Y347765D01*
X239990Y347671D01*
X239500Y347769D01*
Y349500D01*
X232500D01*
Y342500D01*
X239500D01*
Y344231D01*
X239990Y344329D01*
X240029Y344235D01*
X240590Y343504D01*
X241321Y342943D01*
X242173Y342590D01*
X243087Y342470D01*
X244000Y342590D01*
X244852Y342943D01*
X245583Y343504D01*
X246144Y344235D01*
X246380Y344805D01*
X246880D01*
X247116Y344235D01*
X247677Y343504D01*
X248408Y342943D01*
X249259Y342590D01*
X250173Y342470D01*
X251087Y342590D01*
X251938Y342943D01*
X252670Y343504D01*
X253231Y344235D01*
X253583Y345086D01*
X253703Y346000D01*
X253583Y346914D01*
X253231Y347765D01*
X252670Y348496D01*
X251938Y349057D01*
X251087Y349410D01*
X250173Y349530D01*
D02*
G37*
G36*
X394520Y337365D02*
X393642Y337190D01*
X392898Y336693D01*
X392400Y335949D01*
X392226Y335071D01*
X392400Y334193D01*
X392898Y333449D01*
X393642Y332951D01*
X394520Y332777D01*
X395398Y332951D01*
X396142Y333449D01*
X396639Y334193D01*
X396814Y335071D01*
X396639Y335949D01*
X396142Y336693D01*
X395398Y337190D01*
X394520Y337365D01*
D02*
G37*
G36*
X409480D02*
X408603Y337190D01*
X407858Y336693D01*
X407361Y335949D01*
X407186Y335071D01*
X407361Y334193D01*
X407858Y333449D01*
X408603Y332951D01*
X409480Y332777D01*
X410358Y332951D01*
X411103Y333449D01*
X411600Y334193D01*
X411774Y335071D01*
X411600Y335949D01*
X411103Y336693D01*
X410358Y337190D01*
X409480Y337365D01*
D02*
G37*
G36*
X325500Y320425D02*
X324572Y320240D01*
X323786Y319714D01*
X323260Y318928D01*
X323184Y318545D01*
X320569Y315931D01*
X320131Y315274D01*
X320070Y314968D01*
X315094D01*
Y309032D01*
X319977D01*
Y286968D01*
X315094D01*
Y281031D01*
X322107D01*
X324586Y278553D01*
X324575Y278500D01*
X324760Y277572D01*
X325286Y276786D01*
X326072Y276260D01*
X327000Y276076D01*
X327928Y276260D01*
X328714Y276786D01*
X329240Y277572D01*
X329425Y278500D01*
X329240Y279428D01*
X328714Y280214D01*
X328463Y280383D01*
D01*
D01*
X328431Y280431D01*
X328292Y280570D01*
X328483Y281031D01*
X328906D01*
Y286968D01*
X324023D01*
Y309023D01*
Y309032D01*
X328906D01*
Y314968D01*
X325983D01*
X325792Y315430D01*
X326045Y315684D01*
X326428Y315760D01*
X327214Y316286D01*
X327740Y317072D01*
X327924Y318000D01*
X327740Y318928D01*
X327214Y319714D01*
X326428Y320240D01*
X325500Y320425D01*
D02*
G37*
%LPD*%
D10*
X261346Y328000D02*
D03*
X254654D02*
D03*
X261346Y314000D02*
D03*
X254654D02*
D03*
D11*
X272000Y273346D02*
D03*
Y266654D02*
D03*
Y300654D02*
D03*
Y307346D02*
D03*
X274000Y291346D02*
D03*
Y284654D02*
D03*
X272000Y321346D02*
D03*
Y314654D02*
D03*
D12*
X348000Y244087D02*
D03*
Y262000D02*
D03*
X322016D02*
D03*
Y244087D02*
D03*
D20*
X302173Y346000D02*
D03*
X295087D02*
D03*
X243087D02*
D03*
X250173D02*
D03*
X365000Y350000D02*
D03*
X372000D02*
D03*
X365000Y343000D02*
D03*
D21*
X391583Y246500D02*
X402500D01*
X408000Y252000D01*
X385500Y261500D02*
X391583D01*
X398000Y315820D02*
Y319000D01*
X397000Y314820D02*
X398000Y315820D01*
X383500Y256500D02*
X391583D01*
Y251500D02*
X398000D01*
X405002Y258502D01*
X380000Y267000D02*
X385500Y261500D01*
X378000Y262000D02*
X383500Y256500D01*
X385000Y271500D02*
X391583D01*
X383500Y273000D02*
X385000Y271500D01*
Y276500D02*
X391583D01*
X383500Y278000D02*
X385000Y276500D01*
X309498Y265498D02*
X312000Y268000D01*
X293813Y265498D02*
X309498D01*
X289500Y269811D02*
Y282000D01*
X287000Y284500D02*
X289500Y282000D01*
X289740Y269571D02*
X293813Y265498D01*
X289500Y269811D02*
X289740Y269571D01*
X274000Y284654D02*
X276154Y282500D01*
X281929D02*
X286000Y278429D01*
X276154Y282500D02*
X277000D01*
X281929D01*
X277000Y277500D02*
Y282500D01*
Y277500D02*
X280500Y274000D01*
X285500D01*
X286000Y273500D01*
Y266000D02*
Y273500D01*
Y266000D02*
X288502Y263498D01*
X311998D01*
X320000Y271500D01*
X364417D01*
X357500Y266500D02*
X364417D01*
X354500Y269500D02*
X357500Y266500D01*
X320828Y269500D02*
X354500D01*
X312826Y261498D02*
X320828Y269500D01*
X287673Y261498D02*
X312826D01*
X283672Y265500D02*
X287673Y261498D01*
X273154Y265500D02*
X283672D01*
X272000Y266654D02*
X273154Y265500D01*
X343000Y290500D02*
X353000D01*
X356500Y287000D01*
X375000Y261000D02*
Y284000D01*
X427000Y248000D02*
X440000Y261000D01*
X456500D01*
X461000Y256500D01*
X428000Y335000D02*
X497500D01*
X506000Y326500D01*
X322000Y273500D02*
X348000D01*
X421000Y323000D02*
X429500Y314500D01*
X357028Y243000D02*
X384218D01*
X322016Y244087D02*
Y262000D01*
X353614Y239587D02*
X357028Y243000D01*
X322016Y244087D02*
X339913D01*
X344413Y239587D01*
X353614D01*
X348000Y273500D02*
X364500Y290000D01*
X343500Y300500D02*
X351000Y308000D01*
X370000D01*
X387500Y325500D01*
Y338500D01*
X391000Y342000D01*
X418172D01*
X427172Y333000D01*
X454000D01*
X513000Y274000D01*
X526000D01*
X378000Y262000D02*
Y302800D01*
X390020Y314820D01*
X397000D01*
X380000Y267000D02*
Y301972D01*
X390848Y312820D01*
X399320D01*
X364500Y290000D02*
Y292129D01*
X395371Y323000D02*
X421000D01*
X344500Y295500D02*
X353500Y304500D01*
X294000Y330000D02*
X300000Y324000D01*
X332000D01*
X337500Y318500D01*
X351500D01*
X353500Y304500D02*
X371000D01*
X318500Y277000D02*
X322000Y273500D01*
X399320Y312820D02*
X401750Y315250D01*
X398000Y319000D02*
X398244D01*
X405002Y258502D02*
Y269002D01*
X408000Y272000D01*
X351500Y318500D02*
X358500Y325500D01*
X294000Y330000D02*
X302173Y338173D01*
Y346000D01*
X271606Y293740D02*
X274000Y291346D01*
X253571Y293740D02*
X271606D01*
X268346Y266654D02*
X272000D01*
X262429Y272571D02*
X268346Y266654D01*
X262429Y272571D02*
Y290000D01*
X248500Y289500D02*
X250331D01*
X253571Y286260D01*
X248500Y289500D02*
Y295500D01*
X250677Y297677D01*
X257243D01*
X257464Y297898D01*
X259870D01*
X262232Y300260D01*
X296083Y299083D02*
Y301417D01*
X293500Y296500D02*
X296083Y299083D01*
X249000Y302709D02*
X251450Y300260D01*
X253768D01*
Y307740D02*
Y310268D01*
X254654Y311154D01*
X272000Y300654D02*
X278346D01*
X287000Y292000D01*
Y284500D02*
Y292000D01*
X215500Y260500D02*
X224000Y269000D01*
X147500Y260500D02*
X215500D01*
X249000Y302709D02*
Y312000D01*
Y325000D01*
X254654Y314000D02*
Y317654D01*
Y311154D02*
Y314000D01*
Y316000D01*
X256500Y319500D02*
Y321000D01*
X254654Y317654D02*
X256500Y319500D01*
X249000Y325000D02*
X252000Y328000D01*
X254654D01*
X270000Y346000D02*
X288000D01*
X267000Y343000D02*
X270000Y346000D01*
X283513Y330000D02*
X294000D01*
X277529Y335984D02*
X283513Y330000D01*
X230471Y335984D02*
X277529D01*
X210500Y316013D02*
X230471Y335984D01*
X210500Y307000D02*
Y316013D01*
X291000Y296500D02*
X293500D01*
X289500Y295000D02*
X291000Y296500D01*
X293500Y281000D02*
Y291500D01*
X232000Y286500D02*
Y306500D01*
X228500Y283000D02*
X232000Y286500D01*
X224000Y302570D02*
X233430Y312000D01*
X224000Y269000D02*
Y302570D01*
X233430Y312000D02*
X249000D01*
X262500Y338500D02*
X267000Y343000D01*
X229500Y338500D02*
X262500D01*
X207835Y316835D02*
X229500Y338500D01*
X143335Y316835D02*
X207835D01*
X272000Y273346D02*
X274654D01*
X278429Y269571D01*
X282260D01*
X358500Y329684D02*
X369316Y340500D01*
X386672D01*
X390172Y344000D01*
X419000D02*
X419152Y343848D01*
X358500Y325500D02*
Y329684D01*
X390172Y344000D02*
X419000D01*
X419152Y343848D02*
X428000Y335000D01*
X423000Y248000D02*
X427000D01*
X416000Y241000D02*
X423000Y248000D01*
X375000Y261000D02*
X380500Y255500D01*
Y246756D02*
Y255500D01*
Y246756D02*
X386256Y241000D01*
X416000D01*
X364500Y292129D02*
X373936Y301564D01*
Y309107D01*
X387805Y322977D01*
X397477D01*
X397500Y323000D01*
D22*
X391583Y281500D02*
X400500D01*
X385000Y266500D02*
X391583D01*
X383500Y268000D02*
X385000Y266500D01*
X364417Y281500D02*
X369500Y286583D01*
Y292000D01*
X322000Y314500D02*
X325500Y318000D01*
X322000Y312000D02*
Y314500D01*
X288000Y322000D02*
X291000Y325000D01*
X294500D01*
X339625Y308570D02*
Y312000D01*
X335430Y304375D02*
X339625Y308570D01*
X335430Y288195D02*
Y304375D01*
Y288195D02*
X339625Y284000D01*
X349500D01*
X288000Y304375D02*
X294000Y310375D01*
Y316500D01*
X322000Y284000D02*
Y312000D01*
Y284000D02*
X327000Y279000D01*
Y278500D02*
Y279000D01*
X348000Y244087D02*
Y262000D01*
X331500Y249000D02*
Y263500D01*
X294000Y316500D02*
X299000Y321500D01*
X330125D01*
X339625Y312000D01*
X400500Y281500D02*
X404697D01*
X412000Y288803D01*
X262626Y307346D02*
X272000D01*
X261346Y308626D02*
X262626Y307346D01*
X261346Y308626D02*
Y316000D01*
Y324000D01*
Y328846D01*
X231500Y333500D02*
X266000D01*
X276500D01*
X261346Y328846D02*
X266000Y333500D01*
X223500Y325500D02*
X231500Y333500D01*
X283633Y304375D02*
X288000D01*
X282000Y302742D02*
X283633Y304375D01*
X277721Y314654D02*
X288000Y304375D01*
X272000Y314654D02*
X277721D01*
X223500Y319500D02*
Y325500D01*
X272000Y321346D02*
X287346D01*
X276500Y333500D02*
X288000Y322000D01*
X339625Y312000D02*
X352500D01*
D23*
X253768Y304000D02*
X265500D01*
X267500Y302000D01*
Y298000D02*
Y302000D01*
Y298000D02*
X269500Y296000D01*
X278000D01*
X279500Y294500D01*
Y293500D02*
Y294500D01*
D24*
X408000Y252000D02*
D03*
Y272000D02*
D03*
D25*
X288000Y346000D02*
D03*
X236000D02*
D03*
D26*
X394520Y335071D02*
D03*
X409480D02*
D03*
D27*
X358000Y343000D02*
D03*
D28*
X400500Y281500D02*
D03*
X398000Y319000D02*
D03*
X383500Y268000D02*
D03*
Y273000D02*
D03*
Y278000D02*
D03*
X369500Y292000D02*
D03*
X294500Y325000D02*
D03*
X349500Y284000D02*
D03*
X327000Y278500D02*
D03*
X312000Y268000D02*
D03*
X343000Y290500D02*
D03*
X356500Y287000D02*
D03*
X375000Y284000D02*
D03*
X461000Y256500D02*
D03*
X294000Y330000D02*
D03*
X506000Y326500D02*
D03*
X318500Y277000D02*
D03*
X429500Y314500D02*
D03*
X331500Y249000D02*
D03*
Y263500D02*
D03*
X343500Y300500D02*
D03*
X526000Y274000D02*
D03*
X344500Y295500D02*
D03*
X371000Y304500D02*
D03*
X325500Y318000D02*
D03*
X223500Y319500D02*
D03*
X248500Y289500D02*
D03*
X296083Y301417D02*
D03*
X289500Y295000D02*
D03*
X249000Y312000D02*
D03*
X279500Y293500D02*
D03*
X282000Y302742D02*
D03*
X147500Y260500D02*
D03*
X256500Y321000D02*
D03*
X249000Y325000D02*
D03*
X267000Y343000D02*
D03*
X210500Y307000D02*
D03*
X293500Y291500D02*
D03*
Y281000D02*
D03*
X232000Y306500D02*
D03*
X228500Y283000D02*
D03*
X143335Y316835D02*
D03*
X401750Y315250D02*
D03*
X412000Y288803D02*
D03*
X352500Y312000D02*
D03*
X373500Y295500D02*
D03*
X326000Y250000D02*
D03*
X356000Y276500D02*
D03*
X231000Y271500D02*
D03*
X154000Y283000D02*
D03*
X218000Y316000D02*
D03*
X190500Y337000D02*
D03*
X317500Y250500D02*
D03*
X295500Y275000D02*
D03*
X296000Y307000D02*
D03*
X124000Y303500D02*
D03*
X268500Y282500D02*
D03*
X275000Y341000D02*
D03*
D29*
X288000Y304375D02*
D03*
Y322000D02*
D03*
D30*
X364417Y246500D02*
D03*
Y251500D02*
D03*
Y256500D02*
D03*
Y261500D02*
D03*
Y266500D02*
D03*
Y271500D02*
D03*
Y276500D02*
D03*
Y281500D02*
D03*
X391583Y246500D02*
D03*
Y251500D02*
D03*
Y256500D02*
D03*
Y261500D02*
D03*
Y266500D02*
D03*
Y271500D02*
D03*
Y276500D02*
D03*
Y281500D02*
D03*
D31*
X339625Y284000D02*
D03*
X322000D02*
D03*
X339625Y312000D02*
D03*
X322000D02*
D03*
D32*
X262429Y290000D02*
D03*
X253571Y293740D02*
D03*
Y286260D02*
D03*
D33*
X286000Y278429D02*
D03*
X282260Y269571D02*
D03*
X289740D02*
D03*
D34*
X253768Y300260D02*
D03*
D35*
Y304000D02*
D03*
Y307740D02*
D03*
X262232D02*
D03*
Y300260D02*
D03*
M02*
