%FSLAX25Y25*%
%MOIN*%
G70*
G01*
G75*
%ADD10C,0.00500*%
%ADD11C,0.00667*%
D10*
X406622Y252000D02*
X409378D01*
X408000Y250622D02*
Y253378D01*
X406622Y272000D02*
X409378D01*
X408000Y270622D02*
Y273378D01*
X300795Y346000D02*
X303551D01*
X302173Y344622D02*
Y347378D01*
X293709Y346000D02*
X296465D01*
X295087Y344622D02*
Y347378D01*
X286622Y346000D02*
X289378D01*
X288000Y344622D02*
Y347378D01*
X234622Y346000D02*
X237378D01*
X236000Y344622D02*
Y347378D01*
X241709Y346000D02*
X244465D01*
X243087Y344622D02*
Y347378D01*
X248795Y346000D02*
X251551D01*
X250173Y344622D02*
Y347378D01*
X393620Y335071D02*
X395420D01*
X394520Y334171D02*
Y335971D01*
X408580Y335071D02*
X410380D01*
X409480Y334171D02*
Y335971D01*
X346228Y244087D02*
X349772D01*
X348000Y242315D02*
Y245858D01*
X346228Y262000D02*
X349772D01*
X348000Y260228D02*
Y263772D01*
X320244Y262000D02*
X323787D01*
X322016Y260228D02*
Y263772D01*
X320244Y244087D02*
X323787D01*
X322016Y242315D02*
Y245858D01*
X363622Y350000D02*
X366378D01*
X365000Y348622D02*
Y351378D01*
X356622Y343000D02*
X359378D01*
X358000Y341622D02*
Y344378D01*
X370622Y350000D02*
X373378D01*
X372000Y348622D02*
Y351378D01*
X363622Y343000D02*
X366378D01*
X365000Y341622D02*
Y344378D01*
X399909Y281500D02*
X401090D01*
X400500Y280909D02*
Y282090D01*
X397410Y319000D02*
X398590D01*
X398000Y318409D02*
Y319590D01*
X382909Y268000D02*
X384090D01*
X383500Y267409D02*
Y268590D01*
X382909Y273000D02*
X384090D01*
X383500Y272410D02*
Y273590D01*
X382909Y278000D02*
X384090D01*
X383500Y277410D02*
Y278590D01*
X368910Y292000D02*
X370091D01*
X369500Y291409D02*
Y292590D01*
X293910Y325000D02*
X295091D01*
X294500Y324410D02*
Y325590D01*
X348909Y284000D02*
X350091D01*
X349500Y283410D02*
Y284591D01*
X326410Y278500D02*
X327590D01*
X327000Y277909D02*
Y279090D01*
X311409Y268000D02*
X312591D01*
X312000Y267409D02*
Y268590D01*
X342409Y290500D02*
X343590D01*
X343000Y289910D02*
Y291090D01*
X355909Y287000D02*
X357090D01*
X356500Y286409D02*
Y287591D01*
X374410Y284000D02*
X375590D01*
X375000Y283410D02*
Y284591D01*
X460409Y256500D02*
X461590D01*
X461000Y255909D02*
Y257090D01*
X293409Y330000D02*
X294590D01*
X294000Y329410D02*
Y330591D01*
X505409Y326500D02*
X506591D01*
X506000Y325909D02*
Y327091D01*
X317910Y277000D02*
X319091D01*
X318500Y276410D02*
Y277590D01*
X428909Y314500D02*
X430091D01*
X429500Y313910D02*
Y315090D01*
X330909Y249000D02*
X332090D01*
X331500Y248410D02*
Y249590D01*
X330909Y263500D02*
X332090D01*
X331500Y262910D02*
Y264090D01*
X342910Y300500D02*
X344091D01*
X343500Y299909D02*
Y301091D01*
X525410Y274000D02*
X526590D01*
X526000Y273410D02*
Y274590D01*
X343910Y295500D02*
X345091D01*
X344500Y294910D02*
Y296091D01*
X370409Y304500D02*
X371590D01*
X371000Y303909D02*
Y305090D01*
X324909Y318000D02*
X326091D01*
X325500Y317409D02*
Y318590D01*
X222909Y319500D02*
X224091D01*
X223500Y318910D02*
Y320091D01*
X247909Y289500D02*
X249091D01*
X248500Y288910D02*
Y290090D01*
X295492Y301417D02*
X296673D01*
X296083Y300827D02*
Y302008D01*
X288910Y295000D02*
X290090D01*
X289500Y294409D02*
Y295590D01*
X248410Y312000D02*
X249590D01*
X249000Y311409D02*
Y312591D01*
X278909Y293500D02*
X280090D01*
X279500Y292910D02*
Y294091D01*
X281410Y302742D02*
X282591D01*
X282000Y302151D02*
Y303332D01*
X146909Y260500D02*
X148091D01*
X147500Y259910D02*
Y261090D01*
X255909Y321000D02*
X257090D01*
X256500Y320409D02*
Y321590D01*
X248410Y325000D02*
X249590D01*
X249000Y324410D02*
Y325590D01*
X266409Y343000D02*
X267590D01*
X267000Y342409D02*
Y343590D01*
X209910Y307000D02*
X211090D01*
X210500Y306410D02*
Y307591D01*
X292910Y291500D02*
X294091D01*
X293500Y290910D02*
Y292091D01*
X292910Y281000D02*
X294091D01*
X293500Y280410D02*
Y281591D01*
X231410Y306500D02*
X232591D01*
X232000Y305909D02*
Y307090D01*
X227909Y283000D02*
X229090D01*
X228500Y282410D02*
Y283591D01*
X142744Y316835D02*
X143925D01*
X143335Y316244D02*
Y317425D01*
X401159Y315250D02*
X402341D01*
X401750Y314660D02*
Y315841D01*
X411410Y288803D02*
X412591D01*
X412000Y288213D02*
Y289394D01*
X351909Y312000D02*
X353091D01*
X352500Y311409D02*
Y312591D01*
X372909Y295500D02*
X374091D01*
X373500Y294910D02*
Y296091D01*
X325410Y250000D02*
X326590D01*
X326000Y249410D02*
Y250590D01*
X355410Y276500D02*
X356591D01*
X356000Y275909D02*
Y277091D01*
X230410Y271500D02*
X231591D01*
X231000Y270910D02*
Y272091D01*
X153409Y283000D02*
X154591D01*
X154000Y282410D02*
Y283591D01*
X217409Y316000D02*
X218590D01*
X218000Y315409D02*
Y316590D01*
X189909Y337000D02*
X191091D01*
X190500Y336409D02*
Y337591D01*
X316910Y250500D02*
X318091D01*
X317500Y249909D02*
Y251091D01*
X294910Y275000D02*
X296091D01*
X295500Y274410D02*
Y275590D01*
X295409Y307000D02*
X296590D01*
X296000Y306410D02*
Y307591D01*
X123409Y303500D02*
X124591D01*
X124000Y302909D02*
Y304090D01*
X267910Y282500D02*
X269091D01*
X268500Y281909D02*
Y283090D01*
X274410Y341000D02*
X275590D01*
X275000Y340409D02*
Y341590D01*
M02*
