%FSLAX25Y25*%
%MOIN*%
G70*
G01*
G75*
G04 Layer_Color=16711935*
%ADD10R,0.04331X0.03937*%
%ADD11R,0.03937X0.04331*%
%ADD12C,0.06000*%
%ADD13R,0.05906X0.05118*%
%ADD14R,0.06890X0.13583*%
%ADD15R,0.06890X0.04331*%
%ADD16R,0.06890X0.04331*%
%ADD17R,0.07480X0.07480*%
%ADD18R,0.00984X0.11811*%
%ADD19R,0.07874X0.03937*%
%ADD20C,0.05000*%
%ADD21C,0.01000*%
%ADD22C,0.01969*%
%ADD23C,0.01181*%
%ADD24C,0.04724*%
%ADD25R,0.05000X0.05000*%
%ADD26C,0.02500*%
%ADD27R,0.05000X0.04724*%
%ADD28C,0.02756*%
%ADD29R,0.03937X0.11811*%
%ADD30O,0.09843X0.02756*%
%ADD31R,0.11811X0.03937*%
%ADD32R,0.03937X0.03740*%
%ADD33R,0.03740X0.03937*%
%ADD34R,0.05709X0.02165*%
%ADD35R,0.05709X0.02165*%
%ADD36C,0.00984*%
%ADD37C,0.00787*%
%ADD38C,0.00500*%
%ADD39R,0.26000X0.22000*%
%ADD40R,0.22000X0.26000*%
%ADD41R,0.05131X0.04737*%
%ADD42R,0.04737X0.05131*%
%ADD43C,0.06800*%
%ADD44R,0.06706X0.05918*%
%ADD45R,0.07690X0.14383*%
%ADD46R,0.07690X0.05131*%
%ADD47R,0.07690X0.05131*%
%ADD48R,0.08280X0.08280*%
%ADD49R,0.01784X0.12611*%
%ADD50R,0.08674X0.04737*%
%ADD51C,0.05800*%
%ADD52C,0.05524*%
%ADD53R,0.05800X0.05800*%
%ADD54C,0.03300*%
%ADD55R,0.05800X0.05524*%
%ADD56C,0.03556*%
%ADD57R,0.04737X0.12611*%
%ADD58O,0.10642X0.03556*%
%ADD59R,0.12611X0.04737*%
%ADD60R,0.04737X0.04540*%
%ADD61R,0.04540X0.04737*%
%ADD62R,0.06509X0.02965*%
%ADD63R,0.06509X0.02965*%
%ADD64C,0.00600*%
%ADD65C,0.02362*%
%ADD66C,0.00394*%
%ADD67C,0.00800*%
%ADD68R,0.03937X0.05833*%
%ADD69R,0.05833X0.03937*%
%ADD70C,0.00200*%
D21*
X240678Y331292D02*
X304329D01*
X240678Y237043D02*
Y331292D01*
Y237043D02*
X304329D01*
Y331292D01*
D66*
X387646Y282701D02*
G03*
X387646Y282701I-1969J0D01*
G01*
X366779Y241756D02*
X389220D01*
X366779Y286244D02*
X389220D01*
X366779Y241756D02*
Y286244D01*
X389220Y241756D02*
Y286244D01*
D70*
X304500Y237000D02*
Y259262D01*
X240500Y237000D02*
X304500D01*
X240500D02*
Y259262D01*
X304500D01*
X302834Y240167D02*
X303000Y240000D01*
X303333D01*
X303500Y240167D01*
Y240833D01*
X303333Y241000D01*
X303000D01*
X302834Y240833D01*
X302500Y240000D02*
Y240833D01*
X302334Y241000D01*
X302000D01*
X301834Y240833D01*
Y240000D01*
X301501D02*
X300834D01*
X301167D01*
Y241000D01*
X300001Y240000D02*
X300334D01*
X300501Y240167D01*
Y240833D01*
X300334Y241000D01*
X300001D01*
X299834Y240833D01*
Y240167D01*
X300001Y240000D01*
X299501D02*
Y240833D01*
X299335Y241000D01*
X299001D01*
X298835Y240833D01*
Y240000D01*
X298502D02*
X297835D01*
X298168D01*
Y241000D01*
X296502D02*
Y240000D01*
X296002D01*
X295836Y240167D01*
Y240500D01*
X296002Y240667D01*
X296502D01*
X295003Y240000D02*
X295336D01*
X295503Y240167D01*
Y240833D01*
X295336Y241000D01*
X295003D01*
X294836Y240833D01*
Y240167D01*
X295003Y240000D01*
X294503D02*
Y241000D01*
X293836D01*
X293503Y240000D02*
Y240167D01*
X293170Y240500D01*
X292837Y240167D01*
Y240000D01*
X293170Y240500D02*
Y241000D01*
X291837Y240167D02*
X292004Y240000D01*
X292337D01*
X292503Y240167D01*
Y240833D01*
X292337Y241000D01*
X292004D01*
X291837Y240833D01*
Y240500D01*
X292170D01*
X291004Y240000D02*
X291337D01*
X291504Y240167D01*
Y240833D01*
X291337Y241000D01*
X291004D01*
X290837Y240833D01*
Y240167D01*
X291004Y240000D01*
X290504Y241000D02*
Y240000D01*
X289838Y241000D01*
Y240000D01*
X303500Y239000D02*
Y238334D01*
X303167Y238000D01*
X302834Y238334D01*
Y239000D01*
Y238500D01*
X303500D01*
X302500Y239000D02*
Y238000D01*
X301834Y239000D01*
Y238000D01*
X301501D02*
X300834D01*
X301167D01*
Y239000D01*
X299834Y238000D02*
X300501D01*
Y239000D01*
X299834D01*
X300501Y238500D02*
X300168D01*
X299501Y239000D02*
Y238000D01*
X298835Y239000D01*
Y238000D01*
X298502Y239000D02*
Y238000D01*
X297835Y239000D01*
Y238000D01*
X297502Y239000D02*
Y238334D01*
X297169Y238000D01*
X296835Y238334D01*
Y239000D01*
Y238500D01*
X297502D01*
X295503Y239000D02*
Y238334D01*
X295169Y238000D01*
X294836Y238334D01*
Y239000D01*
Y238500D01*
X295503D01*
X294503Y239000D02*
Y238000D01*
X294003D01*
X293836Y238167D01*
Y238500D01*
X294003Y238667D01*
X294503D01*
X294170D02*
X293836Y239000D01*
X292837Y238000D02*
X293503D01*
Y239000D01*
X292837D01*
X293503Y238500D02*
X293170D01*
X292503Y239000D02*
Y238334D01*
X292170Y238000D01*
X291837Y238334D01*
Y239000D01*
Y238500D01*
X292503D01*
M02*
