%FSLAX25Y25*%
%MOIN*%
G70*
G01*
G75*
%ADD10R,0.04331X0.03937*%
%ADD11R,0.03937X0.04331*%
%ADD12C,0.06000*%
%ADD13R,0.05906X0.05118*%
%ADD14R,0.06890X0.13583*%
%ADD15R,0.06890X0.04331*%
%ADD16R,0.06890X0.04331*%
%ADD17R,0.07480X0.07480*%
%ADD18R,0.00984X0.11811*%
%ADD19R,0.07874X0.03937*%
%ADD20C,0.05000*%
%ADD21C,0.01000*%
%ADD22C,0.01969*%
%ADD23C,0.01181*%
%ADD24C,0.04724*%
%ADD25R,0.05000X0.05000*%
%ADD26C,0.02500*%
%ADD27R,0.05000X0.04724*%
%ADD28C,0.02756*%
%ADD29R,0.03937X0.11811*%
%ADD30O,0.09843X0.02756*%
%ADD31R,0.11811X0.03937*%
%ADD32R,0.03937X0.03740*%
%ADD33R,0.03740X0.03937*%
%ADD34R,0.05709X0.02165*%
%ADD35R,0.05709X0.02165*%
D10*
X415346Y264000D02*
D03*
X408654D02*
D03*
X318654Y284000D02*
D03*
X325346D02*
D03*
X344605Y280000D02*
D03*
X337912D02*
D03*
X363346Y292000D02*
D03*
X356654D02*
D03*
Y298000D02*
D03*
X363346D02*
D03*
X326654Y272000D02*
D03*
X333346D02*
D03*
X351346D02*
D03*
X344654D02*
D03*
X325281Y292251D02*
D03*
X318588D02*
D03*
X370654Y272000D02*
D03*
X377346D02*
D03*
X370654Y278000D02*
D03*
X377346D02*
D03*
D11*
X418000Y256000D02*
D03*
Y249307D02*
D03*
X228000Y292654D02*
D03*
Y299346D02*
D03*
X230000Y316654D02*
D03*
Y323346D02*
D03*
D12*
X184350Y322835D02*
D03*
X148350Y323335D02*
D03*
X202075Y306500D02*
D03*
X201575Y270500D02*
D03*
X131350Y268500D02*
D03*
X131850Y304500D02*
D03*
X148350Y252469D02*
D03*
X184350Y251969D02*
D03*
X468500Y336614D02*
D03*
X504500Y336114D02*
D03*
X436508Y277500D02*
D03*
X437008Y313500D02*
D03*
X536000Y311500D02*
D03*
X535500Y275500D02*
D03*
X467720Y250500D02*
D03*
X503720Y250000D02*
D03*
X348000Y244087D02*
D03*
Y262000D02*
D03*
X322016D02*
D03*
Y244087D02*
D03*
D13*
X360000Y315740D02*
D03*
Y308260D02*
D03*
D14*
X344894Y314000D02*
D03*
D15*
X319106Y304945D02*
D03*
Y314000D02*
D03*
D16*
Y323055D02*
D03*
D17*
X386449Y343535D02*
D03*
X417551D02*
D03*
D18*
X396882Y330315D02*
D03*
X399441D02*
D03*
X402000D02*
D03*
X404559D02*
D03*
X407118D02*
D03*
D19*
X304000Y325079D02*
D03*
X241008Y325236D02*
D03*
Y317205D02*
D03*
Y309488D02*
D03*
Y301535D02*
D03*
Y293425D02*
D03*
Y285630D02*
D03*
Y277677D02*
D03*
Y269882D02*
D03*
X304000Y270000D02*
D03*
Y277756D02*
D03*
Y285630D02*
D03*
Y293386D02*
D03*
Y301417D02*
D03*
Y309331D02*
D03*
Y317165D02*
D03*
D20*
X358000Y350000D02*
D03*
X302173Y346000D02*
D03*
X295087D02*
D03*
X243087D02*
D03*
X250173D02*
D03*
X365000Y350000D02*
D03*
X372000D02*
D03*
X365000Y343000D02*
D03*
D24*
X408000Y252000D02*
D03*
Y272000D02*
D03*
D25*
X288000Y346000D02*
D03*
X236000D02*
D03*
D26*
X394520Y335071D02*
D03*
X409480D02*
D03*
D27*
X358000Y343000D02*
D03*
M02*
