%FSLAX25Y25*%
%MOIN*%
G70*
G01*
G75*
G04 Layer_Physical_Order=1*
G04 Layer_Color=255*
%ADD10C,0.06000*%
%ADD11C,0.01000*%
%ADD12C,0.05000*%
%ADD13R,0.05000X0.05000*%
D10*
X278000Y205500D02*
D03*
Y168500D02*
D03*
X216000D02*
D03*
Y205500D02*
D03*
D11*
X258000Y173000D02*
Y199000D01*
Y173000D02*
X262000D01*
X296000Y175000D02*
Y201000D01*
X292000D02*
X296000D01*
X294000Y173000D02*
Y199000D01*
X290000Y173000D02*
X294000D01*
X288000Y201000D02*
X292000D01*
X282000Y173000D02*
X290000D01*
X279000Y205500D02*
X280000Y204500D01*
Y201000D02*
Y204500D01*
X266000Y173000D02*
X271000D01*
X270000D02*
Y179500D01*
Y173000D02*
X278000D01*
X284000Y201000D02*
X288000D01*
X280000D02*
X281500D01*
X278000D02*
X284000D01*
X268000D02*
X273000D01*
X268000Y175000D02*
Y201000D01*
X272000D02*
X279500D01*
X278000Y168500D02*
Y172000D01*
X264000Y201000D02*
X268000D01*
X264000Y175000D02*
Y201000D01*
X278000Y173000D02*
X282000D01*
X266000D02*
Y199000D01*
X270000Y179500D02*
Y199000D01*
X272000Y175000D02*
Y201000D01*
X274000Y173000D02*
Y199000D01*
X276000Y175000D02*
Y200500D01*
X278000Y172000D02*
Y199000D01*
X280000Y175000D02*
Y200500D01*
X282000Y173000D02*
Y199000D01*
X284000Y175000D02*
Y201000D01*
X286000Y173000D02*
Y199000D01*
X288000Y175000D02*
Y201000D01*
X290000Y173000D02*
Y199000D01*
X292000Y175000D02*
Y201000D01*
X262000Y173000D02*
X266000D01*
X262000D02*
Y199000D01*
X260000Y175000D02*
Y201000D01*
X264000D01*
X198000D02*
X202000D01*
X198000Y175000D02*
Y201000D01*
X200000Y173000D02*
Y199000D01*
Y173000D02*
X204000D01*
X230000Y175000D02*
Y201000D01*
X228000Y173000D02*
Y199000D01*
X226000Y175000D02*
Y201000D01*
X224000Y173000D02*
Y199000D01*
X222000Y175000D02*
Y201000D01*
X220000Y173000D02*
Y199000D01*
X218000Y175000D02*
Y200500D01*
X216000Y172000D02*
Y199000D01*
X214000Y175000D02*
Y200500D01*
X212000Y173000D02*
Y199000D01*
X210000Y175000D02*
Y201000D01*
X208000Y179500D02*
Y199000D01*
X204000Y173000D02*
Y199000D01*
X216000Y173000D02*
X220000D01*
X202000Y175000D02*
Y201000D01*
X206000D01*
X216000Y168500D02*
Y172000D01*
X210000Y201000D02*
X217500D01*
X206000Y175000D02*
Y201000D01*
X211000D01*
X216000D02*
X222000D01*
X218000D02*
X219500D01*
X222000D02*
X226000D01*
X208000Y173000D02*
X216000D01*
X208000D02*
Y179500D01*
X204000Y173000D02*
X209000D01*
X218000Y201000D02*
Y204500D01*
X217000Y205500D02*
X218000Y204500D01*
X220000Y173000D02*
X228000D01*
X226000Y201000D02*
X230000D01*
X228000Y173000D02*
X232000D01*
Y199000D01*
X230000Y201000D02*
X234000D01*
Y175000D02*
Y201000D01*
X196000Y173000D02*
X200000D01*
X196000D02*
Y199000D01*
X216000Y168500D02*
X242500D01*
X246000Y172000D01*
Y178500D01*
X251500Y172000D02*
X256000Y167500D01*
X251500Y172000D02*
Y189500D01*
X248327Y192673D02*
X251500Y189500D01*
X246000Y192673D02*
X248327D01*
X241000Y204500D02*
X277000D01*
X241000Y190587D02*
Y204500D01*
X238000Y207500D02*
X241000Y204500D01*
X216000Y205500D02*
X218000Y207500D01*
X238000D01*
X241000Y190587D02*
X246000Y185587D01*
X277000Y204500D02*
X278000Y205500D01*
X277000Y167500D02*
X278000Y168500D01*
X256000Y167500D02*
X277000D01*
D12*
X246000Y192673D02*
D03*
Y185587D02*
D03*
D13*
Y178500D02*
D03*
M02*
