%FSLAX25Y25*%
%MOIN*%
G70*
G01*
G75*
G04 Layer_Color=16711935*
%ADD10C,0.05000*%
%ADD11R,0.03937X0.04331*%
%ADD12R,0.04331X0.03937*%
%ADD13R,0.07874X0.03937*%
%ADD14R,0.00984X0.11811*%
%ADD15R,0.07480X0.07480*%
%ADD16R,0.06890X0.04331*%
%ADD17R,0.06890X0.04331*%
%ADD18R,0.06890X0.13583*%
%ADD19R,0.05906X0.05118*%
%ADD20C,0.06000*%
%ADD21C,0.01969*%
%ADD22C,0.01000*%
%ADD23C,0.01181*%
%ADD24R,0.05000X0.04724*%
%ADD25C,0.02500*%
%ADD26R,0.05000X0.05000*%
%ADD27C,0.04724*%
%ADD28C,0.02756*%
%ADD29R,0.11811X0.03937*%
%ADD30R,0.05709X0.02165*%
%ADD31R,0.05709X0.02165*%
%ADD32R,0.03740X0.03937*%
%ADD33R,0.03937X0.03740*%
%ADD34O,0.09843X0.02756*%
%ADD35R,0.03937X0.11811*%
%ADD36C,0.00984*%
%ADD37C,0.00787*%
%ADD38C,0.00500*%
%ADD39R,0.26000X0.22000*%
%ADD40R,0.22000X0.26000*%
%ADD41C,0.05800*%
%ADD42R,0.04737X0.05131*%
%ADD43R,0.05131X0.04737*%
%ADD44R,0.08674X0.04737*%
%ADD45R,0.01784X0.12611*%
%ADD46R,0.08280X0.08280*%
%ADD47R,0.07690X0.05131*%
%ADD48R,0.07690X0.05131*%
%ADD49R,0.07690X0.14383*%
%ADD50R,0.06706X0.05918*%
%ADD51C,0.06800*%
%ADD52R,0.05800X0.05524*%
%ADD53C,0.03300*%
%ADD54R,0.05800X0.05800*%
%ADD55C,0.05524*%
%ADD56C,0.03556*%
%ADD57R,0.12611X0.04737*%
%ADD58R,0.06509X0.02965*%
%ADD59R,0.06509X0.02965*%
%ADD60R,0.04540X0.04737*%
%ADD61R,0.04737X0.04540*%
%ADD62O,0.10642X0.03556*%
%ADD63R,0.04737X0.12611*%
%ADD64C,0.00600*%
%ADD65C,0.00394*%
%ADD66C,0.02362*%
%ADD67C,0.00800*%
%ADD68R,0.05833X0.03937*%
%ADD69R,0.03937X0.05833*%
%ADD70C,0.00200*%
D22*
X442913Y354331D02*
X523622D01*
X442913Y348425D02*
Y354331D01*
X454724Y236220D02*
X551181D01*
X114961D02*
X199606D01*
X219291D02*
Y240157D01*
X227165Y354331D02*
X318898D01*
X227165Y344488D02*
Y354331D01*
X199606Y236220D02*
Y240157D01*
X435039Y236220D02*
Y246063D01*
X454724Y236220D02*
Y246063D01*
X523622Y326772D02*
X551181D01*
X114961D02*
X126772D01*
Y354331D01*
X523622Y326772D02*
Y354331D01*
X423228Y348425D02*
Y354331D01*
X207480Y344488D02*
Y354331D01*
X353543Y330709D02*
Y354331D01*
X318898Y330709D02*
X353543D01*
Y354331D02*
X423228D01*
X318898Y330709D02*
Y354331D01*
X551181Y236220D02*
Y326772D01*
X126772Y354331D02*
X207480D01*
X114961Y236220D02*
Y326772D01*
X219291Y236220D02*
X435039D01*
D65*
X405512Y301181D02*
G03*
X405512Y301181I-9843J0D01*
G01*
X383858Y328740D02*
G03*
X383858Y328740I-9843J0D01*
G01*
X423228Y348425D02*
G03*
X442913Y348425I9843J0D01*
G01*
X454724Y246063D02*
G03*
X435039Y246063I-9843J0D01*
G01*
X207480Y344488D02*
G03*
X227165Y344488I9843J0D01*
G01*
X219291Y240158D02*
G03*
X199606Y240158I-9843J0D01*
G01*
M02*
