%FSLAX25Y25*%
%MOIN*%
G70*
G01*
G75*
%ADD10C,0.05000*%
%ADD11R,0.03937X0.04331*%
%ADD12R,0.04331X0.03937*%
%ADD13R,0.07874X0.03937*%
%ADD14R,0.00984X0.11811*%
%ADD15R,0.07480X0.07480*%
%ADD16R,0.06890X0.04331*%
%ADD17R,0.06890X0.04331*%
%ADD18R,0.06890X0.13583*%
%ADD19R,0.05906X0.05118*%
%ADD20C,0.06000*%
%ADD21C,0.01969*%
%ADD22C,0.01000*%
%ADD23C,0.01181*%
%ADD24R,0.05000X0.04724*%
%ADD25C,0.02500*%
%ADD26R,0.05000X0.05000*%
%ADD27C,0.04724*%
%ADD28C,0.02756*%
%ADD29R,0.11811X0.03937*%
%ADD30R,0.05709X0.02165*%
%ADD31R,0.05709X0.02165*%
%ADD32R,0.03740X0.03937*%
%ADD33R,0.03937X0.03740*%
%ADD34O,0.09843X0.02756*%
%ADD35R,0.03937X0.11811*%
%ADD36C,0.00984*%
%ADD37C,0.00787*%
%ADD38C,0.00500*%
G36*
X299000Y270000D02*
X294000Y267500D01*
Y272500D01*
X299000Y270000D01*
D02*
G37*
D22*
X376000Y339000D02*
Y354000D01*
X363500Y339000D02*
X376000D01*
X354000D02*
X363500D01*
X354000D02*
Y354000D01*
X376000D01*
X240678Y331293D02*
X304329D01*
X240678Y237043D02*
X304329D01*
X240678Y328725D02*
Y331293D01*
Y237043D02*
Y266393D01*
X304329Y328726D02*
Y331293D01*
Y237043D02*
Y266392D01*
X231000Y340000D02*
X255000D01*
X231000D02*
Y352000D01*
X255000D01*
Y340000D02*
Y352000D01*
X307000Y340000D02*
Y352000D01*
X283000D02*
X307000D01*
X283000Y340000D02*
Y352000D01*
Y340000D02*
X307000D01*
X415499Y326498D02*
X413499D01*
X414499D01*
Y321500D01*
X413499Y320500D01*
X412500D01*
X411500Y321500D01*
X417498Y320500D02*
X419497D01*
X418498D01*
Y326498D01*
X417498Y325498D01*
X336498Y314500D02*
X331500D01*
X330500Y313500D01*
Y311501D01*
X331500Y310501D01*
X336498D01*
X335498Y308502D02*
X336498Y307502D01*
Y305503D01*
X335498Y304503D01*
X334499D01*
X333499Y305503D01*
Y306503D01*
Y305503D01*
X332499Y304503D01*
X331500D01*
X330500Y305503D01*
Y307502D01*
X331500Y308502D01*
X236500Y340798D02*
Y335800D01*
X237500Y334800D01*
X239499D01*
X240499Y335800D01*
Y340798D01*
X242498Y334800D02*
X244497D01*
X243498D01*
Y340798D01*
X242498Y339798D01*
X154350Y349498D02*
Y343500D01*
Y345499D01*
X158349Y349498D01*
X155350Y346499D01*
X158349Y343500D01*
X163347D02*
X161348D01*
X160348Y344500D01*
Y346499D01*
X161348Y347499D01*
X163347D01*
X164347Y346499D01*
Y345499D01*
X160348D01*
X166347Y347499D02*
Y344500D01*
X167346Y343500D01*
X170345D01*
Y342500D01*
X169345Y341501D01*
X168346D01*
X170345Y343500D02*
Y347499D01*
X172345Y342500D02*
X176343D01*
X178343Y349498D02*
Y344500D01*
X179342Y343500D01*
X181342D01*
X182341Y344500D01*
Y349498D01*
X184341Y343500D02*
Y349498D01*
X187340D01*
X188339Y348498D01*
Y346499D01*
X187340Y345499D01*
X184341D01*
X146000Y273998D02*
Y268000D01*
Y269999D01*
X149999Y273998D01*
X147000Y270999D01*
X149999Y268000D01*
X154997D02*
X152998D01*
X151998Y269000D01*
Y270999D01*
X152998Y271999D01*
X154997D01*
X155997Y270999D01*
Y269999D01*
X151998D01*
X157996Y271999D02*
Y269000D01*
X158996Y268000D01*
X161995D01*
Y267000D01*
X160995Y266001D01*
X159995D01*
X161995Y268000D02*
Y271999D01*
X163994Y267000D02*
X167993D01*
X169992Y273998D02*
Y268000D01*
X172991D01*
X173991Y269000D01*
Y272998D01*
X172991Y273998D01*
X169992D01*
X176990Y268000D02*
X178989D01*
X179989Y269000D01*
Y270999D01*
X178989Y271999D01*
X176990D01*
X175990Y270999D01*
Y269000D01*
X176990Y268000D01*
X181988Y271999D02*
Y269000D01*
X182988Y268000D01*
X183988Y269000D01*
X184987Y268000D01*
X185987Y269000D01*
Y271999D01*
X187986Y268000D02*
Y271999D01*
X190985D01*
X191985Y270999D01*
Y268000D01*
X474500Y317498D02*
Y311500D01*
Y313499D01*
X478499Y317498D01*
X475500Y314499D01*
X478499Y311500D01*
X483497D02*
X481498D01*
X480498Y312500D01*
Y314499D01*
X481498Y315499D01*
X483497D01*
X484497Y314499D01*
Y313499D01*
X480498D01*
X486496Y315499D02*
Y312500D01*
X487496Y311500D01*
X490495D01*
Y310500D01*
X489495Y309501D01*
X488495D01*
X490495Y311500D02*
Y315499D01*
X492494Y310500D02*
X496493D01*
X498492Y317498D02*
Y311500D01*
X501491D01*
X502491Y312500D01*
Y313499D01*
Y314499D01*
X501491Y315499D01*
X498492D01*
X508489Y311500D02*
X504490D01*
X508489Y315499D01*
Y316498D01*
X507489Y317498D01*
X505490D01*
X504490Y316498D01*
X453502Y284000D02*
X459500D01*
X457501D01*
X453502Y287999D01*
X456501Y285000D01*
X459500Y287999D01*
Y292997D02*
Y290998D01*
X458500Y289998D01*
X456501D01*
X455501Y290998D01*
Y292997D01*
X456501Y293997D01*
X457501D01*
Y289998D01*
X455501Y295996D02*
X458500D01*
X459500Y296996D01*
Y299995D01*
X460500D01*
X461499Y298995D01*
Y297995D01*
X459500Y299995D02*
X455501D01*
X460500Y301994D02*
Y305993D01*
X453502Y307992D02*
X459500D01*
Y310991D01*
X458500Y311991D01*
X457501D01*
X456501D01*
X455501Y310991D01*
Y307992D01*
X459500Y313990D02*
Y315990D01*
Y314990D01*
X453502D01*
X454502Y313990D01*
X512000Y265998D02*
Y260000D01*
Y261999D01*
X515999Y265998D01*
X513000Y262999D01*
X515999Y260000D01*
X520997D02*
X518998D01*
X517998Y261000D01*
Y262999D01*
X518998Y263999D01*
X520997D01*
X521997Y262999D01*
Y261999D01*
X517998D01*
X523996Y263999D02*
Y261000D01*
X524996Y260000D01*
X527995D01*
Y259000D01*
X526995Y258001D01*
X525995D01*
X527995Y260000D02*
Y263999D01*
X529994Y259000D02*
X533993D01*
X536992Y263999D02*
X538991D01*
X539991Y262999D01*
Y260000D01*
X536992D01*
X535992Y261000D01*
X536992Y261999D01*
X539991D01*
X545989Y260000D02*
X541990D01*
X545989Y263999D01*
Y264998D01*
X544989Y265998D01*
X542990D01*
X541990Y264998D01*
X465320Y271498D02*
Y265500D01*
Y267499D01*
X469319Y271498D01*
X466320Y268499D01*
X469319Y265500D01*
X474318D02*
X472318D01*
X471318Y266500D01*
Y268499D01*
X472318Y269499D01*
X474318D01*
X475317Y268499D01*
Y267499D01*
X471318D01*
X477317Y269499D02*
Y266500D01*
X478316Y265500D01*
X481315D01*
Y264500D01*
X480316Y263501D01*
X479316D01*
X481315Y265500D02*
Y269499D01*
X483315Y264500D02*
X487313D01*
X490312Y269499D02*
X492312D01*
X493311Y268499D01*
Y265500D01*
X490312D01*
X489313Y266500D01*
X490312Y267499D01*
X493311D01*
X495311Y265500D02*
X497310D01*
X496311D01*
Y271498D01*
X495311Y270498D01*
D23*
X307591Y264661D02*
G03*
X307591Y264661I-591J0D01*
G01*
D36*
X394992Y327008D02*
G03*
X394992Y327008I-492J0D01*
G01*
X350996Y314000D02*
G03*
X350996Y314000I-492J0D01*
G01*
D37*
X228425Y313307D02*
X231575D01*
X226425Y289307D02*
X229575D01*
X367307Y276425D02*
Y279575D01*
Y270425D02*
Y273575D01*
X328628Y290676D02*
Y293826D01*
X354693Y270425D02*
Y273575D01*
X323307Y270425D02*
Y273575D01*
X339283Y300811D02*
Y327189D01*
X324717Y300811D02*
X339283D01*
X324717D02*
Y327189D01*
X339283D01*
X353307Y296425D02*
Y299575D01*
X357441Y319480D02*
X362559D01*
X366693Y290425D02*
Y293575D01*
X416425Y259347D02*
X419575D01*
X347951Y278425D02*
Y281575D01*
X315307Y282425D02*
Y285575D01*
X418693Y262425D02*
Y265575D01*
D38*
X417500Y352000D02*
X419980Y354480D01*
X384020D02*
X386500Y352000D01*
Y330315D02*
Y339000D01*
X386646Y352000D02*
X417354D01*
X386646Y330315D02*
X394500D01*
X409500D02*
X417354D01*
X386500Y348000D02*
Y352000D01*
X417500Y348000D02*
Y352000D01*
Y330315D02*
Y339000D01*
M02*
