%FSLAX25Y25*%
%MOIN*%
G70*
G01*
G75*
G04 Layer_Physical_Order=1*
G04 Layer_Color=255*
%ADD10C,0.05000*%
%ADD11R,0.03937X0.04331*%
%ADD12R,0.04331X0.03937*%
%ADD13R,0.07874X0.03937*%
%ADD14R,0.00984X0.11811*%
%ADD15R,0.07480X0.07480*%
%ADD16R,0.06890X0.04331*%
%ADD17R,0.06890X0.04331*%
%ADD18R,0.06890X0.13583*%
%ADD19R,0.05906X0.05118*%
%ADD20C,0.06000*%
%ADD21C,0.01969*%
%ADD22C,0.01000*%
%ADD23C,0.01181*%
%ADD24R,0.05000X0.04724*%
%ADD25C,0.02500*%
%ADD26R,0.05000X0.05000*%
%ADD27C,0.04724*%
%ADD28C,0.02756*%
G36*
X232500Y348684D02*
Y342500D01*
X234471D01*
Y338000D01*
X234471Y338000D01*
X234471D01*
X234587Y337415D01*
X234919Y336919D01*
X237419Y334419D01*
X237915Y334087D01*
X238012Y334068D01*
X238500Y333971D01*
X241866D01*
X247471Y328366D01*
Y326838D01*
X247286Y326714D01*
X246760Y325928D01*
X246575Y325000D01*
X246760Y324072D01*
X247286Y323286D01*
X248072Y322760D01*
X249000Y322575D01*
X249928Y322760D01*
X250714Y323286D01*
X251240Y324072D01*
X251425Y325000D01*
X251240Y325928D01*
X250714Y326714D01*
X250529Y326838D01*
Y329000D01*
X250413Y329585D01*
X250081Y330081D01*
X243581Y336581D01*
X243085Y336913D01*
X242500Y337029D01*
X239134D01*
X237529Y338633D01*
Y342500D01*
X239500D01*
Y344231D01*
X239990Y344329D01*
X240029Y344235D01*
X240590Y343504D01*
X241321Y342943D01*
X242173Y342590D01*
X243087Y342470D01*
X244000Y342590D01*
X244852Y342943D01*
X245583Y343504D01*
X246144Y344235D01*
X246380Y344805D01*
X246880D01*
X247116Y344235D01*
X247677Y343504D01*
X248408Y342943D01*
X249259Y342590D01*
X250173Y342470D01*
X251087Y342590D01*
X251938Y342943D01*
X252670Y343504D01*
X253231Y344235D01*
X253328Y344471D01*
X259154D01*
X259346Y344009D01*
X255419Y340081D01*
X255087Y339585D01*
X254971Y339000D01*
Y322838D01*
X254786Y322714D01*
X254260Y321928D01*
X254076Y321000D01*
X254260Y320072D01*
X254786Y319286D01*
X255572Y318760D01*
X256500Y318576D01*
X257428Y318760D01*
X258214Y319286D01*
X258740Y320072D01*
X258925Y321000D01*
X258740Y321928D01*
X258214Y322714D01*
X258029Y322838D01*
Y338367D01*
X261134Y341471D01*
X265162D01*
X265286Y341286D01*
X266072Y340760D01*
X267000Y340576D01*
X267928Y340760D01*
X268714Y341286D01*
X269240Y342072D01*
X269425Y343000D01*
X269240Y343928D01*
X269172Y344030D01*
X269408Y344471D01*
X277867D01*
X284471Y337866D01*
Y319000D01*
X284471Y319000D01*
X284471D01*
X284587Y318415D01*
X284919Y317919D01*
X290471Y312367D01*
Y299000D01*
X290471Y299000D01*
X290471D01*
X290587Y298415D01*
X290919Y297919D01*
X294310Y294527D01*
X294304Y294467D01*
X293718Y293881D01*
X293500Y293924D01*
X292572Y293740D01*
X291786Y293214D01*
X291260Y292428D01*
X291075Y291500D01*
X291260Y290572D01*
X291786Y289786D01*
X292007Y289638D01*
X291862Y289159D01*
X282976D01*
X282784Y289621D01*
X286633Y293471D01*
X287662D01*
X287786Y293286D01*
X288572Y292760D01*
X289500Y292576D01*
X290428Y292760D01*
X291214Y293286D01*
X291740Y294072D01*
X291925Y295000D01*
X291740Y295928D01*
X291214Y296714D01*
X290428Y297240D01*
X289500Y297425D01*
X288572Y297240D01*
X287786Y296714D01*
X287662Y296529D01*
X286000D01*
X285415Y296413D01*
X284919Y296081D01*
X279996Y291159D01*
X254503D01*
X252538Y293125D01*
X252029Y293634D01*
Y301500D01*
X251913Y302085D01*
X251581Y302581D01*
X250529Y303633D01*
Y310162D01*
X250714Y310286D01*
X251240Y311072D01*
X251425Y312000D01*
X251240Y312928D01*
X251192Y313000D01*
X250714Y313714D01*
Y313714D01*
X249928Y314240D01*
X249000Y314424D01*
X248072Y314240D01*
X247286Y313714D01*
X246760Y312928D01*
X246575Y312000D01*
X246760Y311072D01*
X247286Y310286D01*
X247471Y310162D01*
Y303000D01*
X247587Y302415D01*
X247859Y302007D01*
X247473Y301690D01*
X246546Y302617D01*
X246050Y302948D01*
X245945Y302969D01*
Y304504D01*
X236071D01*
Y302972D01*
X235950Y302948D01*
X235454Y302617D01*
X232919Y300081D01*
X232587Y299585D01*
X232471Y299000D01*
Y295133D01*
X231520Y294183D01*
X230968D01*
Y295819D01*
D01*
Y295819D01*
X230968Y295819D01*
Y296181D01*
X230968D01*
Y302512D01*
X226849D01*
X225523Y303838D01*
Y318248D01*
X225740Y318572D01*
X225924Y319500D01*
X225740Y320428D01*
X225214Y321214D01*
X224428Y321740D01*
X223500Y321924D01*
X222572Y321740D01*
X221786Y321214D01*
X221260Y320428D01*
X221076Y319500D01*
X221260Y318572D01*
X221477Y318248D01*
Y303000D01*
X221631Y302226D01*
X222069Y301569D01*
X225031Y298607D01*
Y296181D01*
X225031Y296181D01*
X225031Y295819D01*
X225031D01*
Y289955D01*
X221208D01*
X218029Y293133D01*
Y311500D01*
X217913Y312085D01*
X217581Y312581D01*
X210529Y319634D01*
Y324366D01*
X215634Y329471D01*
X222658D01*
X223244Y329587D01*
X223740Y329919D01*
X231081Y337260D01*
X231413Y337756D01*
X231529Y338342D01*
Y348366D01*
X232038Y348875D01*
X232500Y348684D01*
D02*
G37*
G36*
X299063Y309221D02*
Y306362D01*
X308937D01*
Y307247D01*
X309399Y307438D01*
X311971Y304867D01*
Y302500D01*
X312087Y301915D01*
X312419Y301419D01*
X314126Y299711D01*
X313935Y299249D01*
X308937D01*
Y304386D01*
X299063D01*
Y302947D01*
X297921D01*
X297797Y303132D01*
X297010Y303657D01*
X296083Y303842D01*
X295155Y303657D01*
X294368Y303132D01*
X294008Y302592D01*
X293529Y302738D01*
Y313000D01*
X293413Y313585D01*
X293081Y314081D01*
X287529Y319634D01*
Y320102D01*
X287991Y320293D01*
X299063Y309221D01*
D02*
G37*
G36*
X205951Y344488D02*
X206067Y343903D01*
X206326Y343516D01*
X206386Y342756D01*
X206791Y341066D01*
X207456Y339461D01*
X208364Y337979D01*
X209493Y336658D01*
X210814Y335529D01*
X212296Y334622D01*
X213901Y333957D01*
X215591Y333551D01*
X217323Y333415D01*
X219055Y333551D01*
X220745Y333957D01*
X222350Y334622D01*
X223832Y335529D01*
X225153Y336658D01*
X226281Y337979D01*
X227189Y339461D01*
X227854Y341066D01*
X227974Y341565D01*
X228471Y341506D01*
Y338975D01*
X222025Y332529D01*
X215000D01*
X214415Y332413D01*
X213919Y332081D01*
X207919Y326081D01*
X207587Y325585D01*
X207471Y325000D01*
Y319000D01*
X207471Y319000D01*
X207471D01*
X207587Y318415D01*
X207919Y317919D01*
X214971Y310866D01*
Y292500D01*
X214971Y292500D01*
X214971D01*
X215087Y291915D01*
X215419Y291419D01*
X219493Y287344D01*
X219989Y287012D01*
X220575Y286896D01*
X231925D01*
X232510Y287012D01*
X233007Y287344D01*
X236120Y290457D01*
X245872D01*
X246189Y290070D01*
X246076Y289500D01*
X246178Y288985D01*
X245861Y288598D01*
X236071D01*
Y283029D01*
X233000D01*
X232415Y282913D01*
X231919Y282581D01*
X231183Y281846D01*
X230742Y282081D01*
X230925Y283000D01*
X230740Y283928D01*
X230214Y284714D01*
X229428Y285240D01*
X228500Y285424D01*
X227572Y285240D01*
X226786Y284714D01*
X226260Y283928D01*
X226076Y283000D01*
X226119Y282782D01*
X215367Y272029D01*
X205271D01*
X205069Y272517D01*
X204428Y273353D01*
X203592Y273994D01*
X203104Y274196D01*
Y274971D01*
X209575D01*
X210160Y275087D01*
X210656Y275419D01*
X210988Y275915D01*
X211104Y276500D01*
Y276670D01*
X211491Y276987D01*
X211575Y276971D01*
X212160Y277087D01*
X212656Y277419D01*
X212988Y277915D01*
X213104Y278500D01*
Y300500D01*
X212988Y301085D01*
X212656Y301581D01*
X212160Y301913D01*
X211575Y302029D01*
X205104D01*
Y303877D01*
X205569Y304483D01*
X205972Y305456D01*
X205974Y305471D01*
X208662D01*
X208786Y305286D01*
X209572Y304760D01*
X210500Y304575D01*
X211428Y304760D01*
X212214Y305286D01*
X212740Y306072D01*
X212925Y307000D01*
X212740Y307928D01*
X212214Y308714D01*
X211428Y309240D01*
X210500Y309424D01*
X209572Y309240D01*
X208786Y308714D01*
X208662Y308529D01*
X205559D01*
X204928Y309353D01*
X204092Y309994D01*
X203119Y310397D01*
X202075Y310535D01*
X201031Y310397D01*
X200058Y309994D01*
X199222Y309353D01*
X198581Y308517D01*
X198178Y307544D01*
X198040Y306500D01*
X198178Y305456D01*
X198581Y304483D01*
X199222Y303647D01*
X200058Y303006D01*
X201031Y302603D01*
X201597Y302528D01*
X201565Y302029D01*
X191575D01*
X190989Y301913D01*
X190493Y301581D01*
X190162Y301085D01*
X190045Y300500D01*
Y278500D01*
X190162Y277915D01*
X190493Y277419D01*
X190989Y277087D01*
X191575Y276971D01*
X191659Y276987D01*
X192045Y276670D01*
D01*
X192045Y276500D01*
X192045Y276500D01*
X192045D01*
X192162Y275915D01*
X192493Y275419D01*
X192990Y275087D01*
X193575Y274971D01*
X200045D01*
Y274196D01*
X199557Y273994D01*
X198722Y273353D01*
X198081Y272517D01*
X197879Y272029D01*
X190134D01*
X185880Y276283D01*
Y319139D01*
X186368Y319341D01*
X187203Y319982D01*
X187844Y320817D01*
X188247Y321790D01*
X188385Y322835D01*
X188247Y323879D01*
X187844Y324852D01*
X187203Y325687D01*
X186368Y326329D01*
X185395Y326732D01*
X184350Y326869D01*
X183306Y326732D01*
X182333Y326329D01*
X181498Y325687D01*
X180856Y324852D01*
X180654Y324364D01*
X179880D01*
Y326835D01*
Y330835D01*
X179763Y331420D01*
X179432Y331916D01*
X178936Y332248D01*
X178350Y332364D01*
X178180D01*
X177863Y332751D01*
X177880Y332835D01*
X177763Y333420D01*
X177432Y333916D01*
X176936Y334248D01*
X176350Y334364D01*
X154350D01*
X153765Y334248D01*
X153269Y333916D01*
X152937Y333420D01*
X152821Y332835D01*
Y328835D01*
Y326364D01*
X150973D01*
X150368Y326829D01*
X149395Y327232D01*
X148350Y327369D01*
X147306Y327232D01*
X146333Y326829D01*
X145498Y326187D01*
X144856Y325352D01*
X144453Y324379D01*
X144316Y323335D01*
X144453Y322290D01*
X144856Y321317D01*
X145203Y320866D01*
X143553Y319216D01*
X143335Y319259D01*
X142407Y319075D01*
X141620Y318549D01*
X141095Y317762D01*
X140910Y316835D01*
X141095Y315907D01*
X141620Y315120D01*
X142407Y314595D01*
X143335Y314410D01*
X144262Y314595D01*
X145049Y315120D01*
X145575Y315907D01*
X145759Y316835D01*
X145716Y317053D01*
X148008Y319345D01*
X148350Y319300D01*
X149395Y319438D01*
X150368Y319841D01*
X151203Y320482D01*
X151844Y321317D01*
X152247Y322290D01*
X152319Y322835D01*
X152668D01*
X152821Y322825D01*
Y317835D01*
Y316835D01*
Y312835D01*
X152821Y312835D01*
X152821D01*
X152937Y312249D01*
X153269Y311753D01*
X153765Y311422D01*
X154350Y311305D01*
X176350D01*
X176936Y311422D01*
X177432Y311753D01*
X177763Y312249D01*
X177880Y312835D01*
X177863Y312919D01*
X178180Y313305D01*
X178350D01*
X178936Y313422D01*
X179432Y313753D01*
X179763Y314249D01*
X179880Y314835D01*
Y318835D01*
Y321305D01*
X180654D01*
X180856Y320817D01*
X181498Y319982D01*
X182333Y319341D01*
X182821Y319139D01*
Y279995D01*
X182359Y279804D01*
X149581Y312581D01*
X149085Y312913D01*
X148500Y313029D01*
X125000D01*
X124415Y312913D01*
X123919Y312581D01*
X117419Y306081D01*
X117087Y305585D01*
X116988Y305085D01*
X116490Y305135D01*
Y325242D01*
X126772D01*
X127357Y325359D01*
X127853Y325690D01*
X128185Y326186D01*
X128301Y326772D01*
Y352801D01*
X205951D01*
Y344488D01*
D02*
G37*
G36*
X183269Y274568D02*
X188419Y269419D01*
X188419Y269419D01*
X188915Y269087D01*
X189500Y268971D01*
X197879D01*
X198081Y268483D01*
X198722Y267647D01*
X199557Y267006D01*
X200531Y266603D01*
X201575Y266465D01*
X202619Y266603D01*
X203592Y267006D01*
X204428Y267647D01*
X205069Y268483D01*
X205271Y268971D01*
X216000D01*
X216585Y269087D01*
X217081Y269419D01*
X228282Y280619D01*
X228500Y280575D01*
X229419Y280758D01*
X229654Y280317D01*
X213367Y264029D01*
X190134D01*
X187163Y267000D01*
X148581Y305581D01*
X148085Y305913D01*
X147500Y306029D01*
X135547D01*
X135344Y306517D01*
X134703Y307353D01*
X133868Y307994D01*
X132895Y308397D01*
X131850Y308535D01*
X130806Y308397D01*
X129833Y307994D01*
X128998Y307353D01*
X128356Y306517D01*
X127953Y305544D01*
X127816Y304500D01*
X127953Y303456D01*
X128356Y302483D01*
X128998Y301647D01*
X129833Y301006D01*
X130806Y300603D01*
X131373Y300528D01*
X131340Y300029D01*
X121350D01*
X120765Y299913D01*
X120470Y299716D01*
X120029Y299952D01*
Y304366D01*
X125634Y309971D01*
X147866D01*
X183269Y274568D01*
D02*
G37*
G36*
X188419Y261419D02*
X188915Y261087D01*
X189500Y260971D01*
X214000D01*
X214585Y261087D01*
X215081Y261419D01*
X221125Y267462D01*
X233633Y279971D01*
X236071D01*
Y274709D01*
X245945D01*
Y275971D01*
X263367D01*
X264471Y274867D01*
Y270346D01*
X264009Y270154D01*
X263081Y271081D01*
X262585Y271413D01*
X262000Y271529D01*
X245945D01*
Y272850D01*
X236071D01*
Y267000D01*
X232500D01*
X215126Y249626D01*
X214476Y250024D01*
X212871Y250689D01*
X211181Y251095D01*
X209449Y251231D01*
X207716Y251095D01*
X206027Y250689D01*
X204422Y250024D01*
X202940Y249116D01*
X201619Y247988D01*
X200490Y246666D01*
X199582Y245185D01*
X198917Y243579D01*
X198512Y241890D01*
X198452Y241129D01*
X198193Y240743D01*
X198077Y240157D01*
Y237750D01*
X116490D01*
Y273365D01*
X116988Y273414D01*
X117087Y272915D01*
X117419Y272419D01*
X122419Y267419D01*
X122915Y267087D01*
X123500Y266971D01*
X127654D01*
X127856Y266483D01*
X128498Y265647D01*
X129333Y265006D01*
X130306Y264603D01*
X131350Y264465D01*
X132395Y264603D01*
X133368Y265006D01*
X134203Y265647D01*
X134844Y266483D01*
X135047Y266971D01*
X175366D01*
X182821Y259516D01*
Y255665D01*
X182333Y255463D01*
X181498Y254821D01*
X180856Y253986D01*
X180654Y253498D01*
X179880D01*
Y255969D01*
X179880Y255969D01*
X179880Y255969D01*
Y255969D01*
Y259969D01*
X179763Y260554D01*
X179432Y261050D01*
X178936Y261382D01*
X178350Y261498D01*
X178180D01*
X177863Y261884D01*
X177880Y261969D01*
X177763Y262554D01*
X177432Y263050D01*
X176936Y263382D01*
X176350Y263498D01*
X154350D01*
X153765Y263382D01*
X153269Y263050D01*
X152937Y262554D01*
X152821Y261969D01*
Y257969D01*
X152821Y257969D01*
X152821D01*
Y255498D01*
X150973D01*
X150368Y255963D01*
X149395Y256366D01*
X149029Y256414D01*
Y258662D01*
X149214Y258786D01*
X149740Y259572D01*
X149925Y260500D01*
X149740Y261428D01*
X149214Y262214D01*
X148428Y262740D01*
X147500Y262925D01*
X146572Y262740D01*
X145786Y262214D01*
X145260Y261428D01*
X145076Y260500D01*
X145260Y259572D01*
X145786Y258786D01*
X145971Y258662D01*
Y255684D01*
X145498Y255321D01*
X144856Y254486D01*
X144453Y253513D01*
X144316Y252469D01*
X144453Y251424D01*
X144856Y250451D01*
X145498Y249616D01*
X146333Y248975D01*
X147306Y248571D01*
X148350Y248434D01*
X149395Y248571D01*
X150368Y248975D01*
X151203Y249616D01*
X151844Y250451D01*
X152247Y251424D01*
X152319Y251969D01*
X152668D01*
X152821Y251959D01*
Y246969D01*
Y245969D01*
Y241969D01*
X152937Y241383D01*
X153269Y240887D01*
X153765Y240556D01*
X154350Y240439D01*
X176350D01*
X176936Y240556D01*
X177432Y240887D01*
X177763Y241383D01*
X177880Y241969D01*
X177863Y242053D01*
X178180Y242439D01*
X178350D01*
X178936Y242556D01*
X179432Y242887D01*
X179763Y243383D01*
X179880Y243969D01*
Y247969D01*
Y250439D01*
X180654D01*
X180856Y249951D01*
X181498Y249116D01*
X182333Y248475D01*
X183306Y248072D01*
X184350Y247934D01*
X185395Y248072D01*
X186368Y248475D01*
X187203Y249116D01*
X187844Y249951D01*
X188247Y250924D01*
X188385Y251969D01*
X188247Y253013D01*
X187844Y253986D01*
X187203Y254821D01*
X186368Y255463D01*
X185880Y255665D01*
Y260150D01*
X185783Y260638D01*
X185763Y260735D01*
X185432Y261231D01*
X179631Y267032D01*
X177081Y269581D01*
X176585Y269913D01*
X176000Y270029D01*
X135047D01*
X134844Y270517D01*
X134203Y271353D01*
X133368Y271994D01*
X132880Y272196D01*
Y272971D01*
X139350D01*
X139936Y273087D01*
X140432Y273419D01*
X140763Y273915D01*
X140880Y274500D01*
Y274670D01*
X141266Y274987D01*
X141350Y274971D01*
X141936Y275087D01*
X142432Y275419D01*
X142763Y275915D01*
X142880Y276500D01*
Y298500D01*
X142763Y299085D01*
X142432Y299581D01*
X141936Y299913D01*
X141350Y300029D01*
X134880D01*
Y301877D01*
X135344Y302483D01*
X135547Y302971D01*
X146867D01*
X188419Y261419D01*
D02*
G37*
G36*
X298919Y280419D02*
X299063Y280322D01*
Y274787D01*
X308937D01*
Y279747D01*
X309399Y279938D01*
X310919Y278419D01*
X310919D01*
X310919Y278419D01*
X310919Y278418D01*
Y278419D01*
X311415Y278087D01*
X312000Y277971D01*
X315866D01*
X316202Y277635D01*
X316075Y277000D01*
X316260Y276072D01*
X316786Y275286D01*
X317572Y274760D01*
X318500Y274575D01*
X319428Y274760D01*
X320214Y275286D01*
X320740Y276072D01*
X320924Y277000D01*
X320740Y277928D01*
X320390Y278451D01*
X320777Y278769D01*
X322476Y277069D01*
X322476D01*
X322476Y277069D01*
X322476Y277069D01*
Y277069D01*
X323132Y276631D01*
X323906Y276477D01*
X324977D01*
Y274969D01*
X323488D01*
Y269032D01*
X324630D01*
Y268346D01*
X324634Y268327D01*
X324281Y267973D01*
X324000Y268029D01*
X314419D01*
X314240Y268928D01*
X313714Y269714D01*
X312928Y270240D01*
X312000Y270425D01*
X311072Y270240D01*
X310286Y269714D01*
X310162Y269529D01*
X308937D01*
Y272969D01*
X299063D01*
Y267032D01*
D01*
Y267032D01*
X299031Y267000D01*
X268163D01*
X267529Y267634D01*
Y275500D01*
X267413Y276085D01*
X267081Y276581D01*
X266228Y277435D01*
X266463Y277876D01*
X266627Y277844D01*
X291873D01*
X292458Y277960D01*
X292954Y278292D01*
X292954Y278292D01*
X292954Y278292D01*
X293282Y278619D01*
X293500Y278575D01*
X294428Y278760D01*
X295214Y279286D01*
X295740Y280072D01*
X295924Y281000D01*
X295740Y281928D01*
X295214Y282714D01*
X294428Y283240D01*
X293500Y283424D01*
X292572Y283240D01*
X291786Y282714D01*
X291260Y281928D01*
X291075Y281000D01*
X290995Y280902D01*
X267261D01*
X265581Y282581D01*
X265085Y282913D01*
X264500Y283029D01*
X245945D01*
Y284101D01*
X295236D01*
X298919Y280419D01*
D02*
G37*
G36*
X361943Y348235D02*
X362504Y347504D01*
X363235Y346943D01*
X364086Y346590D01*
X365000Y346470D01*
X365914Y346590D01*
X366149Y346688D01*
X368419Y344419D01*
X368915Y344087D01*
X369500Y343971D01*
X376500D01*
X377085Y344087D01*
X377581Y344419D01*
X377581Y344419D01*
X377581Y344419D01*
X380633Y347471D01*
X395367D01*
X397912Y344925D01*
Y337221D01*
X395390D01*
Y337221D01*
X395362Y337197D01*
X394520Y337365D01*
X393642Y337190D01*
X392898Y336693D01*
X392400Y335949D01*
X392226Y335071D01*
X392400Y334193D01*
X392898Y333449D01*
X393642Y332951D01*
X394520Y332777D01*
X395003Y332873D01*
X395390Y332556D01*
Y331116D01*
X394230Y329956D01*
X393793Y329869D01*
X393136Y329431D01*
X390729Y327023D01*
X387362D01*
X386588Y326869D01*
X385931Y326431D01*
X385113Y325612D01*
X384677Y325856D01*
X384953Y327008D01*
X385089Y328740D01*
X384953Y330472D01*
X384547Y332162D01*
X383882Y333767D01*
X382974Y335249D01*
X381846Y336570D01*
X380525Y337699D01*
X379043Y338607D01*
X377438Y339272D01*
X375748Y339677D01*
X374016Y339814D01*
X372284Y339677D01*
X370594Y339272D01*
X368988Y338607D01*
X367507Y337699D01*
X366186Y336570D01*
X365057Y335249D01*
X364149Y333767D01*
X363484Y332162D01*
X363079Y330472D01*
X362942Y328740D01*
X363079Y327008D01*
X363484Y325318D01*
X364149Y323713D01*
X365057Y322231D01*
X366186Y320910D01*
X367507Y319781D01*
X368775Y319004D01*
X368639Y318523D01*
X363953D01*
Y319299D01*
X360483D01*
X360023Y319759D01*
Y339638D01*
X361500D01*
Y346362D01*
X359645D01*
X359547Y346853D01*
X359765Y346943D01*
X360496Y347504D01*
X361057Y348235D01*
X361250Y348700D01*
X361750D01*
X361943Y348235D01*
D02*
G37*
G36*
X522093Y326772D02*
X522209Y326186D01*
X522541Y325690D01*
X523037Y325359D01*
X523622Y325242D01*
X549652D01*
Y267000D01*
Y237750D01*
X456254D01*
Y246063D01*
X456137Y246648D01*
X455879Y247035D01*
X455819Y247795D01*
X455413Y249485D01*
X454748Y251090D01*
X453840Y252572D01*
X452712Y253893D01*
X451391Y255022D01*
X449909Y255930D01*
X448304Y256594D01*
X446614Y257000D01*
X444882Y257137D01*
X443150Y257000D01*
X441460Y256594D01*
X439855Y255930D01*
X438373Y255022D01*
X437052Y253893D01*
X435923Y252572D01*
X435015Y251090D01*
X434350Y249485D01*
X433945Y247795D01*
X433885Y247035D01*
X433626Y246648D01*
X433510Y246063D01*
Y237750D01*
X316000D01*
Y253855D01*
X316462Y254047D01*
X318090Y252419D01*
X318586Y252087D01*
X319172Y251971D01*
X330956D01*
X331056Y251730D01*
X330820Y251289D01*
X330572Y251240D01*
X329786Y250714D01*
X329260Y249928D01*
X329076Y249000D01*
X329260Y248072D01*
X329786Y247286D01*
X330572Y246760D01*
X331500Y246575D01*
X332428Y246760D01*
X333214Y247286D01*
X333740Y248072D01*
X333816Y248455D01*
X334354Y248993D01*
X366516D01*
X367290Y249147D01*
X367946Y249585D01*
X384045Y265684D01*
X384428Y265760D01*
X385214Y266286D01*
X385740Y267072D01*
X385877Y267761D01*
X388293Y270177D01*
D01*
D01*
D01*
X388731Y270833D01*
X388885Y271607D01*
Y273088D01*
Y281168D01*
X388731Y281943D01*
X388293Y282599D01*
X377461Y293431D01*
X376805Y293869D01*
X376030Y294023D01*
X370752D01*
X370428Y294240D01*
X369500Y294425D01*
X368572Y294240D01*
X368248Y294023D01*
X366512D01*
Y294969D01*
D01*
Y294969D01*
X366512Y294969D01*
Y295031D01*
X366512D01*
Y300969D01*
X360181D01*
Y295031D01*
D01*
Y295031D01*
X360118Y294969D01*
X359819D01*
Y294969D01*
X353488D01*
Y289032D01*
X354467D01*
X354703Y288591D01*
X354260Y287928D01*
X354076Y287000D01*
X354260Y286072D01*
X354786Y285286D01*
X355572Y284760D01*
X356500Y284576D01*
X357428Y284760D01*
X358214Y285286D01*
X358338Y285471D01*
X370037D01*
X372626Y283744D01*
X372760Y283072D01*
X373286Y282286D01*
X374072Y281760D01*
X375000Y281575D01*
X375928Y281760D01*
X376714Y282286D01*
X377240Y283072D01*
X377425Y284000D01*
X377240Y284928D01*
X376714Y285714D01*
X375928Y286240D01*
X375000Y286424D01*
X374323Y286290D01*
X371348Y288273D01*
X371210Y288330D01*
X371085Y288413D01*
X370937Y288442D01*
X370797Y288500D01*
X370647Y288500D01*
X370500Y288529D01*
X358338D01*
X358214Y288714D01*
X358029Y288838D01*
Y289032D01*
X359819D01*
Y289032D01*
X359819D01*
X359819Y289032D01*
X360181D01*
Y289032D01*
X366512D01*
Y289977D01*
X368248D01*
X368572Y289760D01*
X369500Y289576D01*
X370428Y289760D01*
X370752Y289977D01*
X375192D01*
X384445Y280724D01*
X384209Y280283D01*
X383500Y280424D01*
X382572Y280240D01*
X381786Y279714D01*
X381662Y279529D01*
X380512D01*
Y280968D01*
X374181D01*
D01*
D01*
X374181Y280968D01*
X373819D01*
Y280968D01*
X367488D01*
Y279529D01*
X366000D01*
X365512Y279432D01*
X365415Y279413D01*
X364919Y279081D01*
X362419Y276581D01*
X362087Y276085D01*
X361971Y275500D01*
Y267000D01*
Y262134D01*
X356867Y257029D01*
X337846D01*
X337654Y257491D01*
X338993Y258830D01*
X339325Y259327D01*
X339441Y259912D01*
Y267000D01*
Y272689D01*
Y277031D01*
X341077D01*
Y282968D01*
X334747D01*
Y277031D01*
X336383D01*
Y274969D01*
X332541D01*
X332529Y274980D01*
Y286532D01*
X332432Y287021D01*
X332413Y287118D01*
X332081Y287614D01*
X328447Y291249D01*
Y292737D01*
X328908Y292929D01*
X332419Y289419D01*
X332419D01*
X332419Y289419D01*
X332419Y289419D01*
Y289419D01*
X332915Y289087D01*
X333500Y288971D01*
X341162D01*
X341286Y288786D01*
X342072Y288260D01*
X343000Y288075D01*
X343928Y288260D01*
X344714Y288786D01*
X345240Y289572D01*
X345425Y290500D01*
X345240Y291428D01*
X344714Y292214D01*
X344036Y292668D01*
X344227Y293130D01*
X344500Y293075D01*
X345428Y293260D01*
X346214Y293786D01*
X346740Y294572D01*
X346924Y295500D01*
X346740Y296428D01*
X346214Y297214D01*
X345428Y297740D01*
X344500Y297924D01*
X344495Y297923D01*
X344428Y298260D01*
X345214Y298786D01*
X345740Y299572D01*
X345924Y300500D01*
X345740Y301428D01*
X345214Y302214D01*
X344428Y302740D01*
X344446Y302922D01*
X356685D01*
X357459Y303076D01*
X358116Y303514D01*
X359302Y304701D01*
X363953D01*
Y311819D01*
D01*
Y311819D01*
X363953Y311819D01*
Y312181D01*
X363953D01*
Y314477D01*
X378862D01*
X379636Y314631D01*
X380292Y315069D01*
X388200Y322977D01*
X391567D01*
X392341Y323131D01*
X392998Y323569D01*
X394928Y325500D01*
X395390Y325308D01*
Y323410D01*
X397912D01*
Y321407D01*
X397072Y321240D01*
X396286Y320714D01*
X395760Y319928D01*
X395575Y319000D01*
X395760Y318072D01*
X396286Y317286D01*
X397072Y316760D01*
X398000Y316576D01*
X398928Y316760D01*
X399617Y317220D01*
X399970Y316867D01*
X399510Y316178D01*
X399325Y315250D01*
X399510Y314322D01*
X400036Y313536D01*
X400822Y313010D01*
X401750Y312825D01*
X402678Y313010D01*
X403464Y313536D01*
X403990Y314322D01*
X404175Y315250D01*
X403990Y316178D01*
X403529Y316867D01*
Y323410D01*
X406051D01*
Y337221D01*
X403529D01*
Y346000D01*
X403413Y346585D01*
X403081Y347081D01*
X397823Y352340D01*
X398015Y352801D01*
X421699D01*
Y348425D01*
X421815Y347840D01*
X422074Y347453D01*
X422134Y346693D01*
X422539Y345003D01*
X423204Y343398D01*
X424112Y341916D01*
X425241Y340595D01*
X426562Y339467D01*
X428044Y338559D01*
X429649Y337894D01*
X431339Y337488D01*
X433071Y337352D01*
X434803Y337488D01*
X436493Y337894D01*
X438098Y338559D01*
X439580Y339467D01*
X440901Y340595D01*
X442029Y341916D01*
X442937Y343398D01*
X443602Y345003D01*
X444008Y346693D01*
X444068Y347453D01*
X444326Y347840D01*
X444443Y348425D01*
Y352801D01*
X522093D01*
Y326772D01*
D02*
G37*
G36*
X317368Y330709D02*
X317368Y330709D01*
X317368D01*
X317485Y330123D01*
X317816Y329627D01*
X318312Y329296D01*
X318898Y329179D01*
X353543D01*
X354129Y329296D01*
X354625Y329627D01*
X354956Y330123D01*
X355073Y330709D01*
Y339638D01*
X355977D01*
Y318921D01*
X356047Y318568D01*
Y312181D01*
X356047Y312181D01*
X356047Y311819D01*
X356047D01*
Y307168D01*
X355847Y306968D01*
X323551D01*
Y308110D01*
X314661D01*
Y307155D01*
X314199Y306963D01*
X310751Y310412D01*
X310255Y310744D01*
X309669Y310860D01*
X308937D01*
Y312299D01*
X300311D01*
X298988Y313622D01*
X298988Y314122D01*
X299063Y314197D01*
D01*
X299063Y314197D01*
X308937D01*
Y320134D01*
X299063D01*
Y319183D01*
X298601Y318992D01*
X295289Y322304D01*
X295428Y322760D01*
X295870Y323056D01*
X299063D01*
Y322110D01*
X308937D01*
X308937Y322110D01*
Y322110D01*
X309002Y322137D01*
X309514Y321624D01*
X310171Y321186D01*
X310945Y321032D01*
X314661D01*
Y319890D01*
X317083D01*
Y317165D01*
X314661D01*
Y310835D01*
X323551D01*
Y315704D01*
X323938Y316021D01*
X324161Y315977D01*
X324248D01*
X324572Y315760D01*
X325500Y315576D01*
X326428Y315760D01*
X327214Y316286D01*
X327740Y317072D01*
X327924Y318000D01*
X327740Y318928D01*
X327214Y319714D01*
X326428Y320240D01*
X325500Y320425D01*
X324747Y320275D01*
X323551Y321471D01*
Y326220D01*
X314661D01*
Y325078D01*
X311783D01*
X310352Y326509D01*
X309695Y326948D01*
X308937Y327099D01*
Y328047D01*
X299063D01*
Y327102D01*
X295635D01*
X295428Y327240D01*
X294500Y327425D01*
X294693Y327713D01*
X294928Y327760D01*
X295714Y328286D01*
X296240Y329072D01*
X296425Y330000D01*
X296240Y330928D01*
X295714Y331714D01*
X294928Y332240D01*
X294000Y332424D01*
X293072Y332240D01*
X292286Y331714D01*
X291760Y330928D01*
X291576Y330000D01*
X291619Y329782D01*
X290541Y328703D01*
X290209Y328207D01*
X290093Y327622D01*
Y323808D01*
X290093Y323808D01*
X290093D01*
X290209Y323223D01*
X290446Y322867D01*
X290060Y322550D01*
X289529Y323081D01*
Y342500D01*
X291500D01*
Y344231D01*
X291990Y344329D01*
X292029Y344235D01*
X292590Y343504D01*
X293321Y342943D01*
X294173Y342590D01*
X295087Y342470D01*
X296000Y342590D01*
X296852Y342943D01*
X297583Y343504D01*
X298144Y344235D01*
X298380Y344805D01*
X298880D01*
X299116Y344235D01*
X299677Y343504D01*
X300408Y342943D01*
X301259Y342590D01*
X302173Y342470D01*
X303087Y342590D01*
X303938Y342943D01*
X304669Y343504D01*
X305230Y344235D01*
X305583Y345086D01*
X305703Y346000D01*
X305583Y346914D01*
X305230Y347765D01*
X304669Y348496D01*
X303938Y349057D01*
X303087Y349410D01*
X302173Y349530D01*
X301259Y349410D01*
X300408Y349057D01*
X299677Y348496D01*
X299116Y347765D01*
X298880Y347195D01*
X298380D01*
X298144Y347765D01*
X297583Y348496D01*
X296852Y349057D01*
X296000Y349410D01*
X295087Y349530D01*
X294173Y349410D01*
X293962Y349322D01*
X291203Y352081D01*
X290707Y352413D01*
X290121Y352529D01*
X290393Y352801D01*
X317368D01*
Y330709D01*
D02*
G37*
%LPC*%
G36*
X408000Y275391D02*
X407122Y275276D01*
X406304Y274937D01*
X405602Y274398D01*
X405063Y273696D01*
X404724Y272878D01*
X404609Y272000D01*
X404724Y271122D01*
X405063Y270304D01*
X405602Y269602D01*
X406304Y269063D01*
X406471Y268994D01*
Y267000D01*
Y266968D01*
X405488D01*
Y261032D01*
X411819D01*
Y266968D01*
X409529D01*
Y267000D01*
Y268994D01*
X409696Y269063D01*
X410398Y269602D01*
X410937Y270304D01*
X411276Y271122D01*
X411391Y272000D01*
X411276Y272878D01*
Y272878D01*
X410937Y273696D01*
X410398Y274398D01*
X409696Y274937D01*
X408878Y275276D01*
X408000Y275391D01*
D02*
G37*
G36*
X322016Y248121D02*
X320972Y247984D01*
X319999Y247581D01*
X319163Y246939D01*
X318522Y246104D01*
X318119Y245131D01*
X317981Y244087D01*
X318119Y243042D01*
X318522Y242069D01*
X319163Y241234D01*
X319999Y240593D01*
X320972Y240190D01*
X322016Y240052D01*
X323060Y240190D01*
X324033Y240593D01*
X324869Y241234D01*
X325510Y242069D01*
X325913Y243042D01*
X326050Y244087D01*
X325913Y245131D01*
X325510Y246104D01*
X324869Y246939D01*
X324033Y247581D01*
X323060Y247984D01*
X322016Y248121D01*
D02*
G37*
G36*
X408000Y255391D02*
X407122Y255276D01*
X406304Y254937D01*
X405602Y254398D01*
X405063Y253696D01*
X404724Y252878D01*
X404609Y252000D01*
X404724Y251122D01*
X405063Y250304D01*
X405602Y249602D01*
X406304Y249063D01*
X407122Y248724D01*
X408000Y248609D01*
X408878Y248724D01*
X409696Y249063D01*
X410398Y249602D01*
X410714Y249623D01*
X412111Y248226D01*
X412607Y247894D01*
X412705Y247875D01*
X413193Y247778D01*
X415031D01*
Y246142D01*
X420968D01*
Y252473D01*
X415031D01*
Y250837D01*
X413826D01*
X411581Y253081D01*
X411085Y253413D01*
X411051Y253420D01*
X410937Y253696D01*
X410398Y254398D01*
X409696Y254937D01*
X408878Y255276D01*
X408000Y255391D01*
D02*
G37*
G36*
X348000Y248121D02*
X346956Y247984D01*
X345983Y247581D01*
X345147Y246939D01*
X344506Y246104D01*
X344103Y245131D01*
X343966Y244087D01*
X344103Y243042D01*
X344506Y242069D01*
X345147Y241234D01*
X345983Y240593D01*
X346956Y240190D01*
X348000Y240052D01*
X349044Y240190D01*
X350017Y240593D01*
X350853Y241234D01*
X351494Y242069D01*
X351897Y243042D01*
X352034Y244087D01*
X351897Y245131D01*
X351494Y246104D01*
X350853Y246939D01*
X350017Y247581D01*
X349044Y247984D01*
X348000Y248121D01*
D02*
G37*
G36*
X245945Y320173D02*
X236071D01*
Y318734D01*
X232968D01*
Y319819D01*
X227031D01*
Y313488D01*
X232968D01*
Y315675D01*
X236071D01*
Y314236D01*
X245945D01*
Y320173D01*
D02*
G37*
G36*
Y312457D02*
X236071D01*
Y311018D01*
X234988D01*
X234403Y310901D01*
X233907Y310570D01*
X232218Y308881D01*
X232000Y308925D01*
X231072Y308740D01*
X230286Y308214D01*
X229760Y307428D01*
X229575Y306500D01*
X229760Y305572D01*
X230286Y304786D01*
X231072Y304260D01*
X232000Y304076D01*
X232928Y304260D01*
X233714Y304786D01*
X234240Y305572D01*
X234424Y306500D01*
X234381Y306718D01*
X235609Y307946D01*
X236071Y307755D01*
Y306520D01*
X245945D01*
Y312457D01*
D02*
G37*
G36*
X409480Y337365D02*
X408603Y337190D01*
X407858Y336693D01*
X407361Y335949D01*
X407186Y335071D01*
X407361Y334193D01*
X407858Y333449D01*
X408603Y332951D01*
X409480Y332777D01*
X410358Y332951D01*
X411103Y333449D01*
X411600Y334193D01*
X411774Y335071D01*
X411600Y335949D01*
X411103Y336693D01*
X410358Y337190D01*
X409480Y337365D01*
D02*
G37*
G36*
X354512Y274969D02*
X348181D01*
Y269032D01*
X349323D01*
Y267000D01*
Y266240D01*
X348947Y265910D01*
X348000Y266035D01*
X346956Y265897D01*
X345983Y265494D01*
X345147Y264853D01*
X344506Y264017D01*
X344103Y263044D01*
X343966Y262000D01*
X344103Y260956D01*
X344506Y259983D01*
X345147Y259147D01*
X345983Y258506D01*
X346956Y258103D01*
X348000Y257965D01*
X349044Y258103D01*
X350017Y258506D01*
X350853Y259147D01*
X351494Y259983D01*
X351897Y260956D01*
X352034Y262000D01*
X351898Y263037D01*
X352777Y263916D01*
X353216Y264572D01*
X353369Y265346D01*
Y267000D01*
Y269032D01*
X354512D01*
Y272811D01*
Y274969D01*
D02*
G37*
G36*
X498500Y348144D02*
X476500D01*
X475915Y348027D01*
X475419Y347696D01*
X475087Y347200D01*
X474971Y346614D01*
X474987Y346530D01*
X474670Y346144D01*
X474500D01*
X473915Y346027D01*
X473419Y345696D01*
X473087Y345199D01*
X472971Y344614D01*
Y340614D01*
X472971Y340614D01*
X472971D01*
Y338144D01*
X472196D01*
X471994Y338632D01*
X471353Y339467D01*
X470517Y340108D01*
X469544Y340511D01*
X468500Y340649D01*
X467456Y340511D01*
X466483Y340108D01*
X465647Y339467D01*
X465006Y338632D01*
X464804Y338144D01*
X460122D01*
X459537Y338027D01*
X459041Y337696D01*
X438540Y317195D01*
X438052Y317397D01*
X437008Y317534D01*
X435964Y317397D01*
X434991Y316994D01*
X434155Y316353D01*
X433514Y315517D01*
X433312Y315029D01*
X431819D01*
X431740Y315428D01*
X431214Y316214D01*
X430428Y316740D01*
X429500Y316925D01*
X428572Y316740D01*
X427786Y316214D01*
X427260Y315428D01*
X427075Y314500D01*
X427260Y313572D01*
X427786Y312786D01*
X428572Y312260D01*
X429500Y312075D01*
X429833Y312142D01*
X429915Y312087D01*
X430500Y311971D01*
X433312D01*
X433514Y311483D01*
X434155Y310647D01*
X434991Y310006D01*
X435478Y309804D01*
Y309029D01*
X429008D01*
X428422Y308913D01*
X427926Y308581D01*
X427595Y308085D01*
X427478Y307500D01*
Y307330D01*
X427092Y307013D01*
X427008Y307029D01*
X426423Y306913D01*
X425926Y306581D01*
X425595Y306085D01*
X425478Y305500D01*
Y283500D01*
X425595Y282915D01*
X425926Y282419D01*
X426423Y282087D01*
X427008Y281971D01*
X433478D01*
Y280123D01*
X433014Y279517D01*
X432812Y279029D01*
X414147D01*
X412296Y280880D01*
X411800Y281212D01*
X411215Y281328D01*
X406835D01*
X404600Y283562D01*
X404459Y283773D01*
X398652Y289581D01*
X398155Y289913D01*
X397570Y290029D01*
Y290284D01*
X399091Y290650D01*
X400697Y291315D01*
X402178Y292222D01*
X403499Y293351D01*
X404628Y294672D01*
X405536Y296154D01*
X406201Y297759D01*
X406606Y299449D01*
X406743Y301181D01*
X406606Y302913D01*
X406201Y304603D01*
X405536Y306208D01*
X404628Y307690D01*
X403499Y309011D01*
X402178Y310140D01*
X400697Y311048D01*
X399091Y311713D01*
X397402Y312118D01*
X395669Y312255D01*
X393937Y312118D01*
X392247Y311713D01*
X390642Y311048D01*
X389160Y310140D01*
X387839Y309011D01*
X386711Y307690D01*
X385803Y306208D01*
X385138Y304603D01*
X384732Y302913D01*
X384596Y301181D01*
X384732Y299449D01*
X385138Y297759D01*
X385803Y296154D01*
X386711Y294672D01*
X387839Y293351D01*
X389160Y292222D01*
X390642Y291315D01*
X392247Y290650D01*
X392762Y290526D01*
X392704Y290029D01*
X388846D01*
X374688Y304188D01*
X374192Y304519D01*
X373606Y304636D01*
X373398D01*
X373240Y305428D01*
X372714Y306214D01*
X371928Y306740D01*
X371000Y306925D01*
X370072Y306740D01*
X369286Y306214D01*
X368760Y305428D01*
X368576Y304500D01*
X368760Y303572D01*
X369286Y302786D01*
X370072Y302260D01*
X371000Y302076D01*
X371218Y302119D01*
X371312Y302025D01*
X371808Y301693D01*
X372394Y301577D01*
X372973D01*
X387131Y287419D01*
X387627Y287087D01*
X388213Y286971D01*
X396937D01*
X402155Y281752D01*
X402296Y281541D01*
X405120Y278717D01*
X405616Y278386D01*
X406201Y278269D01*
X410581D01*
X412432Y276419D01*
X412432D01*
X412432Y276419D01*
X412432Y276418D01*
Y276419D01*
X412928Y276087D01*
X413513Y275971D01*
X432812D01*
X433014Y275483D01*
X433655Y274647D01*
X434490Y274006D01*
X435464Y273603D01*
X436508Y273465D01*
X436559Y273472D01*
D01*
X437552Y273603D01*
X438525Y274006D01*
X439361Y274647D01*
X440002Y275483D01*
X440405Y276456D01*
X440542Y277500D01*
X440405Y278544D01*
X440002Y279517D01*
X439361Y280353D01*
X438525Y280994D01*
X437552Y281397D01*
X436537Y281531D01*
Y281971D01*
X447008D01*
X447593Y282087D01*
X448089Y282419D01*
X448421Y282915D01*
X448537Y283500D01*
Y305500D01*
X448421Y306085D01*
X448089Y306581D01*
X447593Y306913D01*
X447008Y307029D01*
X446924Y307013D01*
X446537Y307330D01*
Y307500D01*
X446421Y308085D01*
X446089Y308581D01*
X445593Y308913D01*
X445008Y309029D01*
X438537D01*
Y309804D01*
X439025Y310006D01*
X439861Y310647D01*
X440502Y311483D01*
X440905Y312456D01*
X441042Y313500D01*
X440905Y314544D01*
X440703Y315032D01*
X460755Y335085D01*
X464804D01*
X465006Y334597D01*
X465647Y333761D01*
X466483Y333120D01*
X466971Y332918D01*
Y324500D01*
X466971Y324500D01*
X466971D01*
X467087Y323915D01*
X467419Y323419D01*
X474919Y315919D01*
X475415Y315587D01*
X476000Y315471D01*
X510971D01*
Y267000D01*
Y259413D01*
X505253Y253695D01*
X504765Y253897D01*
X503720Y254034D01*
X502676Y253897D01*
X501703Y253494D01*
X500868Y252853D01*
X500226Y252017D01*
X500024Y251529D01*
X499250D01*
Y254000D01*
Y258000D01*
X499133Y258585D01*
X498802Y259081D01*
X498306Y259413D01*
X497720Y259529D01*
X497550D01*
X497233Y259916D01*
X497250Y260000D01*
X497133Y260585D01*
X496802Y261081D01*
X496306Y261413D01*
X495720Y261529D01*
X473720D01*
X473135Y261413D01*
X472639Y261081D01*
X472307Y260585D01*
X472191Y260000D01*
Y256000D01*
X472191Y256000D01*
X472191D01*
Y253529D01*
X470343D01*
X469738Y253994D01*
X468765Y254397D01*
X467720Y254535D01*
X466676Y254397D01*
X466188Y254195D01*
X463311Y257073D01*
X463240Y257428D01*
X462714Y258214D01*
X461928Y258740D01*
X461000Y258925D01*
X460072Y258740D01*
X459286Y258214D01*
X458760Y257428D01*
X458575Y256500D01*
X458760Y255572D01*
X459286Y254786D01*
X460072Y254260D01*
X461000Y254076D01*
X461819Y254238D01*
X464025Y252032D01*
X463823Y251544D01*
X463686Y250500D01*
X463823Y249456D01*
X464226Y248483D01*
X464868Y247647D01*
X465703Y247006D01*
X466676Y246603D01*
X467720Y246465D01*
X468765Y246603D01*
X469738Y247006D01*
X470573Y247647D01*
X471214Y248483D01*
X471618Y249456D01*
X471689Y250000D01*
X472038D01*
X472191Y249990D01*
Y245000D01*
Y244000D01*
Y240000D01*
X472307Y239415D01*
X472639Y238919D01*
X473135Y238587D01*
X473720Y238471D01*
X495720D01*
X496306Y238587D01*
X496802Y238919D01*
X497133Y239415D01*
X497250Y240000D01*
X497233Y240084D01*
X497550Y240471D01*
X497720D01*
X498306Y240587D01*
X498802Y240919D01*
X499133Y241415D01*
X499250Y242000D01*
Y246000D01*
X499250Y246000D01*
X499250Y246000D01*
Y246000D01*
Y248471D01*
X500024D01*
X500226Y247983D01*
X500868Y247147D01*
X501703Y246506D01*
X502676Y246103D01*
X503720Y245966D01*
X504765Y246103D01*
X505738Y246506D01*
X506573Y247147D01*
X507214Y247983D01*
X507618Y248956D01*
X507755Y250000D01*
X507618Y251044D01*
X507415Y251532D01*
X513581Y257698D01*
X513913Y258194D01*
X514029Y258780D01*
Y267000D01*
Y274097D01*
Y315471D01*
X529867D01*
X532305Y313032D01*
X532103Y312544D01*
X531965Y311500D01*
X532103Y310456D01*
X532506Y309483D01*
X533147Y308647D01*
X533983Y308006D01*
X534471Y307804D01*
Y307029D01*
X528000D01*
X527415Y306913D01*
X526919Y306581D01*
X526587Y306085D01*
X526471Y305500D01*
Y305330D01*
X526084Y305013D01*
X526000Y305029D01*
X525415Y304913D01*
X524919Y304581D01*
X524587Y304085D01*
X524471Y303500D01*
Y281500D01*
X524471Y281500D01*
X524471D01*
X524587Y280915D01*
X524919Y280419D01*
X525415Y280087D01*
X526000Y279971D01*
X532471D01*
Y278123D01*
X532006Y277517D01*
X531603Y276544D01*
X531469Y275529D01*
X527838D01*
X527714Y275714D01*
X526928Y276240D01*
X526000Y276425D01*
X525072Y276240D01*
X524286Y275714D01*
X523760Y274928D01*
X523575Y274000D01*
X523760Y273072D01*
X524286Y272286D01*
X525072Y271760D01*
X526000Y271575D01*
X526928Y271760D01*
X527714Y272286D01*
X527838Y272471D01*
X532877D01*
X533483Y272006D01*
X534456Y271603D01*
X535500Y271465D01*
X536544Y271603D01*
X537517Y272006D01*
X538353Y272647D01*
X538994Y273483D01*
X539091Y273717D01*
X539397Y274456D01*
X539535Y275500D01*
X539397Y276544D01*
X538994Y277517D01*
X538353Y278353D01*
X537517Y278994D01*
X536544Y279397D01*
X535529Y279531D01*
Y279971D01*
X546000D01*
X546585Y280087D01*
X547081Y280419D01*
X547413Y280915D01*
X547529Y281500D01*
Y303500D01*
X547413Y304085D01*
X547081Y304581D01*
X546585Y304913D01*
X546000Y305029D01*
X545916Y305013D01*
X545529Y305330D01*
Y305500D01*
X545413Y306085D01*
X545081Y306581D01*
X544585Y306913D01*
X544000Y307029D01*
X537529D01*
Y307804D01*
X538017Y308006D01*
X538853Y308647D01*
X539494Y309483D01*
X539897Y310456D01*
X540034Y311500D01*
X539897Y312544D01*
X539494Y313517D01*
X538853Y314353D01*
X538017Y314994D01*
X537044Y315397D01*
X536000Y315534D01*
X534956Y315397D01*
X534468Y315195D01*
X531581Y318081D01*
X531085Y318413D01*
X530500Y318529D01*
X476634D01*
X470029Y325133D01*
Y332918D01*
X470517Y333120D01*
X471353Y333761D01*
X471994Y334597D01*
X472196Y335085D01*
X472971D01*
Y332614D01*
X472971Y332614D01*
X472971D01*
Y328614D01*
X473087Y328029D01*
X473419Y327533D01*
X473915Y327201D01*
X474500Y327085D01*
X474670D01*
X474987Y326698D01*
X474971Y326614D01*
X475087Y326029D01*
X475419Y325533D01*
X475915Y325201D01*
X476500Y325085D01*
X498500D01*
X499085Y325201D01*
X499581Y325533D01*
X499913Y326029D01*
X500029Y326614D01*
X500029Y326614D01*
X500029Y326614D01*
Y326614D01*
Y330614D01*
X500029Y330614D01*
X500029Y330614D01*
Y330614D01*
Y333085D01*
X501877D01*
X502483Y332620D01*
X503456Y332217D01*
X504471Y332084D01*
Y328338D01*
X504286Y328214D01*
X503760Y327428D01*
X503576Y326500D01*
X503760Y325572D01*
X504286Y324786D01*
X505072Y324260D01*
X506000Y324076D01*
X506928Y324260D01*
X507714Y324786D01*
X508240Y325572D01*
X508425Y326500D01*
X508240Y327428D01*
X507714Y328214D01*
X507529Y328338D01*
Y333491D01*
X507994Y334097D01*
X508397Y335070D01*
X508534Y336114D01*
X508397Y337158D01*
X507994Y338131D01*
X507353Y338967D01*
X506517Y339608D01*
X505544Y340011D01*
X504500Y340149D01*
X503456Y340011D01*
X502483Y339608D01*
X501647Y338967D01*
X501006Y338131D01*
X500603Y337158D01*
X500531Y336614D01*
X500182D01*
X500029Y336624D01*
Y342614D01*
Y346614D01*
X499913Y347200D01*
X499581Y347696D01*
X499085Y348027D01*
X498500Y348144D01*
D02*
G37*
%LPD*%
D10*
X358000Y350000D02*
D03*
X365000Y343000D02*
D03*
X372000Y350000D02*
D03*
X365000D02*
D03*
X250173Y346000D02*
D03*
X243087D02*
D03*
X295087D02*
D03*
X302173D02*
D03*
D11*
X230000Y323346D02*
D03*
Y316654D02*
D03*
X228000Y299346D02*
D03*
Y292654D02*
D03*
X418000Y249307D02*
D03*
Y256000D02*
D03*
D12*
X377346Y278000D02*
D03*
X370654D02*
D03*
X377346Y272000D02*
D03*
X370654D02*
D03*
X318588Y292251D02*
D03*
X325281D02*
D03*
X344654Y272000D02*
D03*
X351346D02*
D03*
X333346D02*
D03*
X326654D02*
D03*
X363346Y298000D02*
D03*
X356654D02*
D03*
Y292000D02*
D03*
X363346D02*
D03*
X337912Y280000D02*
D03*
X344605D02*
D03*
X325346Y284000D02*
D03*
X318654D02*
D03*
X408654Y264000D02*
D03*
X415346D02*
D03*
D13*
X304000Y317165D02*
D03*
Y309331D02*
D03*
Y301417D02*
D03*
Y293386D02*
D03*
Y285630D02*
D03*
Y277756D02*
D03*
Y270000D02*
D03*
X241008Y269882D02*
D03*
Y277677D02*
D03*
Y285630D02*
D03*
Y293425D02*
D03*
Y301535D02*
D03*
Y309488D02*
D03*
Y317205D02*
D03*
Y325236D02*
D03*
X304000Y325079D02*
D03*
D14*
X407118Y330315D02*
D03*
X404559D02*
D03*
X402000D02*
D03*
X399441D02*
D03*
X396882D02*
D03*
D15*
X417551Y343535D02*
D03*
X386449D02*
D03*
D16*
X319106Y323055D02*
D03*
D17*
Y314000D02*
D03*
Y304945D02*
D03*
D18*
X344894Y314000D02*
D03*
D19*
X360000Y308260D02*
D03*
Y315740D02*
D03*
D20*
X503720Y250000D02*
D03*
X467720Y250500D02*
D03*
X535500Y275500D02*
D03*
X536000Y311500D02*
D03*
X437008Y313500D02*
D03*
X436508Y277500D02*
D03*
X504500Y336114D02*
D03*
X468500Y336614D02*
D03*
X184350Y251969D02*
D03*
X148350Y252469D02*
D03*
X131850Y304500D02*
D03*
X131350Y268500D02*
D03*
X201575Y270500D02*
D03*
X202075Y306500D02*
D03*
X148350Y323335D02*
D03*
X184350Y322835D02*
D03*
X322016Y244087D02*
D03*
Y262000D02*
D03*
X348000D02*
D03*
Y244087D02*
D03*
D21*
X347000Y312000D02*
X352500D01*
X346894D02*
X347000D01*
X344894Y314000D02*
X346894Y312000D01*
X356685Y304945D02*
X360000Y308260D01*
X319106Y304945D02*
X356685D01*
X358760Y316500D02*
X359591Y317331D01*
X358000Y318921D02*
X359591Y317331D01*
X358000Y318921D02*
Y343000D01*
X417551Y294354D02*
Y338366D01*
X412000Y288803D02*
X417551Y294354D01*
X385913Y343000D02*
X386449Y343535D01*
X365000Y343000D02*
X385913D01*
X230000Y323346D02*
X231890Y325236D01*
X241008D01*
X223500Y303000D02*
X227154Y299346D01*
X228000D01*
X223500Y303000D02*
Y319500D01*
X242764Y325236D02*
X250500Y317500D01*
Y316424D02*
Y317500D01*
Y316424D02*
X264182Y302742D01*
X241008Y325236D02*
X242764D01*
X264182Y302742D02*
X282000D01*
X410186Y277314D02*
X415346Y272154D01*
X404686Y277314D02*
X410186D01*
X396500Y285500D02*
X400500Y281500D01*
X387583Y285500D02*
X396500D01*
X400500Y281500D02*
X404686Y277314D01*
X415346Y258654D02*
X418000Y256000D01*
X415346Y258654D02*
Y264000D01*
Y272154D01*
X417551Y338366D02*
Y343535D01*
X409500Y330315D02*
X417551Y338366D01*
X326654Y268346D02*
X331500Y263500D01*
X326654Y268346D02*
Y272000D01*
X366516Y251016D02*
X383500Y268000D01*
X331500Y249000D02*
X333516Y251016D01*
X366516D01*
X348000Y262000D02*
X351346Y265346D01*
Y272000D01*
X344605Y272049D02*
Y280000D01*
X349500Y296154D02*
X351346Y298000D01*
X349500Y284000D02*
Y296154D01*
X326654Y272000D02*
X327000Y272346D01*
Y278500D01*
X323906D02*
X327000D01*
X318654Y283753D02*
X323906Y278500D01*
X318654Y283753D02*
Y284000D01*
X377583Y295500D02*
X387583Y285500D01*
X369362Y295500D02*
X377583D01*
X367500Y297362D02*
X369362Y295500D01*
X367500Y297362D02*
Y301000D01*
X366547Y301953D02*
X367500Y301000D01*
X359953Y301953D02*
X366547D01*
X356654Y298654D02*
X359953Y301953D01*
X356654Y298000D02*
Y298654D01*
X351346Y298000D02*
X356654D01*
X344605Y280000D02*
X348605Y284000D01*
X349500D01*
X294579Y325079D02*
X304000D01*
X324161Y318000D02*
X325500D01*
X319106Y323055D02*
X324161Y318000D01*
X304000Y325079D02*
X308921D01*
X310945Y323055D01*
X319106D01*
Y314000D02*
Y323055D01*
X363346Y292000D02*
Y298000D01*
X369500Y292000D02*
X376030D01*
X363346D02*
X369500D01*
X376030D02*
X386862Y281168D01*
Y271607D02*
Y281168D01*
X383500Y268245D02*
X386862Y271607D01*
X383500Y268000D02*
Y268245D01*
X391567Y325000D02*
X394567Y328000D01*
X387362Y325000D02*
X391567D01*
X378862Y316500D02*
X387362Y325000D01*
X358760Y316500D02*
X378862D01*
D22*
X401750Y315250D02*
X402000Y315500D01*
X399441Y330315D02*
Y345559D01*
X396000Y349000D02*
X399441Y345559D01*
X380000Y349000D02*
X396000D01*
X376500Y345500D02*
X380000Y349000D01*
X374000Y352000D02*
X396000D01*
X372000Y350000D02*
X374000Y352000D01*
X369500Y345500D02*
X376500D01*
X365000Y350000D02*
X369500Y345500D01*
X402000Y330315D02*
Y346000D01*
X396000Y352000D02*
X402000Y346000D01*
X148350Y321850D02*
Y323335D01*
X143335Y316835D02*
X148350Y321850D01*
X230000Y316654D02*
X230551Y317205D01*
X230000Y338342D02*
Y349000D01*
X222658Y331000D02*
X230000Y338342D01*
X215000Y331000D02*
X222658D01*
X201575Y270500D02*
X216000D01*
X228500Y283000D01*
X232000Y306500D02*
X234988Y309488D01*
X241008D01*
X228000Y292654D02*
X232154D01*
X234000Y294500D01*
Y299000D01*
X236535Y301535D01*
X241008D01*
X236925Y293425D02*
X241008D01*
X231925Y288425D02*
X236925Y293425D01*
X220575Y288425D02*
X231925D01*
X216500Y292500D02*
X220575Y288425D01*
X216500Y292500D02*
Y311500D01*
X131350Y268500D02*
X176000D01*
X123500D02*
X131350D01*
X176000D02*
X184350Y260150D01*
Y251969D02*
Y260150D01*
X118500Y273500D02*
X123500Y268500D01*
X118500Y273500D02*
Y305000D01*
X125000Y311500D01*
X148500D01*
X184350Y275650D01*
X189500Y270500D02*
X201575D01*
X184350Y275650D02*
X189500Y270500D01*
X184350Y275650D02*
Y322835D01*
X131850Y304500D02*
X147500D01*
X189500Y262500D01*
X214000D01*
X233000Y281500D01*
X264500D01*
X266627Y279373D01*
X291873D01*
X293500Y281000D01*
Y291500D02*
X295386Y293386D01*
X297614D01*
X286000Y295000D02*
X289500D01*
X280630Y289630D02*
X286000Y295000D01*
X253870Y289630D02*
X280630D01*
X243087Y346587D02*
X247500Y351000D01*
X243087Y346587D02*
Y348913D01*
Y346000D02*
Y346587D01*
X241000Y351000D02*
X243087Y348913D01*
X232000Y351000D02*
X241000D01*
X230000Y349000D02*
X232000Y351000D01*
X209000Y325000D02*
X215000Y331000D01*
X209000Y319000D02*
Y325000D01*
Y319000D02*
X216500Y311500D01*
X230551Y317205D02*
X241008D01*
X202075Y306500D02*
X202575Y307000D01*
X210500D01*
X260500Y343000D02*
X267000D01*
X256500Y339000D02*
X260500Y343000D01*
X256500Y321000D02*
Y339000D01*
X236000Y338000D02*
Y346000D01*
Y338000D02*
X238500Y335500D01*
X242500D01*
X249000Y329000D01*
Y325000D02*
Y329000D01*
X147500Y253319D02*
X148350Y252469D01*
X147500Y253319D02*
Y260500D01*
X249000Y303000D02*
Y312000D01*
Y303000D02*
X250500Y301500D01*
Y293000D02*
Y301500D01*
Y293000D02*
X253870Y289630D01*
X296083Y301417D02*
X304000D01*
X297614Y293386D02*
X304000D01*
X292000Y299000D02*
X297614Y293386D01*
X292000Y299000D02*
Y313000D01*
X286000Y319000D02*
X292000Y313000D01*
X248500Y289500D02*
Y298500D01*
X245465Y301535D02*
X248500Y298500D01*
X241008Y301535D02*
X245465D01*
X248500Y289500D02*
X250370Y287630D01*
X295130D01*
X297000Y289500D01*
X288000Y322447D02*
Y346000D01*
Y322447D02*
X301116Y309331D01*
X291622Y323808D02*
X298265Y317165D01*
X291622Y323808D02*
Y327622D01*
X294000Y330000D01*
X297000Y289500D02*
X315000D01*
X317751Y292251D01*
X318588D01*
X286000Y319000D02*
Y338500D01*
X278500Y346000D02*
X286000Y338500D01*
X250173Y346000D02*
X278500D01*
X247500Y351000D02*
X290121D01*
X295087Y346035D01*
Y346000D02*
Y346035D01*
X301116Y309331D02*
X304000D01*
X402000Y315500D02*
Y330315D01*
X411215Y279799D02*
X413513Y277500D01*
X406201Y279799D02*
X411215D01*
X403378Y282622D02*
X406201Y279799D01*
X397570Y288500D02*
X403378Y282692D01*
X388213Y288500D02*
X397570D01*
X403378Y282622D02*
Y282692D01*
X413513Y277500D02*
X436508D01*
X408000Y264654D02*
Y272000D01*
Y264654D02*
X408654Y264000D01*
X413193Y249307D02*
X418000D01*
X410500Y252000D02*
X413193Y249307D01*
X408000Y252000D02*
X410500D01*
X316500Y279500D02*
X318500Y277500D01*
X312000Y279500D02*
X316500D01*
X318500Y277000D02*
Y277500D01*
X371000Y304500D02*
X372394Y303106D01*
X373606D01*
X388213Y288500D01*
X334000Y295500D02*
X344500D01*
X332000Y297500D02*
X334000Y295500D01*
X329328Y297500D02*
X332000D01*
X307698Y297720D02*
X329109D01*
X304000Y301417D02*
X307698Y297720D01*
X534000Y274000D02*
X535500Y275500D01*
X526000Y274000D02*
X534000D01*
X315500Y300500D02*
X343500D01*
X313500Y302500D02*
X315500Y300500D01*
X313500Y302500D02*
Y305500D01*
X309669Y309331D02*
X313500Y305500D01*
X304000Y309331D02*
X309669D01*
X336000Y258000D02*
X337912Y259912D01*
X328604Y258000D02*
X336000D01*
X326500Y260104D02*
X328604Y258000D01*
X326516Y260120D02*
Y263984D01*
X324000Y266500D02*
X326516Y263984D01*
X326500Y260104D02*
X326516Y260120D01*
X313500Y266500D02*
X324000D01*
X264000Y266172D02*
X267672Y262500D01*
X266000Y267000D02*
X268500Y264500D01*
X314117D01*
X267672Y262500D02*
X313288D01*
X313500Y262288D01*
X314117Y264500D02*
X315500Y263117D01*
X312000Y268000D02*
X313500Y266500D01*
Y259172D02*
Y262288D01*
X357500Y255500D02*
X363500Y261500D01*
X320000Y255500D02*
X357500D01*
X315500Y260000D02*
X320000Y255500D01*
X358328Y253500D02*
X365500Y260672D01*
X319172Y253500D02*
X358328D01*
X313500Y259172D02*
X319172Y253500D01*
X429500Y314500D02*
X430500Y313500D01*
X437008D01*
X310000Y281500D02*
X312000Y279500D01*
X300000Y281500D02*
X310000D01*
X295870Y285630D02*
X300000Y281500D01*
X304000Y285630D02*
X305838Y287469D01*
X324031D01*
X325346Y286154D01*
Y284000D02*
Y286154D01*
X241008Y285630D02*
X295870D01*
X503720Y250000D02*
X512500Y258780D01*
Y317000D01*
X530500D01*
X476000D02*
X512500D01*
X530500D02*
X536000Y311500D01*
X468500Y324500D02*
X476000Y317000D01*
X468500Y324500D02*
Y336614D01*
X460122D02*
X468500D01*
X437008Y313500D02*
X460122Y336614D01*
X506000Y326500D02*
Y334614D01*
X504500Y336114D02*
X506000Y334614D01*
X298265Y317165D02*
X304000D01*
X461720Y256500D02*
X467720Y250500D01*
X461000Y256500D02*
X461720D01*
X370500Y287000D02*
X375000Y284000D01*
X356500Y287000D02*
X370500D01*
X356500D02*
Y291846D01*
X304386Y293000D02*
X313082D01*
X333500Y290500D02*
X343000D01*
X328280Y295720D02*
X333500Y290500D01*
X315802Y295720D02*
X328280D01*
X313082Y293000D02*
X315802Y295720D01*
X304000Y293386D02*
X304386Y293000D01*
X241126Y270000D02*
X262000D01*
X264000Y268000D01*
Y266172D02*
Y268000D01*
X365500Y260672D02*
Y270721D01*
X366779Y272000D01*
X370654D01*
X241185Y277500D02*
X264000D01*
X266000Y275500D01*
Y267000D02*
Y275500D01*
X315500Y260000D02*
Y263117D01*
X363500Y261500D02*
Y275500D01*
X366000Y278000D01*
X370654D01*
X377346Y272000D02*
X380000D01*
X381000Y273000D01*
X383500D01*
X377346Y278000D02*
X383500D01*
X306000Y268000D02*
X312000D01*
X337912Y259912D02*
Y280000D01*
X304000Y270000D02*
X306000Y268000D01*
X331000Y274346D02*
X333346Y272000D01*
X331000Y274346D02*
Y286532D01*
X325281Y292251D02*
X331000Y286532D01*
X408000Y272000D02*
Y272500D01*
X398000Y319000D02*
X399441Y320441D01*
Y330315D01*
X473720Y244000D02*
Y251500D01*
Y252500D02*
Y256000D01*
X474220Y252000D02*
X495720D01*
X475720Y242000D02*
X495220D01*
X474220Y248000D02*
X495720D01*
X495220Y242000D02*
X497720D01*
X473720Y256000D02*
X495720D01*
X475720Y258000D02*
X497720D01*
X475720Y254000D02*
X497720D01*
Y258000D01*
X473720Y240000D02*
X495720D01*
X473720Y256000D02*
Y260000D01*
X495720D01*
X526000Y281500D02*
Y303500D01*
Y281500D02*
X530000D01*
X546000D02*
Y303500D01*
X528000Y305500D02*
X532000D01*
Y283500D02*
Y305500D01*
X528000Y283500D02*
Y305500D01*
X530000Y281500D02*
Y303500D01*
X544000Y303000D02*
Y305500D01*
X538000Y282000D02*
Y303500D01*
X544000Y283500D02*
Y303000D01*
X534000Y282000D02*
Y303500D01*
X530000Y281500D02*
X533500D01*
X534500D02*
X542000D01*
X435508Y283500D02*
X443008D01*
X431008D02*
X434508D01*
X435008Y284000D02*
Y305500D01*
X445008Y285500D02*
Y305000D01*
X439008Y284000D02*
Y305500D01*
X445008Y305000D02*
Y307500D01*
X431008Y283500D02*
Y305500D01*
X429008Y285500D02*
Y307500D01*
X433008Y285500D02*
Y307500D01*
X429008D02*
X433008D01*
X447008Y283500D02*
Y305500D01*
X427008Y283500D02*
X431008D01*
X427008D02*
Y305500D01*
X476500Y326614D02*
X498500D01*
Y330614D01*
X476500Y346614D02*
X498500D01*
X474500Y328614D02*
Y332614D01*
X496500D01*
X474500Y328614D02*
X496500D01*
X476500Y330614D02*
X498500D01*
X474500Y344614D02*
X477000D01*
X476500Y338614D02*
X498000D01*
X477000Y344614D02*
X496500D01*
X476500Y334614D02*
X498000D01*
X498500Y330614D02*
Y334114D01*
Y335114D02*
Y342614D01*
X154350Y245969D02*
Y253469D01*
Y254469D02*
Y257969D01*
X154850Y253969D02*
X176350D01*
X156350Y243969D02*
X175850D01*
X154850Y249969D02*
X176350D01*
X175850Y243969D02*
X178350D01*
X154350Y257969D02*
X176350D01*
X156350Y259969D02*
X178350D01*
X156350Y255969D02*
X178350D01*
Y259969D01*
X154350Y241969D02*
X176350D01*
X154350Y257969D02*
Y261969D01*
X176350D01*
X141350Y276500D02*
Y298500D01*
X137350D02*
X141350D01*
X121350Y276500D02*
Y298500D01*
X135350Y274500D02*
X139350D01*
X135350D02*
Y296500D01*
X139350Y274500D02*
Y296500D01*
X137350Y276500D02*
Y298500D01*
X123350Y274500D02*
Y277000D01*
X129350Y276500D02*
Y298000D01*
X123350Y277000D02*
Y296500D01*
X133350Y276500D02*
Y298000D01*
X133850Y298500D02*
X137350D01*
X125350D02*
X132850D01*
X195575Y300500D02*
X203075D01*
X204075D02*
X207575D01*
X203575Y278500D02*
Y300000D01*
X193575Y279000D02*
Y298500D01*
X199575Y278500D02*
Y300000D01*
X193575Y276500D02*
Y279000D01*
X207575Y278500D02*
Y300500D01*
X209575Y276500D02*
Y298500D01*
X205575Y276500D02*
Y298500D01*
Y276500D02*
X209575D01*
X191575Y278500D02*
Y300500D01*
X207575D02*
X211575D01*
Y278500D02*
Y300500D01*
X154350Y332835D02*
X176350D01*
X154350Y328835D02*
Y332835D01*
Y312835D02*
X176350D01*
X178350Y326835D02*
Y330835D01*
X156350Y326835D02*
X178350D01*
X156350Y330835D02*
X178350D01*
X154350Y328835D02*
X176350D01*
X175850Y314835D02*
X178350D01*
X154850Y320835D02*
X176350D01*
X156350Y314835D02*
X175850D01*
X154850Y324835D02*
X176350D01*
X154350Y325335D02*
Y328835D01*
Y316835D02*
Y324335D01*
X125350Y276500D02*
Y298500D01*
X133350Y298000D02*
X133850Y298500D01*
X121350D02*
X125350D01*
X126350D01*
X131350D02*
X133350D01*
X133850D01*
X134850D01*
X473720Y250000D02*
Y252000D01*
Y252500D01*
Y253500D01*
Y244000D02*
X495720D01*
X473720Y240000D02*
Y244000D01*
Y245000D01*
Y252500D02*
X474220Y252000D01*
X437008Y307500D02*
Y313500D01*
X441008Y285500D02*
Y307500D01*
X433008D02*
X437008D01*
X441008D01*
X445008D01*
X437008Y285500D02*
Y307500D01*
X474500Y332614D02*
Y336614D01*
Y340614D01*
Y344614D01*
X468500Y336614D02*
X474500D01*
X496500D01*
X474500Y340614D02*
X496500D01*
X475720Y246000D02*
X497720D01*
Y242000D02*
Y246000D01*
Y250000D01*
Y254000D01*
X475720Y250000D02*
X497720D01*
X503720D01*
X536000Y283500D02*
Y305500D01*
X540000Y283500D02*
Y305500D01*
X532000D02*
X536000D01*
X540000D01*
X544000D01*
X536000D02*
Y311500D01*
X154350Y241969D02*
Y245969D01*
Y246969D01*
Y251969D02*
Y253969D01*
Y254469D01*
Y255469D01*
Y245969D02*
X176350D01*
X154350Y254469D02*
X154850Y253969D01*
X433508Y283500D02*
X434508D01*
X435008D01*
X437008D01*
X434508D02*
X435008Y284000D01*
X442008Y283500D02*
X443008D01*
X447008D01*
X443008D02*
Y305500D01*
X154350Y312835D02*
Y316835D01*
Y317835D01*
Y316835D02*
X176350D01*
X154350Y322835D02*
Y324835D01*
Y325335D01*
Y326335D01*
Y325335D02*
X154850Y324835D01*
X532500Y281500D02*
X533500D01*
X534000D01*
X536000D01*
X533500D02*
X534000Y282000D01*
X541000Y281500D02*
X542000D01*
X546000D01*
X542000D02*
Y303500D01*
X195575Y278500D02*
Y300500D01*
X203575Y300000D02*
X204075Y300500D01*
X191575D02*
X195575D01*
X196575D01*
X201575D02*
X203575D01*
X204075D01*
X205075D01*
X498000Y334614D02*
X498500Y334114D01*
Y333114D02*
Y334114D01*
Y334614D01*
Y336614D01*
X476500Y342614D02*
X498500D01*
Y341614D02*
Y342614D01*
Y346614D01*
X131350Y268500D02*
Y274500D01*
X127350D02*
Y296500D01*
X156350Y247969D02*
X178350D01*
X156350Y251969D02*
X178350D01*
X123350Y274500D02*
X127350D01*
X131350D01*
X135350D01*
X131350D02*
Y296500D01*
X156350Y318835D02*
X178350D01*
X156350Y322835D02*
X178350D01*
Y251969D02*
X184350D01*
X178350Y243969D02*
Y247969D01*
Y251969D01*
Y255969D01*
X201575Y270500D02*
Y276500D01*
X178350Y322835D02*
X184350D01*
X178350Y314835D02*
Y318835D01*
Y322835D01*
Y326835D01*
X193575Y276500D02*
X197575D01*
X201575D01*
X205575D01*
X197575D02*
Y298500D01*
X201575Y276500D02*
Y298500D01*
X133350D02*
Y304500D01*
X467720Y252000D02*
X473720D01*
X148350Y253969D02*
X154350D01*
X435008Y277500D02*
Y283500D01*
X148350Y324835D02*
X154350D01*
X534000Y275500D02*
Y281500D01*
X203575Y300500D02*
Y306500D01*
X498500Y334614D02*
X504500D01*
D23*
X282000Y302742D02*
X282237Y302505D01*
Y296237D02*
Y302505D01*
X279500Y293500D02*
X282237Y296237D01*
X407118Y330315D02*
X409500D01*
X394567Y328000D02*
X396882Y330315D01*
D24*
X358000Y343000D02*
D03*
D25*
X409480Y335071D02*
D03*
X394520D02*
D03*
D26*
X236000Y346000D02*
D03*
X288000D02*
D03*
D27*
X408000Y272000D02*
D03*
Y252000D02*
D03*
D28*
X275000Y341000D02*
D03*
X268500Y282500D02*
D03*
X124000Y303500D02*
D03*
X296000Y307000D02*
D03*
X295500Y275000D02*
D03*
X317500Y250500D02*
D03*
X190500Y337000D02*
D03*
X218000Y316000D02*
D03*
X154000Y283000D02*
D03*
X231000Y271500D02*
D03*
X356000Y276500D02*
D03*
X326000Y250000D02*
D03*
X373500Y295500D02*
D03*
X352500Y312000D02*
D03*
X412000Y288803D02*
D03*
X401750Y315250D02*
D03*
X143335Y316835D02*
D03*
X228500Y283000D02*
D03*
X232000Y306500D02*
D03*
X293500Y281000D02*
D03*
Y291500D02*
D03*
X210500Y307000D02*
D03*
X267000Y343000D02*
D03*
X249000Y325000D02*
D03*
X256500Y321000D02*
D03*
X147500Y260500D02*
D03*
X282000Y302742D02*
D03*
X279500Y293500D02*
D03*
X249000Y312000D02*
D03*
X289500Y295000D02*
D03*
X296083Y301417D02*
D03*
X248500Y289500D02*
D03*
X223500Y319500D02*
D03*
X325500Y318000D02*
D03*
X371000Y304500D02*
D03*
X344500Y295500D02*
D03*
X526000Y274000D02*
D03*
X343500Y300500D02*
D03*
X331500Y263500D02*
D03*
Y249000D02*
D03*
X429500Y314500D02*
D03*
X318500Y277000D02*
D03*
X506000Y326500D02*
D03*
X294000Y330000D02*
D03*
X461000Y256500D02*
D03*
X375000Y284000D02*
D03*
X356500Y287000D02*
D03*
X343000Y290500D02*
D03*
X312000Y268000D02*
D03*
X327000Y278500D02*
D03*
X349500Y284000D02*
D03*
X294500Y325000D02*
D03*
X369500Y292000D02*
D03*
X383500Y278000D02*
D03*
Y273000D02*
D03*
Y268000D02*
D03*
X398000Y319000D02*
D03*
X400500Y281500D02*
D03*
M02*
