%FSLAX25Y25*%
%MOIN*%
G70*
G01*
G75*
G04 Layer_Color=8421504*
%ADD10C,0.05000*%
%ADD11R,0.03937X0.04331*%
%ADD12R,0.04331X0.03937*%
%ADD13R,0.07874X0.03937*%
%ADD14R,0.00984X0.11811*%
%ADD15R,0.07480X0.07480*%
%ADD16R,0.06890X0.04331*%
%ADD17R,0.06890X0.04331*%
%ADD18R,0.06890X0.13583*%
%ADD19R,0.05906X0.05118*%
%ADD20C,0.06000*%
%ADD21C,0.01969*%
%ADD22C,0.01000*%
%ADD23C,0.01181*%
%ADD24R,0.05000X0.04724*%
%ADD25C,0.02500*%
%ADD26R,0.05000X0.05000*%
%ADD27C,0.04724*%
%ADD28C,0.02756*%
%ADD29R,0.11811X0.03937*%
%ADD30R,0.05709X0.02165*%
%ADD31R,0.05709X0.02165*%
%ADD32R,0.03740X0.03937*%
%ADD33R,0.03937X0.03740*%
%ADD34O,0.09843X0.02756*%
%ADD35R,0.03937X0.11811*%
%ADD36C,0.00984*%
%ADD37C,0.00787*%
%ADD38C,0.00500*%
D10*
X358000Y350000D02*
D03*
D11*
X230000Y323346D02*
D03*
Y316654D02*
D03*
X228000Y299346D02*
D03*
Y292654D02*
D03*
X418000Y249307D02*
D03*
Y256000D02*
D03*
D12*
X377346Y278000D02*
D03*
X370654D02*
D03*
X377346Y272000D02*
D03*
X370654D02*
D03*
X318588Y292251D02*
D03*
X325281D02*
D03*
X344654Y272000D02*
D03*
X351346D02*
D03*
X333346D02*
D03*
X326654D02*
D03*
X363346Y298000D02*
D03*
X356654D02*
D03*
Y292000D02*
D03*
X363346D02*
D03*
X337912Y280000D02*
D03*
X344605D02*
D03*
X325346Y284000D02*
D03*
X318654D02*
D03*
X408654Y264000D02*
D03*
X415346D02*
D03*
D13*
X304000Y317165D02*
D03*
Y309331D02*
D03*
Y301417D02*
D03*
Y293386D02*
D03*
Y285630D02*
D03*
Y277756D02*
D03*
Y270000D02*
D03*
X241008Y269882D02*
D03*
Y277677D02*
D03*
Y285630D02*
D03*
Y293425D02*
D03*
Y301535D02*
D03*
Y309488D02*
D03*
Y317205D02*
D03*
Y325236D02*
D03*
X304000Y325079D02*
D03*
D14*
X407118Y330315D02*
D03*
X404559D02*
D03*
X402000D02*
D03*
X399441D02*
D03*
X396882D02*
D03*
D15*
X417551Y343535D02*
D03*
X386449D02*
D03*
D16*
X319106Y323055D02*
D03*
D17*
Y314000D02*
D03*
Y304945D02*
D03*
D18*
X344894Y314000D02*
D03*
D19*
X360000Y308260D02*
D03*
Y315740D02*
D03*
D20*
X503720Y250000D02*
D03*
X467720Y250500D02*
D03*
X535500Y275500D02*
D03*
X536000Y311500D02*
D03*
X437008Y313500D02*
D03*
X436508Y277500D02*
D03*
X504500Y336114D02*
D03*
X468500Y336614D02*
D03*
X184350Y251969D02*
D03*
X148350Y252469D02*
D03*
X131850Y304500D02*
D03*
X131350Y268500D02*
D03*
X201575Y270500D02*
D03*
X202075Y306500D02*
D03*
X148350Y323335D02*
D03*
X184350Y322835D02*
D03*
M02*
