%FSLAX25Y25*%
%MOIN*%
G70*
G01*
G75*
G04 Layer_Color=255*
%ADD10C,0.05000*%
%ADD11R,0.03937X0.04331*%
%ADD12R,0.04331X0.03937*%
%ADD13R,0.07874X0.03937*%
%ADD14R,0.00984X0.11811*%
%ADD15R,0.07480X0.07480*%
%ADD16R,0.06890X0.04331*%
%ADD17R,0.06890X0.04331*%
%ADD18R,0.06890X0.13583*%
%ADD19R,0.05906X0.05118*%
%ADD20C,0.06000*%
%ADD21C,0.01969*%
%ADD22C,0.01000*%
%ADD23C,0.01181*%
%ADD24R,0.05000X0.04724*%
%ADD25C,0.02500*%
%ADD26R,0.05000X0.05000*%
%ADD27C,0.04724*%
%ADD28C,0.02756*%
%ADD29R,0.11811X0.03937*%
%ADD30R,0.05709X0.02165*%
%ADD31R,0.05709X0.02165*%
%ADD32R,0.03740X0.03937*%
%ADD33R,0.03937X0.03740*%
%ADD34O,0.09843X0.02756*%
%ADD35R,0.03937X0.11811*%
D10*
X365000Y343000D02*
D03*
X372000Y350000D02*
D03*
X365000D02*
D03*
X250173Y346000D02*
D03*
X243087D02*
D03*
X295087D02*
D03*
X302173D02*
D03*
D11*
X272000Y314654D02*
D03*
Y321346D02*
D03*
X274000Y284654D02*
D03*
Y291346D02*
D03*
X272000Y307346D02*
D03*
Y300654D02*
D03*
Y266654D02*
D03*
Y273346D02*
D03*
D12*
X254654Y314000D02*
D03*
X261346D02*
D03*
X254654Y328000D02*
D03*
X261346D02*
D03*
D20*
X322016Y244087D02*
D03*
Y262000D02*
D03*
X348000D02*
D03*
Y244087D02*
D03*
D24*
X358000Y343000D02*
D03*
D25*
X409480Y335071D02*
D03*
X394520D02*
D03*
D26*
X236000Y346000D02*
D03*
X288000D02*
D03*
D27*
X408000Y272000D02*
D03*
Y252000D02*
D03*
D29*
X322000Y312000D02*
D03*
X339625D02*
D03*
X322000Y284000D02*
D03*
X339625D02*
D03*
D30*
X262232Y300260D02*
D03*
Y307740D02*
D03*
X253768D02*
D03*
Y304000D02*
D03*
D31*
Y300260D02*
D03*
D32*
X289740Y269571D02*
D03*
X282260D02*
D03*
X286000Y278429D02*
D03*
D33*
X253571Y286260D02*
D03*
Y293740D02*
D03*
X262429Y290000D02*
D03*
D34*
X391583Y281500D02*
D03*
Y276500D02*
D03*
Y271500D02*
D03*
Y266500D02*
D03*
Y261500D02*
D03*
Y256500D02*
D03*
Y251500D02*
D03*
Y246500D02*
D03*
X364417Y281500D02*
D03*
Y276500D02*
D03*
Y271500D02*
D03*
Y266500D02*
D03*
Y261500D02*
D03*
Y256500D02*
D03*
Y251500D02*
D03*
Y246500D02*
D03*
D35*
X288000Y322000D02*
D03*
Y304375D02*
D03*
M02*
