%FSLAX25Y25*%
%MOIN*%
G70*
G01*
G75*
G04 Layer_Color=16711935*
%ADD10C,0.05000*%
%ADD11R,0.03937X0.04331*%
%ADD12R,0.04331X0.03937*%
%ADD13R,0.07874X0.03937*%
%ADD14R,0.00984X0.11811*%
%ADD15R,0.07480X0.07480*%
%ADD16R,0.06890X0.04331*%
%ADD17R,0.06890X0.04331*%
%ADD18R,0.06890X0.13583*%
%ADD19R,0.05906X0.05118*%
%ADD20C,0.06000*%
%ADD21C,0.01969*%
%ADD22C,0.01000*%
%ADD23C,0.01181*%
%ADD24R,0.05000X0.04724*%
%ADD25C,0.02500*%
%ADD26R,0.05000X0.05000*%
%ADD27C,0.04724*%
%ADD28C,0.02756*%
%ADD29R,0.11811X0.03937*%
%ADD30R,0.05709X0.02165*%
%ADD31R,0.05709X0.02165*%
%ADD32R,0.03740X0.03937*%
%ADD33R,0.03937X0.03740*%
%ADD34O,0.09843X0.02756*%
%ADD35R,0.03937X0.11811*%
%ADD36C,0.00984*%
%ADD37C,0.00787*%
%ADD38C,0.00500*%
%ADD39R,0.26000X0.22000*%
%ADD40R,0.22000X0.26000*%
%ADD41C,0.05800*%
%ADD42R,0.04737X0.05131*%
%ADD43R,0.05131X0.04737*%
%ADD44R,0.08674X0.04737*%
%ADD45R,0.01784X0.12611*%
%ADD46R,0.08280X0.08280*%
%ADD47R,0.07690X0.05131*%
%ADD48R,0.07690X0.05131*%
%ADD49R,0.07690X0.14383*%
%ADD50R,0.06706X0.05918*%
%ADD51C,0.06800*%
%ADD52R,0.05800X0.05524*%
%ADD53C,0.03300*%
%ADD54R,0.05800X0.05800*%
%ADD55C,0.05524*%
%ADD56C,0.03556*%
%ADD57R,0.12611X0.04737*%
%ADD58R,0.06509X0.02965*%
%ADD59R,0.06509X0.02965*%
%ADD60R,0.04540X0.04737*%
%ADD61R,0.04737X0.04540*%
%ADD62O,0.10642X0.03556*%
%ADD63R,0.04737X0.12611*%
D41*
X365000Y343000D02*
D03*
X372000Y350000D02*
D03*
X365000D02*
D03*
X250173Y346000D02*
D03*
X243087D02*
D03*
X295087D02*
D03*
X302173D02*
D03*
D42*
X272000Y314654D02*
D03*
Y321346D02*
D03*
X274000Y284654D02*
D03*
Y291346D02*
D03*
X272000Y307346D02*
D03*
Y300654D02*
D03*
Y266654D02*
D03*
Y273346D02*
D03*
D43*
X254654Y314000D02*
D03*
X261346D02*
D03*
X254654Y328000D02*
D03*
X261346D02*
D03*
D51*
X322016Y244087D02*
D03*
Y262000D02*
D03*
X348000D02*
D03*
Y244087D02*
D03*
D52*
X358000Y343000D02*
D03*
D53*
X409480Y335071D02*
D03*
X394520D02*
D03*
D54*
X236000Y346000D02*
D03*
X288000D02*
D03*
D55*
X408000Y272000D02*
D03*
Y252000D02*
D03*
D56*
X275000Y341000D02*
D03*
X268500Y282500D02*
D03*
X124000Y303500D02*
D03*
X296000Y307000D02*
D03*
X295500Y275000D02*
D03*
X317500Y250500D02*
D03*
X190500Y337000D02*
D03*
X218000Y316000D02*
D03*
X154000Y283000D02*
D03*
X231000Y271500D02*
D03*
X356000Y276500D02*
D03*
X326000Y250000D02*
D03*
X373500Y295500D02*
D03*
X352500Y312000D02*
D03*
X412000Y288803D02*
D03*
X401750Y315250D02*
D03*
X143335Y316835D02*
D03*
X228500Y283000D02*
D03*
X232000Y306500D02*
D03*
X293500Y281000D02*
D03*
Y291500D02*
D03*
X210500Y307000D02*
D03*
X267000Y343000D02*
D03*
X249000Y325000D02*
D03*
X256500Y321000D02*
D03*
X147500Y260500D02*
D03*
X282000Y302742D02*
D03*
X279500Y293500D02*
D03*
X249000Y312000D02*
D03*
X289500Y295000D02*
D03*
X296083Y301417D02*
D03*
X248500Y289500D02*
D03*
X223500Y319500D02*
D03*
X325500Y318000D02*
D03*
X371000Y304500D02*
D03*
X344500Y295500D02*
D03*
X526000Y274000D02*
D03*
X343500Y300500D02*
D03*
X331500Y263500D02*
D03*
Y249000D02*
D03*
X429500Y314500D02*
D03*
X318500Y277000D02*
D03*
X506000Y326500D02*
D03*
X294000Y330000D02*
D03*
X461000Y256500D02*
D03*
X375000Y284000D02*
D03*
X356500Y287000D02*
D03*
X343000Y290500D02*
D03*
X312000Y268000D02*
D03*
X327000Y278500D02*
D03*
X349500Y284000D02*
D03*
X294500Y325000D02*
D03*
X369500Y292000D02*
D03*
X383500Y278000D02*
D03*
Y273000D02*
D03*
Y268000D02*
D03*
X398000Y319000D02*
D03*
X400500Y281500D02*
D03*
D57*
X322000Y312000D02*
D03*
X339625D02*
D03*
X322000Y284000D02*
D03*
X339625D02*
D03*
D58*
X262232Y300260D02*
D03*
Y307740D02*
D03*
X253768D02*
D03*
Y304000D02*
D03*
D59*
Y300260D02*
D03*
D60*
X289740Y269571D02*
D03*
X282260D02*
D03*
X286000Y278429D02*
D03*
D61*
X253571Y286260D02*
D03*
Y293740D02*
D03*
X262429Y290000D02*
D03*
D62*
X391583Y281500D02*
D03*
Y276500D02*
D03*
Y271500D02*
D03*
Y266500D02*
D03*
Y261500D02*
D03*
Y256500D02*
D03*
Y251500D02*
D03*
Y246500D02*
D03*
X364417Y281500D02*
D03*
Y276500D02*
D03*
Y271500D02*
D03*
Y266500D02*
D03*
Y261500D02*
D03*
Y256500D02*
D03*
Y251500D02*
D03*
Y246500D02*
D03*
D63*
X288000Y322000D02*
D03*
Y304375D02*
D03*
M02*
