%FSLAX25Y25*%
%MOIN*%
G70*
G01*
G75*
G04 Layer_Physical_Order=1*
G04 Layer_Color=255*
%ADD10C,0.06000*%
%ADD11C,0.01000*%
%ADD12R,0.05000X0.05000*%
%ADD13C,0.05000*%
D10*
X199000Y290000D02*
D03*
X236000D02*
D03*
Y352000D02*
D03*
X199000D02*
D03*
D11*
X237000Y330000D02*
Y351000D01*
X236000Y352000D02*
X237000Y351000D01*
X199000Y352000D02*
X200000Y351000D01*
X213913Y315000D02*
X218913Y320000D01*
X197000Y292000D02*
Y312000D01*
Y292000D02*
X199000Y290000D01*
X197000Y312000D02*
X200000Y315000D01*
X213913D01*
X200000D02*
Y351000D01*
X211827Y320000D02*
Y322327D01*
X215000Y325500D01*
X232500D01*
X237000Y330000D01*
X226000Y320000D02*
X232500D01*
X236000Y316500D01*
Y290000D02*
Y316500D01*
X205500Y270000D02*
X231500D01*
Y274000D01*
X203500Y308000D02*
X229500D01*
X203500Y304000D02*
Y308000D01*
X205500Y306000D02*
X231500D01*
Y302000D02*
Y306000D01*
X203500Y300000D02*
Y304000D01*
X231500Y294000D02*
Y302000D01*
X199000Y291000D02*
X200000Y292000D01*
X203500D01*
X231500Y278000D02*
Y283000D01*
X225000Y282000D02*
X231500D01*
Y290000D01*
X203500Y296000D02*
Y300000D01*
Y292000D02*
Y293500D01*
Y290000D02*
Y296000D01*
Y280000D02*
Y285000D01*
Y280000D02*
X229500D01*
X203500Y284000D02*
Y291500D01*
X232500Y290000D02*
X236000D01*
X203500Y276000D02*
Y280000D01*
Y276000D02*
X229500D01*
X231500Y290000D02*
Y294000D01*
X205500Y278000D02*
X231500D01*
X205500Y282000D02*
X225000D01*
X203500Y284000D02*
X229500D01*
X205500Y286000D02*
X231500D01*
X204000Y288000D02*
X229500D01*
X205500Y290000D02*
X232500D01*
X204000Y292000D02*
X229500D01*
X205500Y294000D02*
X231500D01*
X203500Y296000D02*
X229500D01*
X205500Y298000D02*
X231500D01*
X203500Y300000D02*
X229500D01*
X205500Y302000D02*
X231500D01*
X203500Y304000D02*
X229500D01*
X231500Y274000D02*
Y278000D01*
X205500Y274000D02*
X231500D01*
X203500Y272000D02*
X229500D01*
X203500D02*
Y276000D01*
Y334000D02*
Y338000D01*
Y334000D02*
X229500D01*
X205500Y336000D02*
X231500D01*
Y340000D01*
X203500Y366000D02*
X229500D01*
X205500Y364000D02*
X231500D01*
X203500Y362000D02*
X229500D01*
X205500Y360000D02*
X231500D01*
X203500Y358000D02*
X229500D01*
X205500Y356000D02*
X231500D01*
X204000Y354000D02*
X229500D01*
X205500Y352000D02*
X232500D01*
X204000Y350000D02*
X229500D01*
X205500Y348000D02*
X231500D01*
X203500Y346000D02*
X229500D01*
X205500Y344000D02*
X225000D01*
X205500Y340000D02*
X231500D01*
Y352000D02*
Y356000D01*
X203500Y338000D02*
X229500D01*
X203500D02*
Y342000D01*
X232500Y352000D02*
X236000D01*
X203500Y346000D02*
Y353500D01*
Y342000D02*
X229500D01*
X203500D02*
Y347000D01*
Y352000D02*
Y358000D01*
Y354000D02*
Y355500D01*
Y358000D02*
Y362000D01*
X231500Y344000D02*
Y352000D01*
X225000Y344000D02*
X231500D01*
Y340000D02*
Y345000D01*
X200000Y354000D02*
X203500D01*
X199000Y353000D02*
X200000Y354000D01*
X231500Y356000D02*
Y364000D01*
X203500Y362000D02*
Y366000D01*
X231500Y364000D02*
Y368000D01*
X205500D02*
X231500D01*
X203500Y366000D02*
Y370000D01*
X229500D01*
X231500Y332000D02*
Y336000D01*
X205500Y332000D02*
X231500D01*
D12*
X226000Y320000D02*
D03*
D13*
X218913D02*
D03*
X211827D02*
D03*
M02*
