%FSLAX25Y25*%
%MOIN*%
G70*
G01*
G75*
G04 Layer_Color=8388736*
%ADD10C,0.05000*%
%ADD11R,0.03937X0.04331*%
%ADD12R,0.04331X0.03937*%
%ADD13R,0.07874X0.03937*%
%ADD14R,0.00984X0.11811*%
%ADD15R,0.07480X0.07480*%
%ADD16R,0.06890X0.04331*%
%ADD17R,0.06890X0.04331*%
%ADD18R,0.06890X0.13583*%
%ADD19R,0.05906X0.05118*%
%ADD20C,0.06000*%
%ADD21C,0.01969*%
%ADD22C,0.01000*%
%ADD23C,0.01181*%
%ADD24R,0.05000X0.04724*%
%ADD25C,0.02500*%
%ADD26R,0.05000X0.05000*%
%ADD27C,0.04724*%
%ADD28C,0.02756*%
%ADD29R,0.11811X0.03937*%
%ADD30R,0.05709X0.02165*%
%ADD31R,0.05709X0.02165*%
%ADD32R,0.03740X0.03937*%
%ADD33R,0.03937X0.03740*%
%ADD34O,0.09843X0.02756*%
%ADD35R,0.03937X0.11811*%
%ADD36C,0.00984*%
%ADD37C,0.00787*%
%ADD38C,0.00500*%
%ADD39R,0.26000X0.22000*%
%ADD40R,0.22000X0.26000*%
%ADD41C,0.05800*%
%ADD42R,0.04737X0.05131*%
%ADD43R,0.05131X0.04737*%
%ADD44R,0.08674X0.04737*%
%ADD45R,0.01784X0.12611*%
%ADD46R,0.08280X0.08280*%
%ADD47R,0.07690X0.05131*%
%ADD48R,0.07690X0.05131*%
%ADD49R,0.07690X0.14383*%
%ADD50R,0.06706X0.05918*%
%ADD51C,0.06800*%
%ADD52R,0.05800X0.05524*%
%ADD53C,0.03300*%
%ADD54R,0.05800X0.05800*%
%ADD55C,0.05524*%
%ADD56C,0.03556*%
D39*
X485720Y250000D02*
D03*
X486500Y336614D02*
D03*
X166350Y251969D02*
D03*
Y322835D02*
D03*
D40*
X536000Y293500D02*
D03*
X437008Y295501D02*
D03*
X131350Y286500D02*
D03*
X201575Y288500D02*
D03*
D41*
X358000Y350000D02*
D03*
X365000Y343000D02*
D03*
X372000Y350000D02*
D03*
X365000D02*
D03*
X250173Y346000D02*
D03*
X243087D02*
D03*
X295087D02*
D03*
X302173D02*
D03*
D42*
X230000Y323346D02*
D03*
Y316654D02*
D03*
X228000Y299346D02*
D03*
Y292654D02*
D03*
X418000Y249307D02*
D03*
Y256000D02*
D03*
D43*
X377346Y278000D02*
D03*
X370654D02*
D03*
X377346Y272000D02*
D03*
X370654D02*
D03*
X318588Y292251D02*
D03*
X325281D02*
D03*
X344654Y272000D02*
D03*
X351346D02*
D03*
X333346D02*
D03*
X326654D02*
D03*
X363346Y298000D02*
D03*
X356654D02*
D03*
Y292000D02*
D03*
X363346D02*
D03*
X337912Y280000D02*
D03*
X344605D02*
D03*
X325346Y284000D02*
D03*
X318654D02*
D03*
X408654Y264000D02*
D03*
X415346D02*
D03*
D44*
X304000Y317165D02*
D03*
Y309331D02*
D03*
Y301417D02*
D03*
Y293386D02*
D03*
Y285630D02*
D03*
Y277756D02*
D03*
Y270000D02*
D03*
X241008Y269882D02*
D03*
Y277677D02*
D03*
Y285630D02*
D03*
Y293425D02*
D03*
Y301535D02*
D03*
Y309488D02*
D03*
Y317205D02*
D03*
Y325236D02*
D03*
X304000Y325079D02*
D03*
D45*
X407118Y330315D02*
D03*
X404559D02*
D03*
X402000D02*
D03*
X399441D02*
D03*
X396882D02*
D03*
D46*
X417551Y343535D02*
D03*
X386449D02*
D03*
D47*
X319106Y323055D02*
D03*
D48*
Y314000D02*
D03*
Y304945D02*
D03*
D49*
X344894Y314000D02*
D03*
D50*
X360000Y308260D02*
D03*
Y315740D02*
D03*
D51*
X503720Y250000D02*
D03*
X467720Y250500D02*
D03*
X535500Y275500D02*
D03*
X536000Y311500D02*
D03*
X437008Y313500D02*
D03*
X436508Y277500D02*
D03*
X504500Y336114D02*
D03*
X468500Y336614D02*
D03*
X184350Y251969D02*
D03*
X148350Y252469D02*
D03*
X131850Y304500D02*
D03*
X131350Y268500D02*
D03*
X201575Y270500D02*
D03*
X202075Y306500D02*
D03*
X148350Y323335D02*
D03*
X184350Y322835D02*
D03*
X322016Y244087D02*
D03*
Y262000D02*
D03*
X348000D02*
D03*
Y244087D02*
D03*
D52*
X358000Y343000D02*
D03*
D53*
X409480Y335071D02*
D03*
X394520D02*
D03*
D54*
X236000Y346000D02*
D03*
X288000D02*
D03*
D55*
X408000Y272000D02*
D03*
Y252000D02*
D03*
D56*
X275000Y341000D02*
D03*
X268500Y282500D02*
D03*
X124000Y303500D02*
D03*
X296000Y307000D02*
D03*
X295500Y275000D02*
D03*
X317500Y250500D02*
D03*
X190500Y337000D02*
D03*
X218000Y316000D02*
D03*
X154000Y283000D02*
D03*
X231000Y271500D02*
D03*
X356000Y276500D02*
D03*
X326000Y250000D02*
D03*
X373500Y295500D02*
D03*
X352500Y312000D02*
D03*
X412000Y288803D02*
D03*
X401750Y315250D02*
D03*
X143335Y316835D02*
D03*
X228500Y283000D02*
D03*
X232000Y306500D02*
D03*
X293500Y281000D02*
D03*
Y291500D02*
D03*
X210500Y307000D02*
D03*
X267000Y343000D02*
D03*
X249000Y325000D02*
D03*
X256500Y321000D02*
D03*
X147500Y260500D02*
D03*
X282000Y302742D02*
D03*
X279500Y293500D02*
D03*
X249000Y312000D02*
D03*
X289500Y295000D02*
D03*
X296083Y301417D02*
D03*
X248500Y289500D02*
D03*
X223500Y319500D02*
D03*
X325500Y318000D02*
D03*
X371000Y304500D02*
D03*
X344500Y295500D02*
D03*
X526000Y274000D02*
D03*
X343500Y300500D02*
D03*
X331500Y263500D02*
D03*
Y249000D02*
D03*
X429500Y314500D02*
D03*
X318500Y277000D02*
D03*
X506000Y326500D02*
D03*
X294000Y330000D02*
D03*
X461000Y256500D02*
D03*
X375000Y284000D02*
D03*
X356500Y287000D02*
D03*
X343000Y290500D02*
D03*
X312000Y268000D02*
D03*
X327000Y278500D02*
D03*
X349500Y284000D02*
D03*
X294500Y325000D02*
D03*
X369500Y292000D02*
D03*
X383500Y278000D02*
D03*
Y273000D02*
D03*
Y268000D02*
D03*
X398000Y319000D02*
D03*
X400500Y281500D02*
D03*
M02*
