%FSLAX25Y25*%
%MOIN*%
G70*
G01*
G75*
G04 Layer_Physical_Order=1*
G04 Layer_Color=255*
%ADD10C,0.05000*%
%ADD11R,0.03937X0.04331*%
%ADD12R,0.04331X0.03937*%
%ADD13R,0.07874X0.03937*%
%ADD14R,0.00984X0.11811*%
%ADD15R,0.07480X0.07480*%
%ADD16R,0.06890X0.04331*%
%ADD17R,0.06890X0.04331*%
%ADD18R,0.06890X0.13583*%
%ADD19R,0.05906X0.05118*%
%ADD20C,0.06000*%
%ADD21C,0.01969*%
%ADD22C,0.01000*%
%ADD23C,0.01181*%
%ADD24R,0.05000X0.04724*%
%ADD25C,0.02500*%
%ADD26R,0.05000X0.05000*%
%ADD27C,0.04724*%
%ADD28C,0.02756*%
D10*
X358000Y350000D02*
D03*
X365000Y343000D02*
D03*
X372000Y350000D02*
D03*
X365000D02*
D03*
X250173Y346000D02*
D03*
X243087D02*
D03*
X295087D02*
D03*
X302173D02*
D03*
D11*
X230000Y323346D02*
D03*
Y316654D02*
D03*
X228000Y299346D02*
D03*
Y292654D02*
D03*
X418000Y249307D02*
D03*
Y256000D02*
D03*
D12*
X377346Y278000D02*
D03*
X370654D02*
D03*
X377346Y272000D02*
D03*
X370654D02*
D03*
X318588Y292251D02*
D03*
X325281D02*
D03*
X344654Y272000D02*
D03*
X351346D02*
D03*
X333346D02*
D03*
X326654D02*
D03*
X363346Y298000D02*
D03*
X356654D02*
D03*
Y292000D02*
D03*
X363346D02*
D03*
X337912Y280000D02*
D03*
X344605D02*
D03*
X325346Y284000D02*
D03*
X318654D02*
D03*
X408654Y264000D02*
D03*
X415346D02*
D03*
D13*
X304000Y317165D02*
D03*
Y309331D02*
D03*
Y301417D02*
D03*
Y293386D02*
D03*
Y285630D02*
D03*
Y277756D02*
D03*
Y270000D02*
D03*
X241008Y269882D02*
D03*
Y277677D02*
D03*
Y285630D02*
D03*
Y293425D02*
D03*
Y301535D02*
D03*
Y309488D02*
D03*
Y317205D02*
D03*
Y325236D02*
D03*
X304000Y325079D02*
D03*
D14*
X407118Y330315D02*
D03*
X404559D02*
D03*
X402000D02*
D03*
X399441D02*
D03*
X396882D02*
D03*
D15*
X417551Y343535D02*
D03*
X386449D02*
D03*
D16*
X319106Y323055D02*
D03*
D17*
Y314000D02*
D03*
Y304945D02*
D03*
D18*
X344894Y314000D02*
D03*
D19*
X360000Y308260D02*
D03*
Y315740D02*
D03*
D20*
X503720Y250000D02*
D03*
X467720Y250500D02*
D03*
X535500Y275500D02*
D03*
X536000Y311500D02*
D03*
X437008Y313500D02*
D03*
X436508Y277500D02*
D03*
X504500Y336114D02*
D03*
X468500Y336614D02*
D03*
X184350Y251969D02*
D03*
X148350Y252469D02*
D03*
X131850Y304500D02*
D03*
X131350Y268500D02*
D03*
X201575Y270500D02*
D03*
X202075Y306500D02*
D03*
X148350Y323335D02*
D03*
X184350Y322835D02*
D03*
X322016Y244087D02*
D03*
Y262000D02*
D03*
X348000D02*
D03*
Y244087D02*
D03*
D21*
X347000Y312000D02*
X352500D01*
X346894D02*
X347000D01*
X344894Y314000D02*
X346894Y312000D01*
X356685Y304945D02*
X360000Y308260D01*
X319106Y304945D02*
X356685D01*
X358760Y316500D02*
X359591Y317331D01*
X358000Y318921D02*
X359591Y317331D01*
X358000Y318921D02*
Y343000D01*
X417551Y294354D02*
Y338366D01*
X412000Y288803D02*
X417551Y294354D01*
X385913Y343000D02*
X386449Y343535D01*
X365000Y343000D02*
X385913D01*
X230000Y323346D02*
X231890Y325236D01*
X241008D01*
X223500Y303000D02*
X227154Y299346D01*
X228000D01*
X223500Y303000D02*
Y319500D01*
X242764Y325236D02*
X250500Y317500D01*
Y316424D02*
Y317500D01*
Y316424D02*
X264182Y302742D01*
X241008Y325236D02*
X242764D01*
X264182Y302742D02*
X282000D01*
X410186Y277314D02*
X415346Y272154D01*
X404686Y277314D02*
X410186D01*
X396500Y285500D02*
X400500Y281500D01*
X387583Y285500D02*
X396500D01*
X400500Y281500D02*
X404686Y277314D01*
X415346Y258654D02*
X418000Y256000D01*
X415346Y258654D02*
Y264000D01*
Y272154D01*
X417551Y338366D02*
Y343535D01*
X409500Y330315D02*
X417551Y338366D01*
X326654Y268346D02*
X331500Y263500D01*
X326654Y268346D02*
Y272000D01*
X366516Y251016D02*
X383500Y268000D01*
X331500Y249000D02*
X333516Y251016D01*
X366516D01*
X348000Y262000D02*
X351346Y265346D01*
Y272000D01*
X344605Y272049D02*
Y280000D01*
X349500Y296154D02*
X351346Y298000D01*
X349500Y284000D02*
Y296154D01*
X326654Y272000D02*
X327000Y272346D01*
Y278500D01*
X323906D02*
X327000D01*
X318654Y283753D02*
X323906Y278500D01*
X318654Y283753D02*
Y284000D01*
X377583Y295500D02*
X387583Y285500D01*
X369362Y295500D02*
X377583D01*
X367500Y297362D02*
X369362Y295500D01*
X367500Y297362D02*
Y301000D01*
X366547Y301953D02*
X367500Y301000D01*
X359953Y301953D02*
X366547D01*
X356654Y298654D02*
X359953Y301953D01*
X356654Y298000D02*
Y298654D01*
X351346Y298000D02*
X356654D01*
X344605Y280000D02*
X348605Y284000D01*
X349500D01*
X294579Y325079D02*
X304000D01*
X324161Y318000D02*
X325500D01*
X319106Y323055D02*
X324161Y318000D01*
X304000Y325079D02*
X308921D01*
X310945Y323055D01*
X319106D01*
Y314000D02*
Y323055D01*
X363346Y292000D02*
Y298000D01*
X369500Y292000D02*
X376030D01*
X363346D02*
X369500D01*
X376030D02*
X386862Y281168D01*
Y271607D02*
Y281168D01*
X383500Y268245D02*
X386862Y271607D01*
X383500Y268000D02*
Y268245D01*
X391567Y325000D02*
X394567Y328000D01*
X387362Y325000D02*
X391567D01*
X378862Y316500D02*
X387362Y325000D01*
X358760Y316500D02*
X378862D01*
D22*
X401750Y315250D02*
X402000Y315500D01*
X399441Y330315D02*
Y345559D01*
X396000Y349000D02*
X399441Y345559D01*
X380000Y349000D02*
X396000D01*
X376500Y345500D02*
X380000Y349000D01*
X374000Y352000D02*
X396000D01*
X372000Y350000D02*
X374000Y352000D01*
X369500Y345500D02*
X376500D01*
X365000Y350000D02*
X369500Y345500D01*
X402000Y330315D02*
Y346000D01*
X396000Y352000D02*
X402000Y346000D01*
X148350Y321850D02*
Y323335D01*
X143335Y316835D02*
X148350Y321850D01*
X230000Y316654D02*
X230551Y317205D01*
X230000Y338342D02*
Y349000D01*
X222658Y331000D02*
X230000Y338342D01*
X215000Y331000D02*
X222658D01*
X201575Y270500D02*
X216000D01*
X228500Y283000D01*
X232000Y306500D02*
X234988Y309488D01*
X241008D01*
X228000Y292654D02*
X232154D01*
X234000Y294500D01*
Y299000D01*
X236535Y301535D01*
X241008D01*
X236925Y293425D02*
X241008D01*
X231925Y288425D02*
X236925Y293425D01*
X220575Y288425D02*
X231925D01*
X216500Y292500D02*
X220575Y288425D01*
X216500Y292500D02*
Y311500D01*
X131350Y268500D02*
X176000D01*
X123500D02*
X131350D01*
X176000D02*
X184350Y260150D01*
Y251969D02*
Y260150D01*
X118500Y273500D02*
X123500Y268500D01*
X118500Y273500D02*
Y305000D01*
X125000Y311500D01*
X148500D01*
X184350Y275650D01*
X189500Y270500D02*
X201575D01*
X184350Y275650D02*
X189500Y270500D01*
X184350Y275650D02*
Y322835D01*
X131850Y304500D02*
X147500D01*
X189500Y262500D01*
X214000D01*
X233000Y281500D01*
X264500D01*
X266627Y279373D01*
X291873D01*
X293500Y281000D01*
Y291500D02*
X295386Y293386D01*
X297614D01*
X286000Y295000D02*
X289500D01*
X280630Y289630D02*
X286000Y295000D01*
X253870Y289630D02*
X280630D01*
X243087Y346587D02*
X247500Y351000D01*
X243087Y346587D02*
Y348913D01*
Y346000D02*
Y346587D01*
X241000Y351000D02*
X243087Y348913D01*
X232000Y351000D02*
X241000D01*
X230000Y349000D02*
X232000Y351000D01*
X209000Y325000D02*
X215000Y331000D01*
X209000Y319000D02*
Y325000D01*
Y319000D02*
X216500Y311500D01*
X230551Y317205D02*
X241008D01*
X202075Y306500D02*
X202575Y307000D01*
X210500D01*
X260500Y343000D02*
X267000D01*
X256500Y339000D02*
X260500Y343000D01*
X256500Y321000D02*
Y339000D01*
X236000Y338000D02*
Y346000D01*
Y338000D02*
X238500Y335500D01*
X242500D01*
X249000Y329000D01*
Y325000D02*
Y329000D01*
X147500Y253319D02*
X148350Y252469D01*
X147500Y253319D02*
Y260500D01*
X249000Y303000D02*
Y312000D01*
Y303000D02*
X250500Y301500D01*
Y293000D02*
Y301500D01*
Y293000D02*
X253870Y289630D01*
X296083Y301417D02*
X304000D01*
X297614Y293386D02*
X304000D01*
X292000Y299000D02*
X297614Y293386D01*
X292000Y299000D02*
Y313000D01*
X286000Y319000D02*
X292000Y313000D01*
X248500Y289500D02*
Y298500D01*
X245465Y301535D02*
X248500Y298500D01*
X241008Y301535D02*
X245465D01*
X248500Y289500D02*
X250370Y287630D01*
X295130D01*
X297000Y289500D01*
X288000Y322447D02*
Y346000D01*
Y322447D02*
X301116Y309331D01*
X291622Y323808D02*
X298265Y317165D01*
X291622Y323808D02*
Y327622D01*
X294000Y330000D01*
X297000Y289500D02*
X315000D01*
X317751Y292251D01*
X318588D01*
X286000Y319000D02*
Y338500D01*
X278500Y346000D02*
X286000Y338500D01*
X250173Y346000D02*
X278500D01*
X247500Y351000D02*
X290121D01*
X295087Y346035D01*
Y346000D02*
Y346035D01*
X301116Y309331D02*
X304000D01*
X402000Y315500D02*
Y330315D01*
X411215Y279799D02*
X413513Y277500D01*
X406201Y279799D02*
X411215D01*
X403378Y282622D02*
X406201Y279799D01*
X397570Y288500D02*
X403378Y282692D01*
X388213Y288500D02*
X397570D01*
X403378Y282622D02*
Y282692D01*
X413513Y277500D02*
X436508D01*
X408000Y264654D02*
Y272000D01*
Y264654D02*
X408654Y264000D01*
X413193Y249307D02*
X418000D01*
X410500Y252000D02*
X413193Y249307D01*
X408000Y252000D02*
X410500D01*
X316500Y279500D02*
X318500Y277500D01*
X312000Y279500D02*
X316500D01*
X318500Y277000D02*
Y277500D01*
X371000Y304500D02*
X372394Y303106D01*
X373606D01*
X388213Y288500D01*
X334000Y295500D02*
X344500D01*
X332000Y297500D02*
X334000Y295500D01*
X329328Y297500D02*
X332000D01*
X307698Y297720D02*
X329109D01*
X304000Y301417D02*
X307698Y297720D01*
X534000Y274000D02*
X535500Y275500D01*
X526000Y274000D02*
X534000D01*
X315500Y300500D02*
X343500D01*
X313500Y302500D02*
X315500Y300500D01*
X313500Y302500D02*
Y305500D01*
X309669Y309331D02*
X313500Y305500D01*
X304000Y309331D02*
X309669D01*
X336000Y258000D02*
X337912Y259912D01*
X328604Y258000D02*
X336000D01*
X326500Y260104D02*
X328604Y258000D01*
X326516Y260120D02*
Y263984D01*
X324000Y266500D02*
X326516Y263984D01*
X326500Y260104D02*
X326516Y260120D01*
X313500Y266500D02*
X324000D01*
X264000Y266172D02*
X267672Y262500D01*
X266000Y267000D02*
X268500Y264500D01*
X314117D01*
X267672Y262500D02*
X313288D01*
X313500Y262288D01*
X314117Y264500D02*
X315500Y263117D01*
X312000Y268000D02*
X313500Y266500D01*
Y259172D02*
Y262288D01*
X357500Y255500D02*
X363500Y261500D01*
X320000Y255500D02*
X357500D01*
X315500Y260000D02*
X320000Y255500D01*
X358328Y253500D02*
X365500Y260672D01*
X319172Y253500D02*
X358328D01*
X313500Y259172D02*
X319172Y253500D01*
X429500Y314500D02*
X430500Y313500D01*
X437008D01*
X310000Y281500D02*
X312000Y279500D01*
X300000Y281500D02*
X310000D01*
X295870Y285630D02*
X300000Y281500D01*
X304000Y285630D02*
X305838Y287469D01*
X324031D01*
X325346Y286154D01*
Y284000D02*
Y286154D01*
X241008Y285630D02*
X295870D01*
X503720Y250000D02*
X512500Y258780D01*
Y317000D01*
X530500D01*
X476000D02*
X512500D01*
X530500D02*
X536000Y311500D01*
X468500Y324500D02*
X476000Y317000D01*
X468500Y324500D02*
Y336614D01*
X460122D02*
X468500D01*
X437008Y313500D02*
X460122Y336614D01*
X506000Y326500D02*
Y334614D01*
X504500Y336114D02*
X506000Y334614D01*
X298265Y317165D02*
X304000D01*
X461720Y256500D02*
X467720Y250500D01*
X461000Y256500D02*
X461720D01*
X370500Y287000D02*
X375000Y284000D01*
X356500Y287000D02*
X370500D01*
X356500D02*
Y291846D01*
X304386Y293000D02*
X313082D01*
X333500Y290500D02*
X343000D01*
X328280Y295720D02*
X333500Y290500D01*
X315802Y295720D02*
X328280D01*
X313082Y293000D02*
X315802Y295720D01*
X304000Y293386D02*
X304386Y293000D01*
X241126Y270000D02*
X262000D01*
X264000Y268000D01*
Y266172D02*
Y268000D01*
X365500Y260672D02*
Y270721D01*
X366779Y272000D01*
X370654D01*
X241185Y277500D02*
X264000D01*
X266000Y275500D01*
Y267000D02*
Y275500D01*
X315500Y260000D02*
Y263117D01*
X363500Y261500D02*
Y275500D01*
X366000Y278000D01*
X370654D01*
X377346Y272000D02*
X380000D01*
X381000Y273000D01*
X383500D01*
X377346Y278000D02*
X383500D01*
X306000Y268000D02*
X312000D01*
X337912Y259912D02*
Y280000D01*
X304000Y270000D02*
X306000Y268000D01*
X331000Y274346D02*
X333346Y272000D01*
X331000Y274346D02*
Y286532D01*
X325281Y292251D02*
X331000Y286532D01*
X408000Y272000D02*
Y272500D01*
X398000Y319000D02*
X399441Y320441D01*
Y330315D01*
X473720Y244000D02*
Y251500D01*
Y252500D02*
Y256000D01*
X474220Y252000D02*
X495720D01*
X475720Y242000D02*
X495220D01*
X474220Y248000D02*
X495720D01*
X495220Y242000D02*
X497720D01*
X473720Y256000D02*
X495720D01*
X475720Y258000D02*
X497720D01*
X475720Y254000D02*
X497720D01*
Y258000D01*
X473720Y240000D02*
X495720D01*
X473720Y256000D02*
Y260000D01*
X495720D01*
X526000Y281500D02*
Y303500D01*
Y281500D02*
X530000D01*
X546000D02*
Y303500D01*
X528000Y305500D02*
X532000D01*
Y283500D02*
Y305500D01*
X528000Y283500D02*
Y305500D01*
X530000Y281500D02*
Y303500D01*
X544000Y303000D02*
Y305500D01*
X538000Y282000D02*
Y303500D01*
X544000Y283500D02*
Y303000D01*
X534000Y282000D02*
Y303500D01*
X530000Y281500D02*
X533500D01*
X534500D02*
X542000D01*
X435508Y283500D02*
X443008D01*
X431008D02*
X434508D01*
X435008Y284000D02*
Y305500D01*
X445008Y285500D02*
Y305000D01*
X439008Y284000D02*
Y305500D01*
X445008Y305000D02*
Y307500D01*
X431008Y283500D02*
Y305500D01*
X429008Y285500D02*
Y307500D01*
X433008Y285500D02*
Y307500D01*
X429008D02*
X433008D01*
X447008Y283500D02*
Y305500D01*
X427008Y283500D02*
X431008D01*
X427008D02*
Y305500D01*
X476500Y326614D02*
X498500D01*
Y330614D01*
X476500Y346614D02*
X498500D01*
X474500Y328614D02*
Y332614D01*
X496500D01*
X474500Y328614D02*
X496500D01*
X476500Y330614D02*
X498500D01*
X474500Y344614D02*
X477000D01*
X476500Y338614D02*
X498000D01*
X477000Y344614D02*
X496500D01*
X476500Y334614D02*
X498000D01*
X498500Y330614D02*
Y334114D01*
Y335114D02*
Y342614D01*
X154350Y245969D02*
Y253469D01*
Y254469D02*
Y257969D01*
X154850Y253969D02*
X176350D01*
X156350Y243969D02*
X175850D01*
X154850Y249969D02*
X176350D01*
X175850Y243969D02*
X178350D01*
X154350Y257969D02*
X176350D01*
X156350Y259969D02*
X178350D01*
X156350Y255969D02*
X178350D01*
Y259969D01*
X154350Y241969D02*
X176350D01*
X154350Y257969D02*
Y261969D01*
X176350D01*
X141350Y276500D02*
Y298500D01*
X137350D02*
X141350D01*
X121350Y276500D02*
Y298500D01*
X135350Y274500D02*
X139350D01*
X135350D02*
Y296500D01*
X139350Y274500D02*
Y296500D01*
X137350Y276500D02*
Y298500D01*
X123350Y274500D02*
Y277000D01*
X129350Y276500D02*
Y298000D01*
X123350Y277000D02*
Y296500D01*
X133350Y276500D02*
Y298000D01*
X133850Y298500D02*
X137350D01*
X125350D02*
X132850D01*
X195575Y300500D02*
X203075D01*
X204075D02*
X207575D01*
X203575Y278500D02*
Y300000D01*
X193575Y279000D02*
Y298500D01*
X199575Y278500D02*
Y300000D01*
X193575Y276500D02*
Y279000D01*
X207575Y278500D02*
Y300500D01*
X209575Y276500D02*
Y298500D01*
X205575Y276500D02*
Y298500D01*
Y276500D02*
X209575D01*
X191575Y278500D02*
Y300500D01*
X207575D02*
X211575D01*
Y278500D02*
Y300500D01*
X154350Y332835D02*
X176350D01*
X154350Y328835D02*
Y332835D01*
Y312835D02*
X176350D01*
X178350Y326835D02*
Y330835D01*
X156350Y326835D02*
X178350D01*
X156350Y330835D02*
X178350D01*
X154350Y328835D02*
X176350D01*
X175850Y314835D02*
X178350D01*
X154850Y320835D02*
X176350D01*
X156350Y314835D02*
X175850D01*
X154850Y324835D02*
X176350D01*
X154350Y325335D02*
Y328835D01*
Y316835D02*
Y324335D01*
X125350Y276500D02*
Y298500D01*
X133350Y298000D02*
X133850Y298500D01*
X121350D02*
X125350D01*
X126350D01*
X131350D02*
X133350D01*
X133850D01*
X134850D01*
X473720Y250000D02*
Y252000D01*
Y252500D01*
Y253500D01*
Y244000D02*
X495720D01*
X473720Y240000D02*
Y244000D01*
Y245000D01*
Y252500D02*
X474220Y252000D01*
X437008Y307500D02*
Y313500D01*
X441008Y285500D02*
Y307500D01*
X433008D02*
X437008D01*
X441008D01*
X445008D01*
X437008Y285500D02*
Y307500D01*
X474500Y332614D02*
Y336614D01*
Y340614D01*
Y344614D01*
X468500Y336614D02*
X474500D01*
X496500D01*
X474500Y340614D02*
X496500D01*
X475720Y246000D02*
X497720D01*
Y242000D02*
Y246000D01*
Y250000D01*
Y254000D01*
X475720Y250000D02*
X497720D01*
X503720D01*
X536000Y283500D02*
Y305500D01*
X540000Y283500D02*
Y305500D01*
X532000D02*
X536000D01*
X540000D01*
X544000D01*
X536000D02*
Y311500D01*
X154350Y241969D02*
Y245969D01*
Y246969D01*
Y251969D02*
Y253969D01*
Y254469D01*
Y255469D01*
Y245969D02*
X176350D01*
X154350Y254469D02*
X154850Y253969D01*
X433508Y283500D02*
X434508D01*
X435008D01*
X437008D01*
X434508D02*
X435008Y284000D01*
X442008Y283500D02*
X443008D01*
X447008D01*
X443008D02*
Y305500D01*
X154350Y312835D02*
Y316835D01*
Y317835D01*
Y316835D02*
X176350D01*
X154350Y322835D02*
Y324835D01*
Y325335D01*
Y326335D01*
Y325335D02*
X154850Y324835D01*
X532500Y281500D02*
X533500D01*
X534000D01*
X536000D01*
X533500D02*
X534000Y282000D01*
X541000Y281500D02*
X542000D01*
X546000D01*
X542000D02*
Y303500D01*
X195575Y278500D02*
Y300500D01*
X203575Y300000D02*
X204075Y300500D01*
X191575D02*
X195575D01*
X196575D01*
X201575D02*
X203575D01*
X204075D01*
X205075D01*
X498000Y334614D02*
X498500Y334114D01*
Y333114D02*
Y334114D01*
Y334614D01*
Y336614D01*
X476500Y342614D02*
X498500D01*
Y341614D02*
Y342614D01*
Y346614D01*
X131350Y268500D02*
Y274500D01*
X127350D02*
Y296500D01*
X156350Y247969D02*
X178350D01*
X156350Y251969D02*
X178350D01*
X123350Y274500D02*
X127350D01*
X131350D01*
X135350D01*
X131350D02*
Y296500D01*
X156350Y318835D02*
X178350D01*
X156350Y322835D02*
X178350D01*
Y251969D02*
X184350D01*
X178350Y243969D02*
Y247969D01*
Y251969D01*
Y255969D01*
X201575Y270500D02*
Y276500D01*
X178350Y322835D02*
X184350D01*
X178350Y314835D02*
Y318835D01*
Y322835D01*
Y326835D01*
X193575Y276500D02*
X197575D01*
X201575D01*
X205575D01*
X197575D02*
Y298500D01*
X201575Y276500D02*
Y298500D01*
X133350D02*
Y304500D01*
X467720Y252000D02*
X473720D01*
X148350Y253969D02*
X154350D01*
X435008Y277500D02*
Y283500D01*
X148350Y324835D02*
X154350D01*
X534000Y275500D02*
Y281500D01*
X203575Y300500D02*
Y306500D01*
X498500Y334614D02*
X504500D01*
D23*
X282000Y302742D02*
X282237Y302505D01*
Y296237D02*
Y302505D01*
X279500Y293500D02*
X282237Y296237D01*
X407118Y330315D02*
X409500D01*
X394567Y328000D02*
X396882Y330315D01*
D24*
X358000Y343000D02*
D03*
D25*
X409480Y335071D02*
D03*
X394520D02*
D03*
D26*
X236000Y346000D02*
D03*
X288000D02*
D03*
D27*
X408000Y272000D02*
D03*
Y252000D02*
D03*
D28*
X352500Y312000D02*
D03*
X412000Y288803D02*
D03*
X401750Y315250D02*
D03*
X143335Y316835D02*
D03*
X228500Y283000D02*
D03*
X232000Y306500D02*
D03*
X293500Y281000D02*
D03*
Y291500D02*
D03*
X210500Y307000D02*
D03*
X267000Y343000D02*
D03*
X249000Y325000D02*
D03*
X256500Y321000D02*
D03*
X147500Y260500D02*
D03*
X282000Y302742D02*
D03*
X279500Y293500D02*
D03*
X249000Y312000D02*
D03*
X289500Y295000D02*
D03*
X296083Y301417D02*
D03*
X248500Y289500D02*
D03*
X223500Y319500D02*
D03*
X325500Y318000D02*
D03*
X371000Y304500D02*
D03*
X344500Y295500D02*
D03*
X526000Y274000D02*
D03*
X343500Y300500D02*
D03*
X331500Y263500D02*
D03*
Y249000D02*
D03*
X429500Y314500D02*
D03*
X318500Y277000D02*
D03*
X506000Y326500D02*
D03*
X294000Y330000D02*
D03*
X461000Y256500D02*
D03*
X375000Y284000D02*
D03*
X356500Y287000D02*
D03*
X343000Y290500D02*
D03*
X312000Y268000D02*
D03*
X327000Y278500D02*
D03*
X349500Y284000D02*
D03*
X294500Y325000D02*
D03*
X369500Y292000D02*
D03*
X383500Y278000D02*
D03*
Y273000D02*
D03*
Y268000D02*
D03*
X398000Y319000D02*
D03*
X400500Y281500D02*
D03*
M02*
