M48
;Layer_Color=9474304
;FILE_FORMAT=2:5
INCH,LZ
;TYPE=PLATED
T1F00S00C0.01181
T2F00S00C0.02756
T3F00S00C0.03543
;TYPE=NON_PLATED
T4F00S00C0.01800
%
T01
X0526Y0274
X0461Y02565
X0412Y0288803
X04005Y02815
X03835Y0278
Y0273
Y0268
X0375Y0284
X03695Y0292
X0371Y03045
X03525Y0312
X03435Y03005
X03445Y02955
X0343Y02905
X03495Y0284
X03565Y0287
X0327Y02785
X03185Y0277
X03315Y02635
Y0249
X0312Y0268
X02935Y0281
Y02915
X02895Y0295
X02795Y02935
X0282Y0302742
X0296083Y0301417
X0249Y0312
X0232Y03065
X02105Y0307
X02285Y0283
X02485Y02895
X01475Y02605
X0143335Y0316835
X02235Y03195
X0249Y0325
X02565Y0321
X0267Y0343
X0294Y033
X02945Y0325
X03255Y0318
X0398Y0319
X040175Y031525
X04295Y03145
X0506Y03265
T02
X0408Y0252
Y0272
X0302173Y0346
X0295087
X0288
X0250173
X0243087
X0236
X0358Y0343
X0365
Y035
X0372
T03
X0322016Y0244087
Y0262
X0348
Y0244087
T04
X039452Y0335071
X040948
M30
